M48
INCH,TZ
T1C0.0157
T2C0.0315
T3C0.0354
T4C0.0394
T5C0.0433
T6C0.0492
T7C0.0787
T8C0.0866
%
G90
G05
T1
X5000Y13000
X5000Y11000
X11250Y11000
X11250Y9500
X15000Y18250
X15000Y16500
X15000Y15000
X15000Y13500
X15000Y13000
X18000Y24500
X18000Y23500
T2
X1500Y33000
X1500Y30000
X4000Y15500
X4000Y12500
X4000Y11500
X4000Y10713
X4500Y32000
X4500Y29000
X6000Y29921
X6000Y28000
X6000Y15000
X6000Y12000
X6000Y10953
X6000Y8000
X6000Y7000
X6000Y6000
X6000Y5000
X6000Y4000
X6000Y3000
X6216Y36800
X7000Y40000
X7000Y39016
X7200Y36800
X7250Y19000
X7250Y16000
X7500Y34500
X7500Y33516
X7500Y32484
X7500Y31500
X7500Y30500
X7500Y29516
X7500Y28484
X7500Y27500
X7500Y25000
X7500Y24000
X7500Y23016
X7500Y22000
X7500Y21016
X7500Y12000
X7500Y11000
X7500Y8000
X8000Y15000
X8000Y14000
X8000Y13000
X8000Y7000
X8000Y6000
X8000Y5000
X8484Y12000
X8500Y35500
X8500Y34500
X8500Y33500
X8500Y32500
X8500Y30500
X8500Y27500
X8500Y24000
X8500Y21000
X8500Y11000
X8500Y8000
X9000Y40000
X9000Y39016
X9000Y37984
X9000Y37000
X9000Y20000
X9000Y19213
X9000Y17750
X9000Y16963
X9000Y4000
X9000Y3000
X9500Y30500
X9500Y29500
X9500Y28500
X9500Y27500
X9500Y24000
X9500Y21000
X9500Y15000
X9500Y12000
X9500Y11000
X9500Y8000
X9531Y26000
X10000Y7000
X10000Y6000
X10000Y5000
X10000Y4000
X10000Y1000
X10500Y25000
X10500Y24000
X10500Y21000
X10500Y20000
X10500Y19016
X10500Y17984
X10500Y17000
X10500Y15000
X10500Y12000
X10500Y11000
X10500Y8000
X11500Y35500
X11500Y34500
X11500Y33500
X11500Y32500
X11500Y26000
X11500Y25000
X11500Y24000
X11500Y23000
X11500Y22000
X11500Y21000
X11500Y20000
X11500Y19000
X11500Y18000
X11500Y17000
X11500Y16000
X11500Y15000
X11500Y14000
X11500Y13000
X11500Y12000
X11500Y4000
X11500Y3000
X11500Y2000
X11500Y1000
X12000Y10953
X12000Y8000
X12000Y7000
X12000Y6000
X12000Y5000
X12500Y35500
X12500Y34516
X12500Y33484
X12500Y32500
X12500Y31500
X12500Y30500
X12500Y29500
X12500Y28500
X12500Y27500
X13000Y22000
X13000Y21000
X13000Y20000
X13000Y19000
X13000Y18000
X13000Y17000
X13000Y16000
X13000Y15000
X13000Y14000
X13000Y13000
X13484Y31500
X13500Y35500
X13500Y32500
X13500Y30500
X13500Y27500
X13500Y11000
X13500Y8000
X14000Y7000
X14000Y6000
X14000Y5000
X14500Y33500
X14500Y32500
X14500Y31500
X14500Y30500
X14500Y29500
X14500Y28500
X14500Y27500
X14500Y11000
X14500Y8000
X14500Y4000
X14500Y3000
X14500Y2000
X14500Y1000
X14713Y35500
X15500Y35500
X15500Y11000
X15500Y8000
X15500Y4000
X15500Y1000
X16000Y22000
X16000Y21000
X16000Y20000
X16000Y19000
X16000Y18000
X16000Y17000
X16000Y16000
X16000Y15000
X16000Y14000
X16000Y13000
X16000Y7000
X16000Y6000
X16000Y5000
X16500Y34500
X16500Y11000
X16500Y8000
X16500Y4000
X16500Y1000
X17484Y34500
X17500Y35500
X17500Y33500
X17500Y32500
X17500Y31500
X17500Y30500
X17500Y29500
X17500Y28500
X17500Y27500
X17500Y26000
X17500Y25000
X17500Y24000
X17500Y23000
X17500Y22000
X17500Y21000
X17500Y20000
X17500Y19000
X17500Y18000
X17500Y17000
X17500Y16000
X17500Y15000
X17500Y14000
X17500Y13000
X17500Y12000
X17500Y4000
X17500Y1000
X18000Y10953
X18000Y8000
X18000Y7000
X18000Y6000
X18000Y5000
X18500Y24000
X18500Y23016
X18500Y21984
X18500Y21000
X18500Y19000
X18500Y18016
X18500Y16984
X18500Y16000
X19000Y34000
X19000Y33000
X19000Y32000
X19500Y25000
X19500Y24000
X19500Y11000
X19500Y8000
X20000Y22500
X20000Y21713
X20000Y20000
X20000Y19213
X20000Y17500
X20000Y16713
X20000Y7000
X20000Y6000
X20000Y5000
X20500Y35500
X20500Y33000
X20500Y30000
X20500Y26000
X20500Y25000
X20500Y24000
X20500Y11000
X20500Y8000
T3
X3000Y31000
X3000Y30000
X19000Y31000
X19000Y30000
T4
X3500Y8270
X3500Y5750
X4500Y8270
X4500Y5750
T5
X10000Y40000
X10000Y39000
X10000Y38000
T6
X6000Y34000
X6000Y32000
T7
X1807Y7010
T8
X1892Y24500
X1892Y18594
X5041Y22413
X5041Y16508
X5750Y24500
X5750Y18594
T4
G00X2138Y36394
M15
G01X2138Y35606
M16
G05
G00X2925Y34150
M15
G01X3713Y34150
M16
G05
G00X4500Y36394
M15
G01X4500Y35606
M16
G05
T0
M30
