%TF.GenerationSoftware,KiCad,Pcbnew,7.0.6*%
%TF.CreationDate,2024-09-28T11:05:18+02:00*%
%TF.ProjectId,Analog-Video-Comb-Filter,416e616c-6f67-42d5-9669-64656f2d436f,rev?*%
%TF.SameCoordinates,PX71d9820PY9157080*%
%TF.FileFunction,Legend,Bot*%
%TF.FilePolarity,Positive*%
%FSLAX46Y46*%
G04 Gerber Fmt 4.6, Leading zero omitted, Abs format (unit mm)*
G04 Created by KiCad (PCBNEW 7.0.6) date 2024-09-28 11:05:18*
%MOMM*%
%LPD*%
G01*
G04 APERTURE LIST*
%ADD10C,0.200000*%
%ADD11C,0.150000*%
%ADD12C,0.120000*%
G04 APERTURE END LIST*
D10*
X47189996Y24627900D02*
X46975711Y24568377D01*
X46975711Y24568377D02*
X46618568Y24568377D01*
X46618568Y24568377D02*
X46475711Y24627900D01*
X46475711Y24627900D02*
X46404282Y24687424D01*
X46404282Y24687424D02*
X46332853Y24806472D01*
X46332853Y24806472D02*
X46332853Y24925520D01*
X46332853Y24925520D02*
X46404282Y25044567D01*
X46404282Y25044567D02*
X46475711Y25104091D01*
X46475711Y25104091D02*
X46618568Y25163615D01*
X46618568Y25163615D02*
X46904282Y25223139D01*
X46904282Y25223139D02*
X47047139Y25282662D01*
X47047139Y25282662D02*
X47118568Y25342186D01*
X47118568Y25342186D02*
X47189996Y25461234D01*
X47189996Y25461234D02*
X47189996Y25580281D01*
X47189996Y25580281D02*
X47118568Y25699329D01*
X47118568Y25699329D02*
X47047139Y25758853D01*
X47047139Y25758853D02*
X46904282Y25818377D01*
X46904282Y25818377D02*
X46547139Y25818377D01*
X46547139Y25818377D02*
X46332853Y25758853D01*
X45761425Y24925520D02*
X45047140Y24925520D01*
X45904282Y24568377D02*
X45404282Y25818377D01*
X45404282Y25818377D02*
X44904282Y24568377D01*
X44475711Y24925520D02*
X43761426Y24925520D01*
X44618568Y24568377D02*
X44118568Y25818377D01*
X44118568Y25818377D02*
X43618568Y24568377D01*
X42475712Y25401710D02*
X42475712Y24568377D01*
X42832854Y25877900D02*
X43189997Y24985043D01*
X43189997Y24985043D02*
X42261426Y24985043D01*
X41618569Y24568377D02*
X41332855Y24568377D01*
X41332855Y24568377D02*
X41189998Y24627900D01*
X41189998Y24627900D02*
X41118569Y24687424D01*
X41118569Y24687424D02*
X40975712Y24865996D01*
X40975712Y24865996D02*
X40904283Y25104091D01*
X40904283Y25104091D02*
X40904283Y25580281D01*
X40904283Y25580281D02*
X40975712Y25699329D01*
X40975712Y25699329D02*
X41047141Y25758853D01*
X41047141Y25758853D02*
X41189998Y25818377D01*
X41189998Y25818377D02*
X41475712Y25818377D01*
X41475712Y25818377D02*
X41618569Y25758853D01*
X41618569Y25758853D02*
X41689998Y25699329D01*
X41689998Y25699329D02*
X41761426Y25580281D01*
X41761426Y25580281D02*
X41761426Y25282662D01*
X41761426Y25282662D02*
X41689998Y25163615D01*
X41689998Y25163615D02*
X41618569Y25104091D01*
X41618569Y25104091D02*
X41475712Y25044567D01*
X41475712Y25044567D02*
X41189998Y25044567D01*
X41189998Y25044567D02*
X41047141Y25104091D01*
X41047141Y25104091D02*
X40975712Y25163615D01*
X40975712Y25163615D02*
X40904283Y25282662D01*
X39618570Y25818377D02*
X39904284Y25818377D01*
X39904284Y25818377D02*
X40047141Y25758853D01*
X40047141Y25758853D02*
X40118570Y25699329D01*
X40118570Y25699329D02*
X40261427Y25520758D01*
X40261427Y25520758D02*
X40332855Y25282662D01*
X40332855Y25282662D02*
X40332855Y24806472D01*
X40332855Y24806472D02*
X40261427Y24687424D01*
X40261427Y24687424D02*
X40189998Y24627900D01*
X40189998Y24627900D02*
X40047141Y24568377D01*
X40047141Y24568377D02*
X39761427Y24568377D01*
X39761427Y24568377D02*
X39618570Y24627900D01*
X39618570Y24627900D02*
X39547141Y24687424D01*
X39547141Y24687424D02*
X39475712Y24806472D01*
X39475712Y24806472D02*
X39475712Y25104091D01*
X39475712Y25104091D02*
X39547141Y25223139D01*
X39547141Y25223139D02*
X39618570Y25282662D01*
X39618570Y25282662D02*
X39761427Y25342186D01*
X39761427Y25342186D02*
X40047141Y25342186D01*
X40047141Y25342186D02*
X40189998Y25282662D01*
X40189998Y25282662D02*
X40261427Y25223139D01*
X40261427Y25223139D02*
X40332855Y25104091D01*
X38547141Y25818377D02*
X38404284Y25818377D01*
X38404284Y25818377D02*
X38261427Y25758853D01*
X38261427Y25758853D02*
X38189999Y25699329D01*
X38189999Y25699329D02*
X38118570Y25580281D01*
X38118570Y25580281D02*
X38047141Y25342186D01*
X38047141Y25342186D02*
X38047141Y25044567D01*
X38047141Y25044567D02*
X38118570Y24806472D01*
X38118570Y24806472D02*
X38189999Y24687424D01*
X38189999Y24687424D02*
X38261427Y24627900D01*
X38261427Y24627900D02*
X38404284Y24568377D01*
X38404284Y24568377D02*
X38547141Y24568377D01*
X38547141Y24568377D02*
X38689999Y24627900D01*
X38689999Y24627900D02*
X38761427Y24687424D01*
X38761427Y24687424D02*
X38832856Y24806472D01*
X38832856Y24806472D02*
X38904284Y25044567D01*
X38904284Y25044567D02*
X38904284Y25342186D01*
X38904284Y25342186D02*
X38832856Y25580281D01*
X38832856Y25580281D02*
X38761427Y25699329D01*
X38761427Y25699329D02*
X38689999Y25758853D01*
X38689999Y25758853D02*
X38547141Y25818377D01*
X35189999Y25877900D02*
X36475713Y24270758D01*
X33618570Y24627900D02*
X33404285Y24568377D01*
X33404285Y24568377D02*
X33047142Y24568377D01*
X33047142Y24568377D02*
X32904285Y24627900D01*
X32904285Y24627900D02*
X32832856Y24687424D01*
X32832856Y24687424D02*
X32761427Y24806472D01*
X32761427Y24806472D02*
X32761427Y24925520D01*
X32761427Y24925520D02*
X32832856Y25044567D01*
X32832856Y25044567D02*
X32904285Y25104091D01*
X32904285Y25104091D02*
X33047142Y25163615D01*
X33047142Y25163615D02*
X33332856Y25223139D01*
X33332856Y25223139D02*
X33475713Y25282662D01*
X33475713Y25282662D02*
X33547142Y25342186D01*
X33547142Y25342186D02*
X33618570Y25461234D01*
X33618570Y25461234D02*
X33618570Y25580281D01*
X33618570Y25580281D02*
X33547142Y25699329D01*
X33547142Y25699329D02*
X33475713Y25758853D01*
X33475713Y25758853D02*
X33332856Y25818377D01*
X33332856Y25818377D02*
X32975713Y25818377D01*
X32975713Y25818377D02*
X32761427Y25758853D01*
X32189999Y24925520D02*
X31475714Y24925520D01*
X32332856Y24568377D02*
X31832856Y25818377D01*
X31832856Y25818377D02*
X31332856Y24568377D01*
X30904285Y24925520D02*
X30190000Y24925520D01*
X31047142Y24568377D02*
X30547142Y25818377D01*
X30547142Y25818377D02*
X30047142Y24568377D01*
X28904286Y25401710D02*
X28904286Y24568377D01*
X29261428Y25877900D02*
X29618571Y24985043D01*
X29618571Y24985043D02*
X28690000Y24985043D01*
X28047143Y24568377D02*
X27761429Y24568377D01*
X27761429Y24568377D02*
X27618572Y24627900D01*
X27618572Y24627900D02*
X27547143Y24687424D01*
X27547143Y24687424D02*
X27404286Y24865996D01*
X27404286Y24865996D02*
X27332857Y25104091D01*
X27332857Y25104091D02*
X27332857Y25580281D01*
X27332857Y25580281D02*
X27404286Y25699329D01*
X27404286Y25699329D02*
X27475715Y25758853D01*
X27475715Y25758853D02*
X27618572Y25818377D01*
X27618572Y25818377D02*
X27904286Y25818377D01*
X27904286Y25818377D02*
X28047143Y25758853D01*
X28047143Y25758853D02*
X28118572Y25699329D01*
X28118572Y25699329D02*
X28190000Y25580281D01*
X28190000Y25580281D02*
X28190000Y25282662D01*
X28190000Y25282662D02*
X28118572Y25163615D01*
X28118572Y25163615D02*
X28047143Y25104091D01*
X28047143Y25104091D02*
X27904286Y25044567D01*
X27904286Y25044567D02*
X27618572Y25044567D01*
X27618572Y25044567D02*
X27475715Y25104091D01*
X27475715Y25104091D02*
X27404286Y25163615D01*
X27404286Y25163615D02*
X27332857Y25282662D01*
X26047144Y25818377D02*
X26332858Y25818377D01*
X26332858Y25818377D02*
X26475715Y25758853D01*
X26475715Y25758853D02*
X26547144Y25699329D01*
X26547144Y25699329D02*
X26690001Y25520758D01*
X26690001Y25520758D02*
X26761429Y25282662D01*
X26761429Y25282662D02*
X26761429Y24806472D01*
X26761429Y24806472D02*
X26690001Y24687424D01*
X26690001Y24687424D02*
X26618572Y24627900D01*
X26618572Y24627900D02*
X26475715Y24568377D01*
X26475715Y24568377D02*
X26190001Y24568377D01*
X26190001Y24568377D02*
X26047144Y24627900D01*
X26047144Y24627900D02*
X25975715Y24687424D01*
X25975715Y24687424D02*
X25904286Y24806472D01*
X25904286Y24806472D02*
X25904286Y25104091D01*
X25904286Y25104091D02*
X25975715Y25223139D01*
X25975715Y25223139D02*
X26047144Y25282662D01*
X26047144Y25282662D02*
X26190001Y25342186D01*
X26190001Y25342186D02*
X26475715Y25342186D01*
X26475715Y25342186D02*
X26618572Y25282662D01*
X26618572Y25282662D02*
X26690001Y25223139D01*
X26690001Y25223139D02*
X26761429Y25104091D01*
X24475715Y24568377D02*
X25332858Y24568377D01*
X24904287Y24568377D02*
X24904287Y25818377D01*
X24904287Y25818377D02*
X25047144Y25639805D01*
X25047144Y25639805D02*
X25190001Y25520758D01*
X25190001Y25520758D02*
X25332858Y25461234D01*
X22761430Y24925520D02*
X22047145Y24925520D01*
X22904287Y24568377D02*
X22404287Y25818377D01*
X22404287Y25818377D02*
X21904287Y24568377D01*
X21404288Y25401710D02*
X21404288Y24568377D01*
X21404288Y25282662D02*
X21332859Y25342186D01*
X21332859Y25342186D02*
X21190002Y25401710D01*
X21190002Y25401710D02*
X20975716Y25401710D01*
X20975716Y25401710D02*
X20832859Y25342186D01*
X20832859Y25342186D02*
X20761431Y25223139D01*
X20761431Y25223139D02*
X20761431Y24568377D01*
X19404288Y24568377D02*
X19404288Y25223139D01*
X19404288Y25223139D02*
X19475716Y25342186D01*
X19475716Y25342186D02*
X19618573Y25401710D01*
X19618573Y25401710D02*
X19904288Y25401710D01*
X19904288Y25401710D02*
X20047145Y25342186D01*
X19404288Y24627900D02*
X19547145Y24568377D01*
X19547145Y24568377D02*
X19904288Y24568377D01*
X19904288Y24568377D02*
X20047145Y24627900D01*
X20047145Y24627900D02*
X20118573Y24746948D01*
X20118573Y24746948D02*
X20118573Y24865996D01*
X20118573Y24865996D02*
X20047145Y24985043D01*
X20047145Y24985043D02*
X19904288Y25044567D01*
X19904288Y25044567D02*
X19547145Y25044567D01*
X19547145Y25044567D02*
X19404288Y25104091D01*
X18475716Y24568377D02*
X18618573Y24627900D01*
X18618573Y24627900D02*
X18690002Y24746948D01*
X18690002Y24746948D02*
X18690002Y25818377D01*
X17690002Y24568377D02*
X17832859Y24627900D01*
X17832859Y24627900D02*
X17904288Y24687424D01*
X17904288Y24687424D02*
X17975716Y24806472D01*
X17975716Y24806472D02*
X17975716Y25163615D01*
X17975716Y25163615D02*
X17904288Y25282662D01*
X17904288Y25282662D02*
X17832859Y25342186D01*
X17832859Y25342186D02*
X17690002Y25401710D01*
X17690002Y25401710D02*
X17475716Y25401710D01*
X17475716Y25401710D02*
X17332859Y25342186D01*
X17332859Y25342186D02*
X17261431Y25282662D01*
X17261431Y25282662D02*
X17190002Y25163615D01*
X17190002Y25163615D02*
X17190002Y24806472D01*
X17190002Y24806472D02*
X17261431Y24687424D01*
X17261431Y24687424D02*
X17332859Y24627900D01*
X17332859Y24627900D02*
X17475716Y24568377D01*
X17475716Y24568377D02*
X17690002Y24568377D01*
X15904288Y25401710D02*
X15904288Y24389805D01*
X15904288Y24389805D02*
X15975716Y24270758D01*
X15975716Y24270758D02*
X16047145Y24211234D01*
X16047145Y24211234D02*
X16190002Y24151710D01*
X16190002Y24151710D02*
X16404288Y24151710D01*
X16404288Y24151710D02*
X16547145Y24211234D01*
X15904288Y24627900D02*
X16047145Y24568377D01*
X16047145Y24568377D02*
X16332859Y24568377D01*
X16332859Y24568377D02*
X16475716Y24627900D01*
X16475716Y24627900D02*
X16547145Y24687424D01*
X16547145Y24687424D02*
X16618573Y24806472D01*
X16618573Y24806472D02*
X16618573Y25163615D01*
X16618573Y25163615D02*
X16547145Y25282662D01*
X16547145Y25282662D02*
X16475716Y25342186D01*
X16475716Y25342186D02*
X16332859Y25401710D01*
X16332859Y25401710D02*
X16047145Y25401710D01*
X16047145Y25401710D02*
X15904288Y25342186D01*
X14261430Y25818377D02*
X13761430Y24568377D01*
X13761430Y24568377D02*
X13261430Y25818377D01*
X12761431Y24568377D02*
X12761431Y25401710D01*
X12761431Y25818377D02*
X12832859Y25758853D01*
X12832859Y25758853D02*
X12761431Y25699329D01*
X12761431Y25699329D02*
X12690002Y25758853D01*
X12690002Y25758853D02*
X12761431Y25818377D01*
X12761431Y25818377D02*
X12761431Y25699329D01*
X11404288Y24568377D02*
X11404288Y25818377D01*
X11404288Y24627900D02*
X11547145Y24568377D01*
X11547145Y24568377D02*
X11832859Y24568377D01*
X11832859Y24568377D02*
X11975716Y24627900D01*
X11975716Y24627900D02*
X12047145Y24687424D01*
X12047145Y24687424D02*
X12118573Y24806472D01*
X12118573Y24806472D02*
X12118573Y25163615D01*
X12118573Y25163615D02*
X12047145Y25282662D01*
X12047145Y25282662D02*
X11975716Y25342186D01*
X11975716Y25342186D02*
X11832859Y25401710D01*
X11832859Y25401710D02*
X11547145Y25401710D01*
X11547145Y25401710D02*
X11404288Y25342186D01*
X10118573Y24627900D02*
X10261430Y24568377D01*
X10261430Y24568377D02*
X10547145Y24568377D01*
X10547145Y24568377D02*
X10690002Y24627900D01*
X10690002Y24627900D02*
X10761430Y24746948D01*
X10761430Y24746948D02*
X10761430Y25223139D01*
X10761430Y25223139D02*
X10690002Y25342186D01*
X10690002Y25342186D02*
X10547145Y25401710D01*
X10547145Y25401710D02*
X10261430Y25401710D01*
X10261430Y25401710D02*
X10118573Y25342186D01*
X10118573Y25342186D02*
X10047145Y25223139D01*
X10047145Y25223139D02*
X10047145Y25104091D01*
X10047145Y25104091D02*
X10761430Y24985043D01*
X9190002Y24568377D02*
X9332859Y24627900D01*
X9332859Y24627900D02*
X9404288Y24687424D01*
X9404288Y24687424D02*
X9475716Y24806472D01*
X9475716Y24806472D02*
X9475716Y25163615D01*
X9475716Y25163615D02*
X9404288Y25282662D01*
X9404288Y25282662D02*
X9332859Y25342186D01*
X9332859Y25342186D02*
X9190002Y25401710D01*
X9190002Y25401710D02*
X8975716Y25401710D01*
X8975716Y25401710D02*
X8832859Y25342186D01*
X8832859Y25342186D02*
X8761431Y25282662D01*
X8761431Y25282662D02*
X8690002Y25163615D01*
X8690002Y25163615D02*
X8690002Y24806472D01*
X8690002Y24806472D02*
X8761431Y24687424D01*
X8761431Y24687424D02*
X8832859Y24627900D01*
X8832859Y24627900D02*
X8975716Y24568377D01*
X8975716Y24568377D02*
X9190002Y24568377D01*
X47725715Y22674924D02*
X47797143Y22615400D01*
X47797143Y22615400D02*
X48011429Y22555877D01*
X48011429Y22555877D02*
X48154286Y22555877D01*
X48154286Y22555877D02*
X48368572Y22615400D01*
X48368572Y22615400D02*
X48511429Y22734448D01*
X48511429Y22734448D02*
X48582858Y22853496D01*
X48582858Y22853496D02*
X48654286Y23091591D01*
X48654286Y23091591D02*
X48654286Y23270162D01*
X48654286Y23270162D02*
X48582858Y23508258D01*
X48582858Y23508258D02*
X48511429Y23627305D01*
X48511429Y23627305D02*
X48368572Y23746353D01*
X48368572Y23746353D02*
X48154286Y23805877D01*
X48154286Y23805877D02*
X48011429Y23805877D01*
X48011429Y23805877D02*
X47797143Y23746353D01*
X47797143Y23746353D02*
X47725715Y23686829D01*
X46868572Y22555877D02*
X47011429Y22615400D01*
X47011429Y22615400D02*
X47082858Y22674924D01*
X47082858Y22674924D02*
X47154286Y22793972D01*
X47154286Y22793972D02*
X47154286Y23151115D01*
X47154286Y23151115D02*
X47082858Y23270162D01*
X47082858Y23270162D02*
X47011429Y23329686D01*
X47011429Y23329686D02*
X46868572Y23389210D01*
X46868572Y23389210D02*
X46654286Y23389210D01*
X46654286Y23389210D02*
X46511429Y23329686D01*
X46511429Y23329686D02*
X46440001Y23270162D01*
X46440001Y23270162D02*
X46368572Y23151115D01*
X46368572Y23151115D02*
X46368572Y22793972D01*
X46368572Y22793972D02*
X46440001Y22674924D01*
X46440001Y22674924D02*
X46511429Y22615400D01*
X46511429Y22615400D02*
X46654286Y22555877D01*
X46654286Y22555877D02*
X46868572Y22555877D01*
X45725715Y22555877D02*
X45725715Y23389210D01*
X45725715Y23270162D02*
X45654286Y23329686D01*
X45654286Y23329686D02*
X45511429Y23389210D01*
X45511429Y23389210D02*
X45297143Y23389210D01*
X45297143Y23389210D02*
X45154286Y23329686D01*
X45154286Y23329686D02*
X45082858Y23210639D01*
X45082858Y23210639D02*
X45082858Y22555877D01*
X45082858Y23210639D02*
X45011429Y23329686D01*
X45011429Y23329686D02*
X44868572Y23389210D01*
X44868572Y23389210D02*
X44654286Y23389210D01*
X44654286Y23389210D02*
X44511429Y23329686D01*
X44511429Y23329686D02*
X44440000Y23210639D01*
X44440000Y23210639D02*
X44440000Y22555877D01*
X43725715Y22555877D02*
X43725715Y23805877D01*
X43725715Y23329686D02*
X43582858Y23389210D01*
X43582858Y23389210D02*
X43297143Y23389210D01*
X43297143Y23389210D02*
X43154286Y23329686D01*
X43154286Y23329686D02*
X43082858Y23270162D01*
X43082858Y23270162D02*
X43011429Y23151115D01*
X43011429Y23151115D02*
X43011429Y22793972D01*
X43011429Y22793972D02*
X43082858Y22674924D01*
X43082858Y22674924D02*
X43154286Y22615400D01*
X43154286Y22615400D02*
X43297143Y22555877D01*
X43297143Y22555877D02*
X43582858Y22555877D01*
X43582858Y22555877D02*
X43725715Y22615400D01*
X40725715Y23210639D02*
X41225715Y23210639D01*
X41225715Y22555877D02*
X41225715Y23805877D01*
X41225715Y23805877D02*
X40511429Y23805877D01*
X39940001Y22555877D02*
X39940001Y23389210D01*
X39940001Y23805877D02*
X40011429Y23746353D01*
X40011429Y23746353D02*
X39940001Y23686829D01*
X39940001Y23686829D02*
X39868572Y23746353D01*
X39868572Y23746353D02*
X39940001Y23805877D01*
X39940001Y23805877D02*
X39940001Y23686829D01*
X39011429Y22555877D02*
X39154286Y22615400D01*
X39154286Y22615400D02*
X39225715Y22734448D01*
X39225715Y22734448D02*
X39225715Y23805877D01*
X38654286Y23389210D02*
X38082858Y23389210D01*
X38440001Y23805877D02*
X38440001Y22734448D01*
X38440001Y22734448D02*
X38368572Y22615400D01*
X38368572Y22615400D02*
X38225715Y22555877D01*
X38225715Y22555877D02*
X38082858Y22555877D01*
X37011429Y22615400D02*
X37154286Y22555877D01*
X37154286Y22555877D02*
X37440001Y22555877D01*
X37440001Y22555877D02*
X37582858Y22615400D01*
X37582858Y22615400D02*
X37654286Y22734448D01*
X37654286Y22734448D02*
X37654286Y23210639D01*
X37654286Y23210639D02*
X37582858Y23329686D01*
X37582858Y23329686D02*
X37440001Y23389210D01*
X37440001Y23389210D02*
X37154286Y23389210D01*
X37154286Y23389210D02*
X37011429Y23329686D01*
X37011429Y23329686D02*
X36940001Y23210639D01*
X36940001Y23210639D02*
X36940001Y23091591D01*
X36940001Y23091591D02*
X37654286Y22972543D01*
X36297144Y22555877D02*
X36297144Y23389210D01*
X36297144Y23151115D02*
X36225715Y23270162D01*
X36225715Y23270162D02*
X36154287Y23329686D01*
X36154287Y23329686D02*
X36011429Y23389210D01*
X36011429Y23389210D02*
X35868572Y23389210D01*
X34225716Y23032067D02*
X33082859Y23032067D01*
X30582859Y23389210D02*
X30582859Y22377305D01*
X30582859Y22377305D02*
X30654287Y22258258D01*
X30654287Y22258258D02*
X30725716Y22198734D01*
X30725716Y22198734D02*
X30868573Y22139210D01*
X30868573Y22139210D02*
X31082859Y22139210D01*
X31082859Y22139210D02*
X31225716Y22198734D01*
X30582859Y22615400D02*
X30725716Y22555877D01*
X30725716Y22555877D02*
X31011430Y22555877D01*
X31011430Y22555877D02*
X31154287Y22615400D01*
X31154287Y22615400D02*
X31225716Y22674924D01*
X31225716Y22674924D02*
X31297144Y22793972D01*
X31297144Y22793972D02*
X31297144Y23151115D01*
X31297144Y23151115D02*
X31225716Y23270162D01*
X31225716Y23270162D02*
X31154287Y23329686D01*
X31154287Y23329686D02*
X31011430Y23389210D01*
X31011430Y23389210D02*
X30725716Y23389210D01*
X30725716Y23389210D02*
X30582859Y23329686D01*
X29868573Y22555877D02*
X29868573Y23389210D01*
X29868573Y23805877D02*
X29940001Y23746353D01*
X29940001Y23746353D02*
X29868573Y23686829D01*
X29868573Y23686829D02*
X29797144Y23746353D01*
X29797144Y23746353D02*
X29868573Y23805877D01*
X29868573Y23805877D02*
X29868573Y23686829D01*
X29368572Y23389210D02*
X28797144Y23389210D01*
X29154287Y23805877D02*
X29154287Y22734448D01*
X29154287Y22734448D02*
X29082858Y22615400D01*
X29082858Y22615400D02*
X28940001Y22555877D01*
X28940001Y22555877D02*
X28797144Y22555877D01*
X28297144Y22555877D02*
X28297144Y23805877D01*
X27654287Y22555877D02*
X27654287Y23210639D01*
X27654287Y23210639D02*
X27725715Y23329686D01*
X27725715Y23329686D02*
X27868572Y23389210D01*
X27868572Y23389210D02*
X28082858Y23389210D01*
X28082858Y23389210D02*
X28225715Y23329686D01*
X28225715Y23329686D02*
X28297144Y23270162D01*
X26297144Y23389210D02*
X26297144Y22555877D01*
X26940001Y23389210D02*
X26940001Y22734448D01*
X26940001Y22734448D02*
X26868572Y22615400D01*
X26868572Y22615400D02*
X26725715Y22555877D01*
X26725715Y22555877D02*
X26511429Y22555877D01*
X26511429Y22555877D02*
X26368572Y22615400D01*
X26368572Y22615400D02*
X26297144Y22674924D01*
X25582858Y22555877D02*
X25582858Y23805877D01*
X25582858Y23329686D02*
X25440001Y23389210D01*
X25440001Y23389210D02*
X25154286Y23389210D01*
X25154286Y23389210D02*
X25011429Y23329686D01*
X25011429Y23329686D02*
X24940001Y23270162D01*
X24940001Y23270162D02*
X24868572Y23151115D01*
X24868572Y23151115D02*
X24868572Y22793972D01*
X24868572Y22793972D02*
X24940001Y22674924D01*
X24940001Y22674924D02*
X25011429Y22615400D01*
X25011429Y22615400D02*
X25154286Y22555877D01*
X25154286Y22555877D02*
X25440001Y22555877D01*
X25440001Y22555877D02*
X25582858Y22615400D01*
X24225715Y22674924D02*
X24154286Y22615400D01*
X24154286Y22615400D02*
X24225715Y22555877D01*
X24225715Y22555877D02*
X24297143Y22615400D01*
X24297143Y22615400D02*
X24225715Y22674924D01*
X24225715Y22674924D02*
X24225715Y22555877D01*
X22868572Y22615400D02*
X23011429Y22555877D01*
X23011429Y22555877D02*
X23297143Y22555877D01*
X23297143Y22555877D02*
X23440000Y22615400D01*
X23440000Y22615400D02*
X23511429Y22674924D01*
X23511429Y22674924D02*
X23582857Y22793972D01*
X23582857Y22793972D02*
X23582857Y23151115D01*
X23582857Y23151115D02*
X23511429Y23270162D01*
X23511429Y23270162D02*
X23440000Y23329686D01*
X23440000Y23329686D02*
X23297143Y23389210D01*
X23297143Y23389210D02*
X23011429Y23389210D01*
X23011429Y23389210D02*
X22868572Y23329686D01*
X22011429Y22555877D02*
X22154286Y22615400D01*
X22154286Y22615400D02*
X22225715Y22674924D01*
X22225715Y22674924D02*
X22297143Y22793972D01*
X22297143Y22793972D02*
X22297143Y23151115D01*
X22297143Y23151115D02*
X22225715Y23270162D01*
X22225715Y23270162D02*
X22154286Y23329686D01*
X22154286Y23329686D02*
X22011429Y23389210D01*
X22011429Y23389210D02*
X21797143Y23389210D01*
X21797143Y23389210D02*
X21654286Y23329686D01*
X21654286Y23329686D02*
X21582858Y23270162D01*
X21582858Y23270162D02*
X21511429Y23151115D01*
X21511429Y23151115D02*
X21511429Y22793972D01*
X21511429Y22793972D02*
X21582858Y22674924D01*
X21582858Y22674924D02*
X21654286Y22615400D01*
X21654286Y22615400D02*
X21797143Y22555877D01*
X21797143Y22555877D02*
X22011429Y22555877D01*
X20868572Y22555877D02*
X20868572Y23389210D01*
X20868572Y23270162D02*
X20797143Y23329686D01*
X20797143Y23329686D02*
X20654286Y23389210D01*
X20654286Y23389210D02*
X20440000Y23389210D01*
X20440000Y23389210D02*
X20297143Y23329686D01*
X20297143Y23329686D02*
X20225715Y23210639D01*
X20225715Y23210639D02*
X20225715Y22555877D01*
X20225715Y23210639D02*
X20154286Y23329686D01*
X20154286Y23329686D02*
X20011429Y23389210D01*
X20011429Y23389210D02*
X19797143Y23389210D01*
X19797143Y23389210D02*
X19654286Y23329686D01*
X19654286Y23329686D02*
X19582857Y23210639D01*
X19582857Y23210639D02*
X19582857Y22555877D01*
X17797143Y23865400D02*
X19082857Y22258258D01*
X16654286Y23389210D02*
X16654286Y22377305D01*
X16654286Y22377305D02*
X16725714Y22258258D01*
X16725714Y22258258D02*
X16797143Y22198734D01*
X16797143Y22198734D02*
X16940000Y22139210D01*
X16940000Y22139210D02*
X17154286Y22139210D01*
X17154286Y22139210D02*
X17297143Y22198734D01*
X16654286Y22615400D02*
X16797143Y22555877D01*
X16797143Y22555877D02*
X17082857Y22555877D01*
X17082857Y22555877D02*
X17225714Y22615400D01*
X17225714Y22615400D02*
X17297143Y22674924D01*
X17297143Y22674924D02*
X17368571Y22793972D01*
X17368571Y22793972D02*
X17368571Y23151115D01*
X17368571Y23151115D02*
X17297143Y23270162D01*
X17297143Y23270162D02*
X17225714Y23329686D01*
X17225714Y23329686D02*
X17082857Y23389210D01*
X17082857Y23389210D02*
X16797143Y23389210D01*
X16797143Y23389210D02*
X16654286Y23329686D01*
X15725714Y22555877D02*
X15868571Y22615400D01*
X15868571Y22615400D02*
X15940000Y22674924D01*
X15940000Y22674924D02*
X16011428Y22793972D01*
X16011428Y22793972D02*
X16011428Y23151115D01*
X16011428Y23151115D02*
X15940000Y23270162D01*
X15940000Y23270162D02*
X15868571Y23329686D01*
X15868571Y23329686D02*
X15725714Y23389210D01*
X15725714Y23389210D02*
X15511428Y23389210D01*
X15511428Y23389210D02*
X15368571Y23329686D01*
X15368571Y23329686D02*
X15297143Y23270162D01*
X15297143Y23270162D02*
X15225714Y23151115D01*
X15225714Y23151115D02*
X15225714Y22793972D01*
X15225714Y22793972D02*
X15297143Y22674924D01*
X15297143Y22674924D02*
X15368571Y22615400D01*
X15368571Y22615400D02*
X15511428Y22555877D01*
X15511428Y22555877D02*
X15725714Y22555877D01*
X14654285Y22615400D02*
X14511428Y22555877D01*
X14511428Y22555877D02*
X14225714Y22555877D01*
X14225714Y22555877D02*
X14082857Y22615400D01*
X14082857Y22615400D02*
X14011428Y22734448D01*
X14011428Y22734448D02*
X14011428Y22793972D01*
X14011428Y22793972D02*
X14082857Y22913020D01*
X14082857Y22913020D02*
X14225714Y22972543D01*
X14225714Y22972543D02*
X14440000Y22972543D01*
X14440000Y22972543D02*
X14582857Y23032067D01*
X14582857Y23032067D02*
X14654285Y23151115D01*
X14654285Y23151115D02*
X14654285Y23210639D01*
X14654285Y23210639D02*
X14582857Y23329686D01*
X14582857Y23329686D02*
X14440000Y23389210D01*
X14440000Y23389210D02*
X14225714Y23389210D01*
X14225714Y23389210D02*
X14082857Y23329686D01*
X12725714Y22615400D02*
X12868571Y22555877D01*
X12868571Y22555877D02*
X13154285Y22555877D01*
X13154285Y22555877D02*
X13297142Y22615400D01*
X13297142Y22615400D02*
X13368571Y22674924D01*
X13368571Y22674924D02*
X13439999Y22793972D01*
X13439999Y22793972D02*
X13439999Y23151115D01*
X13439999Y23151115D02*
X13368571Y23270162D01*
X13368571Y23270162D02*
X13297142Y23329686D01*
X13297142Y23329686D02*
X13154285Y23389210D01*
X13154285Y23389210D02*
X12868571Y23389210D01*
X12868571Y23389210D02*
X12725714Y23329686D01*
X12082857Y22555877D02*
X12082857Y23389210D01*
X12082857Y23805877D02*
X12154285Y23746353D01*
X12154285Y23746353D02*
X12082857Y23686829D01*
X12082857Y23686829D02*
X12011428Y23746353D01*
X12011428Y23746353D02*
X12082857Y23805877D01*
X12082857Y23805877D02*
X12082857Y23686829D01*
X10725714Y22615400D02*
X10868571Y22555877D01*
X10868571Y22555877D02*
X11154285Y22555877D01*
X11154285Y22555877D02*
X11297142Y22615400D01*
X11297142Y22615400D02*
X11368571Y22674924D01*
X11368571Y22674924D02*
X11439999Y22793972D01*
X11439999Y22793972D02*
X11439999Y23151115D01*
X11439999Y23151115D02*
X11368571Y23270162D01*
X11368571Y23270162D02*
X11297142Y23329686D01*
X11297142Y23329686D02*
X11154285Y23389210D01*
X11154285Y23389210D02*
X10868571Y23389210D01*
X10868571Y23389210D02*
X10725714Y23329686D01*
X10082857Y22555877D02*
X10082857Y23805877D01*
X9940000Y23032067D02*
X9511428Y22555877D01*
X9511428Y23389210D02*
X10082857Y22913020D01*
X8868571Y22555877D02*
X8868571Y23389210D01*
X8868571Y23805877D02*
X8939999Y23746353D01*
X8939999Y23746353D02*
X8868571Y23686829D01*
X8868571Y23686829D02*
X8797142Y23746353D01*
X8797142Y23746353D02*
X8868571Y23805877D01*
X8868571Y23805877D02*
X8868571Y23686829D01*
X8297142Y23389210D02*
X8011428Y22555877D01*
X8011428Y22555877D02*
X7725713Y23151115D01*
X7725713Y23151115D02*
X7439999Y22555877D01*
X7439999Y22555877D02*
X7154285Y23389210D01*
D11*
G36*
X35597676Y45105477D02*
G01*
X34161962Y45105477D01*
X34161962Y45513810D01*
X34304819Y45513810D01*
X34306352Y45509597D01*
X34305311Y45505236D01*
X34312737Y45480269D01*
X34360356Y45385031D01*
X34361545Y45383906D01*
X34374405Y45365539D01*
X34422024Y45317920D01*
X34423505Y45317229D01*
X34441516Y45303871D01*
X34536754Y45256252D01*
X34541207Y45255740D01*
X34544643Y45252857D01*
X34570295Y45248334D01*
X34665533Y45248334D01*
X34667071Y45248895D01*
X34689250Y45252183D01*
X34832107Y45299802D01*
X34835619Y45302590D01*
X34840086Y45302980D01*
X34861423Y45317920D01*
X35304819Y45761316D01*
X35304819Y45323334D01*
X35322366Y45275125D01*
X35366795Y45249473D01*
X35417319Y45258382D01*
X35450296Y45297682D01*
X35454819Y45323334D01*
X35454819Y45942381D01*
X35447098Y45963593D01*
X35441256Y45985399D01*
X35438444Y45987368D01*
X35437272Y45990590D01*
X35417726Y46001876D01*
X35399231Y46014826D01*
X35395813Y46014528D01*
X35392843Y46016242D01*
X35370616Y46012323D01*
X35348123Y46010355D01*
X35344308Y46007684D01*
X35342319Y46007333D01*
X35340198Y46004807D01*
X35326786Y45995414D01*
X34767876Y45436506D01*
X34653363Y45398334D01*
X34588000Y45398334D01*
X34519484Y45432592D01*
X34489077Y45463000D01*
X34454819Y45531515D01*
X34454819Y45734201D01*
X34489076Y45802716D01*
X34528090Y45841729D01*
X34549771Y45888225D01*
X34536494Y45937780D01*
X34494468Y45967206D01*
X34443361Y45962735D01*
X34422024Y45947795D01*
X34374405Y45900176D01*
X34373714Y45898695D01*
X34360356Y45880684D01*
X34312737Y45785446D01*
X34312224Y45780993D01*
X34309342Y45777557D01*
X34304819Y45751905D01*
X34304819Y45513810D01*
X34161962Y45513810D01*
X34161962Y46418572D01*
X34304819Y46418572D01*
X34305379Y46417034D01*
X34308668Y46394855D01*
X34356287Y46251998D01*
X34388178Y46211812D01*
X34438439Y46201526D01*
X34483553Y46225955D01*
X34502410Y46273667D01*
X34498589Y46299433D01*
X34454819Y46430743D01*
X34454819Y46638963D01*
X34489076Y46707478D01*
X34519484Y46737886D01*
X34588000Y46772143D01*
X34647828Y46772143D01*
X34716344Y46737885D01*
X34746751Y46707478D01*
X34785244Y46630492D01*
X34830867Y46448001D01*
X34832855Y46445057D01*
X34836546Y46432650D01*
X34884165Y46337412D01*
X34885354Y46336287D01*
X34898214Y46317920D01*
X34945833Y46270301D01*
X34947314Y46269610D01*
X34965325Y46256252D01*
X35060563Y46208633D01*
X35065016Y46208121D01*
X35068452Y46205238D01*
X35094104Y46200715D01*
X35189342Y46200715D01*
X35193555Y46202249D01*
X35197916Y46201207D01*
X35222883Y46208633D01*
X35318121Y46256252D01*
X35319246Y46257441D01*
X35337612Y46270300D01*
X35385232Y46317919D01*
X35385922Y46319401D01*
X35399282Y46337412D01*
X35446901Y46432650D01*
X35447413Y46437104D01*
X35450296Y46440539D01*
X35454819Y46466191D01*
X35454819Y46704286D01*
X35454259Y46705824D01*
X35450970Y46728004D01*
X35403351Y46870860D01*
X35371460Y46911046D01*
X35321199Y46921332D01*
X35276085Y46896903D01*
X35257228Y46849192D01*
X35261049Y46823426D01*
X35304819Y46692116D01*
X35304819Y46483896D01*
X35270561Y46415381D01*
X35240153Y46384974D01*
X35171637Y46350715D01*
X35111809Y46350715D01*
X35043293Y46384973D01*
X35012886Y46415380D01*
X34974392Y46492368D01*
X34928770Y46674857D01*
X34926781Y46677802D01*
X34923091Y46690208D01*
X34875472Y46785446D01*
X34874282Y46786572D01*
X34861423Y46804938D01*
X34813804Y46852557D01*
X34812322Y46853248D01*
X34794312Y46866606D01*
X34699074Y46914225D01*
X34694620Y46914738D01*
X34691185Y46917620D01*
X34665533Y46922143D01*
X34570295Y46922143D01*
X34566081Y46920610D01*
X34561720Y46921651D01*
X34536754Y46914225D01*
X34441516Y46866606D01*
X34440390Y46865417D01*
X34422024Y46852557D01*
X34374405Y46804938D01*
X34373714Y46803457D01*
X34360356Y46785446D01*
X34312737Y46690208D01*
X34312224Y46685755D01*
X34309342Y46682319D01*
X34304819Y46656667D01*
X34304819Y46418572D01*
X34161962Y46418572D01*
X34161962Y47802758D01*
X34304889Y47802758D01*
X34320340Y47753837D01*
X34339553Y47736249D01*
X34763930Y47466191D01*
X34339553Y47196133D01*
X34308302Y47155447D01*
X34310513Y47104192D01*
X34345154Y47066350D01*
X34396015Y47059627D01*
X34420085Y47069583D01*
X34925469Y47391191D01*
X35379819Y47391191D01*
X35428028Y47408738D01*
X35453680Y47453167D01*
X35444771Y47503691D01*
X35405471Y47536668D01*
X35379819Y47541191D01*
X34925469Y47541191D01*
X34420085Y47862799D01*
X34369992Y47873877D01*
X34324498Y47850166D01*
X34304889Y47802758D01*
X34161962Y47802758D01*
X34161962Y48228096D01*
X34304819Y48228096D01*
X34305379Y48226558D01*
X34308668Y48204379D01*
X34356287Y48061522D01*
X34388178Y48021336D01*
X34438439Y48011050D01*
X34483553Y48035479D01*
X34502410Y48083191D01*
X34498589Y48108957D01*
X34454819Y48240267D01*
X34454819Y48448487D01*
X34489076Y48517002D01*
X34519484Y48547410D01*
X34588000Y48581667D01*
X34647828Y48581667D01*
X34716344Y48547409D01*
X34746751Y48517002D01*
X34785244Y48440016D01*
X34830867Y48257525D01*
X34832855Y48254581D01*
X34836546Y48242174D01*
X34884165Y48146936D01*
X34885354Y48145811D01*
X34898214Y48127444D01*
X34945833Y48079825D01*
X34947314Y48079134D01*
X34965325Y48065776D01*
X35060563Y48018157D01*
X35065016Y48017645D01*
X35068452Y48014762D01*
X35094104Y48010239D01*
X35189342Y48010239D01*
X35193555Y48011773D01*
X35197916Y48010731D01*
X35222883Y48018157D01*
X35318121Y48065776D01*
X35319246Y48066965D01*
X35337612Y48079824D01*
X35385232Y48127443D01*
X35385922Y48128925D01*
X35399282Y48146936D01*
X35446901Y48242174D01*
X35447413Y48246628D01*
X35450296Y48250063D01*
X35454819Y48275715D01*
X35454819Y48513810D01*
X35454259Y48515348D01*
X35450970Y48537528D01*
X35403351Y48680384D01*
X35371460Y48720570D01*
X35321199Y48730856D01*
X35276085Y48706427D01*
X35257228Y48658716D01*
X35261049Y48632950D01*
X35304819Y48501640D01*
X35304819Y48293420D01*
X35270561Y48224905D01*
X35240153Y48194498D01*
X35171637Y48160239D01*
X35111809Y48160239D01*
X35043293Y48194497D01*
X35012885Y48224905D01*
X34974392Y48301892D01*
X34928770Y48484381D01*
X34926781Y48487326D01*
X34923091Y48499732D01*
X34875472Y48594970D01*
X34874282Y48596096D01*
X34861423Y48614462D01*
X34813804Y48662081D01*
X34812322Y48662772D01*
X34794312Y48676130D01*
X34699074Y48723749D01*
X34694620Y48724262D01*
X34691185Y48727144D01*
X34665533Y48731667D01*
X34570295Y48731667D01*
X34566081Y48730134D01*
X34561720Y48731175D01*
X34536754Y48723749D01*
X34441516Y48676130D01*
X34440390Y48674941D01*
X34422024Y48662081D01*
X34374405Y48614462D01*
X34373714Y48612981D01*
X34360356Y48594970D01*
X34312737Y48499732D01*
X34312224Y48495279D01*
X34309342Y48491843D01*
X34304819Y48466191D01*
X34304819Y48228096D01*
X34161962Y48228096D01*
X34161962Y48874524D01*
X35597676Y48874524D01*
X35597676Y45105477D01*
G37*
G36*
X34828628Y31696515D02*
G01*
X34794369Y31627999D01*
X34763963Y31597593D01*
X34695447Y31563334D01*
X34588000Y31563334D01*
X34519484Y31597592D01*
X34489077Y31627999D01*
X34454819Y31696516D01*
X34454819Y31984762D01*
X34828628Y31984762D01*
X34828628Y31696515D01*
G37*
G36*
X35304819Y33553659D02*
G01*
X35270561Y33485143D01*
X35240153Y33454736D01*
X35171637Y33420477D01*
X35064190Y33420477D01*
X34995674Y33454735D01*
X34969180Y33481229D01*
X34931009Y33595743D01*
X34931009Y33841905D01*
X35304819Y33841905D01*
X35304819Y33553659D01*
G37*
G36*
X34781009Y33601277D02*
G01*
X34746751Y33532761D01*
X34716344Y33502354D01*
X34647828Y33468096D01*
X34588000Y33468096D01*
X34519484Y33502354D01*
X34489076Y33532762D01*
X34454819Y33601277D01*
X34454819Y33841905D01*
X34781009Y33841905D01*
X34781009Y33601277D01*
G37*
G36*
X35597676Y31270477D02*
G01*
X34161962Y31270477D01*
X34161962Y31678810D01*
X34304819Y31678810D01*
X34306352Y31674597D01*
X34305311Y31670236D01*
X34312737Y31645269D01*
X34360356Y31550031D01*
X34361545Y31548906D01*
X34374405Y31530539D01*
X34422024Y31482920D01*
X34423505Y31482229D01*
X34441516Y31468871D01*
X34536754Y31421252D01*
X34541207Y31420740D01*
X34544643Y31417857D01*
X34570295Y31413334D01*
X34713152Y31413334D01*
X34717365Y31414868D01*
X34721726Y31413826D01*
X34746693Y31421252D01*
X34841931Y31468871D01*
X34843056Y31470061D01*
X34861423Y31482920D01*
X34909042Y31530539D01*
X34909733Y31532021D01*
X34923091Y31550031D01*
X34970710Y31645269D01*
X34971222Y31649723D01*
X34974105Y31653158D01*
X34978628Y31678810D01*
X34978628Y31984762D01*
X35379819Y31984762D01*
X35428028Y32002309D01*
X35453680Y32046738D01*
X35444771Y32097262D01*
X35405471Y32130239D01*
X35379819Y32134762D01*
X34379819Y32134762D01*
X34361510Y32128099D01*
X34342319Y32124714D01*
X34337968Y32119530D01*
X34331610Y32117215D01*
X34321867Y32100342D01*
X34309342Y32085414D01*
X34307624Y32075672D01*
X34305958Y32072786D01*
X34306536Y32069504D01*
X34304819Y32059762D01*
X34304819Y31678810D01*
X34161962Y31678810D01*
X34161962Y33062996D01*
X34304889Y33062996D01*
X34320340Y33014075D01*
X34339553Y32996487D01*
X34763930Y32726429D01*
X34339553Y32456371D01*
X34308302Y32415685D01*
X34310513Y32364430D01*
X34345154Y32326588D01*
X34396015Y32319865D01*
X34420085Y32329821D01*
X34925469Y32651429D01*
X35379819Y32651429D01*
X35428028Y32668976D01*
X35453680Y32713405D01*
X35444771Y32763929D01*
X35405471Y32796906D01*
X35379819Y32801429D01*
X34925469Y32801429D01*
X34420085Y33123037D01*
X34369992Y33134115D01*
X34324498Y33110404D01*
X34304889Y33062996D01*
X34161962Y33062996D01*
X34161962Y33583572D01*
X34304819Y33583572D01*
X34306352Y33579359D01*
X34305311Y33574998D01*
X34312737Y33550031D01*
X34360356Y33454793D01*
X34361545Y33453668D01*
X34374405Y33435301D01*
X34422024Y33387682D01*
X34423505Y33386991D01*
X34441516Y33373633D01*
X34536754Y33326014D01*
X34541207Y33325502D01*
X34544643Y33322619D01*
X34570295Y33318096D01*
X34665533Y33318096D01*
X34669746Y33319630D01*
X34674107Y33318588D01*
X34699074Y33326014D01*
X34794312Y33373633D01*
X34795437Y33374823D01*
X34813804Y33387682D01*
X34835613Y33409492D01*
X34835655Y33409019D01*
X34850595Y33387682D01*
X34898214Y33340063D01*
X34899695Y33339372D01*
X34917706Y33326014D01*
X35012944Y33278395D01*
X35017397Y33277883D01*
X35020833Y33275000D01*
X35046485Y33270477D01*
X35189342Y33270477D01*
X35193555Y33272011D01*
X35197916Y33270969D01*
X35222883Y33278395D01*
X35318121Y33326014D01*
X35319246Y33327203D01*
X35337612Y33340062D01*
X35385232Y33387681D01*
X35385922Y33389163D01*
X35399282Y33407174D01*
X35446901Y33502412D01*
X35447413Y33506866D01*
X35450296Y33510301D01*
X35454819Y33535953D01*
X35454819Y33916905D01*
X35448155Y33935214D01*
X35444771Y33954405D01*
X35439586Y33958756D01*
X35437272Y33965114D01*
X35420398Y33974857D01*
X35405471Y33987382D01*
X35395728Y33989100D01*
X35392843Y33990766D01*
X35389560Y33990188D01*
X35379819Y33991905D01*
X34379819Y33991905D01*
X34361510Y33985242D01*
X34342319Y33981857D01*
X34337968Y33976673D01*
X34331610Y33974358D01*
X34321867Y33957485D01*
X34309342Y33942557D01*
X34307624Y33932815D01*
X34305958Y33929929D01*
X34306536Y33926647D01*
X34304819Y33916905D01*
X34304819Y33583572D01*
X34161962Y33583572D01*
X34161962Y34239238D01*
X34305630Y34239238D01*
X34330059Y34194124D01*
X34377770Y34175267D01*
X34403536Y34179088D01*
X35403536Y34512421D01*
X35405227Y34513764D01*
X35407385Y34513822D01*
X35425137Y34529564D01*
X35443722Y34544312D01*
X35444154Y34546427D01*
X35445771Y34547860D01*
X35449250Y34571329D01*
X35454008Y34594573D01*
X35452979Y34596473D01*
X35453296Y34598608D01*
X35440875Y34618826D01*
X35429579Y34639687D01*
X35427571Y34640481D01*
X35426441Y34642321D01*
X35403536Y34654723D01*
X34403536Y34988056D01*
X34352252Y34986655D01*
X34313867Y34952618D01*
X34306342Y34901869D01*
X34333197Y34858157D01*
X34356102Y34845754D01*
X35142648Y34583572D01*
X34356102Y34321390D01*
X34315916Y34289499D01*
X34305630Y34239238D01*
X34161962Y34239238D01*
X34161962Y35393096D01*
X34304819Y35393096D01*
X34305379Y35391558D01*
X34308668Y35369379D01*
X34356287Y35226522D01*
X34359074Y35223010D01*
X34359465Y35218543D01*
X34374405Y35197206D01*
X34422024Y35149587D01*
X34468520Y35127906D01*
X34518075Y35141183D01*
X34547501Y35183209D01*
X34543030Y35234316D01*
X34528090Y35255653D01*
X34492990Y35290753D01*
X34454819Y35405267D01*
X34454819Y35476164D01*
X34492990Y35590678D01*
X34567102Y35664790D01*
X34644090Y35703284D01*
X34817624Y35746667D01*
X34942013Y35746667D01*
X35115547Y35703284D01*
X35192534Y35664790D01*
X35266648Y35590677D01*
X35304819Y35476165D01*
X35304819Y35405266D01*
X35266648Y35290754D01*
X35231548Y35255654D01*
X35209866Y35209157D01*
X35223143Y35159602D01*
X35265168Y35130176D01*
X35316275Y35134646D01*
X35337612Y35149586D01*
X35385232Y35197205D01*
X35387127Y35201270D01*
X35390948Y35203617D01*
X35403351Y35226522D01*
X35450970Y35369378D01*
X35450925Y35371014D01*
X35454819Y35393096D01*
X35454819Y35488334D01*
X35454259Y35489872D01*
X35450970Y35512052D01*
X35403351Y35654908D01*
X35400564Y35658419D01*
X35400174Y35662887D01*
X35385233Y35684224D01*
X35289994Y35779462D01*
X35288512Y35780153D01*
X35270502Y35793511D01*
X35175264Y35841130D01*
X35171735Y35841537D01*
X35159913Y35846809D01*
X34969437Y35894428D01*
X34965988Y35894068D01*
X34951247Y35896667D01*
X34808390Y35896667D01*
X34805132Y35895482D01*
X34790200Y35894428D01*
X34599724Y35846809D01*
X34596779Y35844821D01*
X34584373Y35841130D01*
X34489135Y35793511D01*
X34488011Y35792325D01*
X34469643Y35779462D01*
X34374405Y35684224D01*
X34372510Y35680161D01*
X34368689Y35677813D01*
X34356287Y35654908D01*
X34308668Y35512051D01*
X34308712Y35510417D01*
X34304819Y35488334D01*
X34304819Y35393096D01*
X34161962Y35393096D01*
X34161962Y36039524D01*
X35597676Y36039524D01*
X35597676Y31270477D01*
G37*
G36*
X34828628Y38657467D02*
G01*
X34794369Y38588951D01*
X34763963Y38558545D01*
X34695447Y38524286D01*
X34588000Y38524286D01*
X34519484Y38558544D01*
X34489077Y38588952D01*
X34454819Y38657468D01*
X34454819Y38945714D01*
X34828628Y38945714D01*
X34828628Y38657467D01*
G37*
G36*
X35597676Y37327806D02*
G01*
X34161962Y37327806D01*
X34161962Y37544524D01*
X34304819Y37544524D01*
X34322366Y37496315D01*
X34366795Y37470663D01*
X34417319Y37479572D01*
X34450296Y37518872D01*
X34454819Y37544524D01*
X34454819Y37945714D01*
X34781009Y37945714D01*
X34781009Y37687381D01*
X34798556Y37639172D01*
X34842985Y37613520D01*
X34893509Y37622429D01*
X34926486Y37661729D01*
X34931009Y37687381D01*
X34931009Y37945714D01*
X35379819Y37945714D01*
X35428028Y37963261D01*
X35453680Y38007690D01*
X35444771Y38058214D01*
X35405471Y38091191D01*
X35379819Y38095714D01*
X34379819Y38095714D01*
X34361510Y38089051D01*
X34342319Y38085666D01*
X34337968Y38080482D01*
X34331610Y38078167D01*
X34321867Y38061294D01*
X34309342Y38046366D01*
X34307624Y38036624D01*
X34305958Y38033738D01*
X34306536Y38030456D01*
X34304819Y38020714D01*
X34304819Y37544524D01*
X34161962Y37544524D01*
X34161962Y38639762D01*
X34304819Y38639762D01*
X34306352Y38635549D01*
X34305311Y38631188D01*
X34312737Y38606221D01*
X34360356Y38510983D01*
X34361545Y38509858D01*
X34374405Y38491491D01*
X34422024Y38443872D01*
X34423505Y38443181D01*
X34441516Y38429823D01*
X34536754Y38382204D01*
X34541207Y38381692D01*
X34544643Y38378809D01*
X34570295Y38374286D01*
X34713152Y38374286D01*
X34717365Y38375820D01*
X34721726Y38374778D01*
X34746693Y38382204D01*
X34841931Y38429823D01*
X34843056Y38431013D01*
X34861423Y38443872D01*
X34909042Y38491491D01*
X34909733Y38492973D01*
X34923091Y38510983D01*
X34970710Y38606221D01*
X34971222Y38610675D01*
X34974105Y38614110D01*
X34978628Y38639762D01*
X34978628Y38945714D01*
X35379819Y38945714D01*
X35428028Y38963261D01*
X35453680Y39007690D01*
X35444771Y39058214D01*
X35405471Y39091191D01*
X35379819Y39095714D01*
X34379819Y39095714D01*
X34361510Y39089051D01*
X34342319Y39085666D01*
X34337968Y39080482D01*
X34331610Y39078167D01*
X34321867Y39061294D01*
X34309342Y39046366D01*
X34307624Y39036624D01*
X34305958Y39033738D01*
X34306536Y39030456D01*
X34304819Y39020714D01*
X34304819Y38639762D01*
X34161962Y38639762D01*
X34161962Y39843262D01*
X34305958Y39843262D01*
X34314867Y39792738D01*
X34354167Y39759761D01*
X34379819Y39755238D01*
X35304819Y39755238D01*
X35304819Y39354048D01*
X35322366Y39305839D01*
X35366795Y39280187D01*
X35417319Y39289096D01*
X35450296Y39328396D01*
X35454819Y39354048D01*
X35454819Y39830238D01*
X35448155Y39848547D01*
X35444771Y39867738D01*
X35439586Y39872089D01*
X35437272Y39878447D01*
X35420398Y39888190D01*
X35405471Y39900715D01*
X35395728Y39902433D01*
X35392843Y39904099D01*
X35389560Y39903521D01*
X35379819Y39905238D01*
X34379819Y39905238D01*
X34331610Y39887691D01*
X34305958Y39843262D01*
X34161962Y39843262D01*
X34161962Y40048095D01*
X35597676Y40048095D01*
X35597676Y37327806D01*
G37*
X51889819Y79478095D02*
X50889819Y79478095D01*
X50889819Y79478095D02*
X50889819Y79240000D01*
X50889819Y79240000D02*
X50937438Y79097143D01*
X50937438Y79097143D02*
X51032676Y79001905D01*
X51032676Y79001905D02*
X51127914Y78954286D01*
X51127914Y78954286D02*
X51318390Y78906667D01*
X51318390Y78906667D02*
X51461247Y78906667D01*
X51461247Y78906667D02*
X51651723Y78954286D01*
X51651723Y78954286D02*
X51746961Y79001905D01*
X51746961Y79001905D02*
X51842200Y79097143D01*
X51842200Y79097143D02*
X51889819Y79240000D01*
X51889819Y79240000D02*
X51889819Y79478095D01*
X50985057Y78525714D02*
X50937438Y78478095D01*
X50937438Y78478095D02*
X50889819Y78382857D01*
X50889819Y78382857D02*
X50889819Y78144762D01*
X50889819Y78144762D02*
X50937438Y78049524D01*
X50937438Y78049524D02*
X50985057Y78001905D01*
X50985057Y78001905D02*
X51080295Y77954286D01*
X51080295Y77954286D02*
X51175533Y77954286D01*
X51175533Y77954286D02*
X51318390Y78001905D01*
X51318390Y78001905D02*
X51889819Y78573333D01*
X51889819Y78573333D02*
X51889819Y77954286D01*
G36*
X35597676Y40661616D02*
G01*
X34161962Y40661616D01*
X34161962Y41177072D01*
X34305958Y41177072D01*
X34309738Y41155635D01*
X34311139Y41133914D01*
X34314118Y41130796D01*
X34314867Y41126548D01*
X34331542Y41112556D01*
X34346577Y41096817D01*
X34350863Y41096343D01*
X34354167Y41093571D01*
X34379819Y41089048D01*
X35304819Y41089048D01*
X35304819Y40878334D01*
X35322366Y40830125D01*
X35366795Y40804473D01*
X35417319Y40813382D01*
X35450296Y40852682D01*
X35454819Y40878334D01*
X35454819Y41449762D01*
X35437272Y41497971D01*
X35392843Y41523623D01*
X35342319Y41514714D01*
X35309342Y41475414D01*
X35304819Y41449762D01*
X35304819Y41239048D01*
X34608504Y41239048D01*
X34670947Y41301491D01*
X34671637Y41302973D01*
X34684996Y41320983D01*
X34732615Y41416221D01*
X34738480Y41467187D01*
X34710214Y41510000D01*
X34661039Y41524627D01*
X34613968Y41504224D01*
X34598451Y41483303D01*
X34556274Y41398951D01*
X34474894Y41317571D01*
X34338216Y41226452D01*
X34335661Y41222976D01*
X34331610Y41221501D01*
X34320726Y41202652D01*
X34307837Y41185110D01*
X34308114Y41180808D01*
X34305958Y41177072D01*
X34161962Y41177072D01*
X34161962Y41973572D01*
X34304819Y41973572D01*
X34305379Y41972034D01*
X34308668Y41949855D01*
X34356287Y41806998D01*
X34388178Y41766812D01*
X34438439Y41756526D01*
X34483553Y41780955D01*
X34502410Y41828667D01*
X34498589Y41854433D01*
X34454819Y41985743D01*
X34454819Y42193963D01*
X34489076Y42262478D01*
X34519483Y42292885D01*
X34588000Y42327143D01*
X34647828Y42327143D01*
X34716344Y42292885D01*
X34746751Y42262478D01*
X34785244Y42185492D01*
X34830867Y42003001D01*
X34832855Y42000057D01*
X34836546Y41987650D01*
X34884165Y41892412D01*
X34885354Y41891287D01*
X34898214Y41872920D01*
X34945833Y41825301D01*
X34947314Y41824610D01*
X34965325Y41811252D01*
X35060563Y41763633D01*
X35065016Y41763121D01*
X35068452Y41760238D01*
X35094104Y41755715D01*
X35189342Y41755715D01*
X35193555Y41757249D01*
X35197916Y41756207D01*
X35222883Y41763633D01*
X35318121Y41811252D01*
X35319246Y41812441D01*
X35337612Y41825300D01*
X35385232Y41872919D01*
X35385922Y41874401D01*
X35399282Y41892412D01*
X35446901Y41987650D01*
X35447413Y41992104D01*
X35450296Y41995539D01*
X35454819Y42021191D01*
X35454819Y42259286D01*
X35454259Y42260824D01*
X35450970Y42283004D01*
X35403351Y42425860D01*
X35371460Y42466046D01*
X35321199Y42476332D01*
X35276085Y42451903D01*
X35257228Y42404192D01*
X35261049Y42378426D01*
X35304819Y42247116D01*
X35304819Y42038896D01*
X35270561Y41970381D01*
X35240153Y41939974D01*
X35171637Y41905715D01*
X35111809Y41905715D01*
X35043293Y41939974D01*
X35012886Y41970380D01*
X34974392Y42047368D01*
X34928770Y42229857D01*
X34926781Y42232802D01*
X34923091Y42245208D01*
X34875472Y42340446D01*
X34874282Y42341572D01*
X34861423Y42359938D01*
X34813804Y42407557D01*
X34812322Y42408248D01*
X34794312Y42421606D01*
X34699074Y42469225D01*
X34694620Y42469738D01*
X34691185Y42472620D01*
X34665533Y42477143D01*
X34570295Y42477143D01*
X34566081Y42475610D01*
X34561720Y42476651D01*
X34536754Y42469225D01*
X34441516Y42421606D01*
X34440390Y42420417D01*
X34422024Y42407557D01*
X34374405Y42359938D01*
X34373714Y42358457D01*
X34360356Y42340446D01*
X34312737Y42245208D01*
X34312224Y42240755D01*
X34309342Y42237319D01*
X34304819Y42211667D01*
X34304819Y41973572D01*
X34161962Y41973572D01*
X34161962Y43357758D01*
X34304889Y43357758D01*
X34320340Y43308837D01*
X34339553Y43291249D01*
X34763930Y43021191D01*
X34339553Y42751133D01*
X34308302Y42710447D01*
X34310513Y42659192D01*
X34345154Y42621350D01*
X34396015Y42614627D01*
X34420085Y42624583D01*
X34925469Y42946191D01*
X35379819Y42946191D01*
X35428028Y42963738D01*
X35453680Y43008167D01*
X35444771Y43058691D01*
X35405471Y43091668D01*
X35379819Y43096191D01*
X34925469Y43096191D01*
X34420085Y43417799D01*
X34369992Y43428877D01*
X34324498Y43405166D01*
X34304889Y43357758D01*
X34161962Y43357758D01*
X34161962Y43783096D01*
X34304819Y43783096D01*
X34305379Y43781558D01*
X34308668Y43759379D01*
X34356287Y43616522D01*
X34388178Y43576336D01*
X34438439Y43566050D01*
X34483553Y43590479D01*
X34502410Y43638191D01*
X34498589Y43663957D01*
X34454819Y43795267D01*
X34454819Y44003487D01*
X34489076Y44072002D01*
X34519484Y44102410D01*
X34588000Y44136667D01*
X34647828Y44136667D01*
X34716344Y44102409D01*
X34746751Y44072002D01*
X34785244Y43995015D01*
X34830867Y43812525D01*
X34832855Y43809581D01*
X34836546Y43797174D01*
X34884165Y43701936D01*
X34885354Y43700811D01*
X34898214Y43682444D01*
X34945833Y43634825D01*
X34947314Y43634134D01*
X34965325Y43620776D01*
X35060563Y43573157D01*
X35065016Y43572645D01*
X35068452Y43569762D01*
X35094104Y43565239D01*
X35189342Y43565239D01*
X35193555Y43566773D01*
X35197916Y43565731D01*
X35222883Y43573157D01*
X35318121Y43620776D01*
X35319246Y43621965D01*
X35337612Y43634824D01*
X35385232Y43682443D01*
X35385922Y43683925D01*
X35399282Y43701936D01*
X35446901Y43797174D01*
X35447413Y43801628D01*
X35450296Y43805063D01*
X35454819Y43830715D01*
X35454819Y44068810D01*
X35454259Y44070348D01*
X35450970Y44092528D01*
X35403351Y44235384D01*
X35371460Y44275570D01*
X35321199Y44285856D01*
X35276085Y44261427D01*
X35257228Y44213716D01*
X35261049Y44187950D01*
X35304819Y44056641D01*
X35304819Y43848420D01*
X35270561Y43779905D01*
X35240153Y43749498D01*
X35171637Y43715239D01*
X35111809Y43715239D01*
X35043293Y43749497D01*
X35012886Y43779904D01*
X34974392Y43856891D01*
X34928770Y44039381D01*
X34926781Y44042326D01*
X34923091Y44054732D01*
X34875472Y44149970D01*
X34874282Y44151096D01*
X34861423Y44169462D01*
X34813804Y44217081D01*
X34812322Y44217772D01*
X34794312Y44231130D01*
X34699074Y44278749D01*
X34694620Y44279262D01*
X34691185Y44282144D01*
X34665533Y44286667D01*
X34570295Y44286667D01*
X34566081Y44285134D01*
X34561720Y44286175D01*
X34536754Y44278749D01*
X34441516Y44231130D01*
X34440390Y44229941D01*
X34422024Y44217081D01*
X34374405Y44169462D01*
X34373714Y44167981D01*
X34360356Y44149970D01*
X34312737Y44054732D01*
X34312224Y44050279D01*
X34309342Y44046843D01*
X34304819Y44021191D01*
X34304819Y43783096D01*
X34161962Y43783096D01*
X34161962Y44429524D01*
X35597676Y44429524D01*
X35597676Y40661616D01*
G37*
X8358094Y80190181D02*
X8358094Y81190181D01*
X8358094Y81190181D02*
X8119999Y81190181D01*
X8119999Y81190181D02*
X7977142Y81142562D01*
X7977142Y81142562D02*
X7881904Y81047324D01*
X7881904Y81047324D02*
X7834285Y80952086D01*
X7834285Y80952086D02*
X7786666Y80761610D01*
X7786666Y80761610D02*
X7786666Y80618753D01*
X7786666Y80618753D02*
X7834285Y80428277D01*
X7834285Y80428277D02*
X7881904Y80333039D01*
X7881904Y80333039D02*
X7977142Y80237800D01*
X7977142Y80237800D02*
X8119999Y80190181D01*
X8119999Y80190181D02*
X8358094Y80190181D01*
X6834285Y80190181D02*
X7405713Y80190181D01*
X7119999Y80190181D02*
X7119999Y81190181D01*
X7119999Y81190181D02*
X7215237Y81047324D01*
X7215237Y81047324D02*
X7310475Y80952086D01*
X7310475Y80952086D02*
X7405713Y80904467D01*
D12*
%TO.C,JP1*%
X36530000Y45590000D02*
X37130000Y45590000D01*
X37830000Y46290000D02*
X37830000Y47690000D01*
X35830000Y47690000D02*
X35830000Y46290000D01*
X37130000Y48390000D02*
X36530000Y48390000D01*
X35830000Y46290000D02*
G75*
G03*
X36530000Y45590000I699999J-1D01*
G01*
X37130000Y45590000D02*
G75*
G03*
X37830000Y46290000I1J699999D01*
G01*
X36530000Y48390000D02*
G75*
G03*
X35830000Y47690000I0J-700000D01*
G01*
X37830000Y47690000D02*
G75*
G03*
X37130000Y48390000I-700000J0D01*
G01*
%TO.C,JP4*%
X36530000Y32255000D02*
X37130000Y32255000D01*
X37830000Y32955000D02*
X37830000Y34355000D01*
X35830000Y34355000D02*
X35830000Y32955000D01*
X37130000Y35055000D02*
X36530000Y35055000D01*
X35830000Y32955000D02*
G75*
G03*
X36530000Y32255000I699999J-1D01*
G01*
X37130000Y32255000D02*
G75*
G03*
X37830000Y32955000I1J699999D01*
G01*
X36530000Y35055000D02*
G75*
G03*
X35830000Y34355000I0J-700000D01*
G01*
X37830000Y34355000D02*
G75*
G03*
X37130000Y35055000I-700000J0D01*
G01*
%TO.C,JP3*%
X36530000Y37335000D02*
X37130000Y37335000D01*
X37830000Y38035000D02*
X37830000Y39435000D01*
X35830000Y39435000D02*
X35830000Y38035000D01*
X37130000Y40135000D02*
X36530000Y40135000D01*
X35830000Y38035000D02*
G75*
G03*
X36530000Y37335000I699999J-1D01*
G01*
X37130000Y37335000D02*
G75*
G03*
X37830000Y38035000I1J699999D01*
G01*
X36530000Y40135000D02*
G75*
G03*
X35830000Y39435000I0J-700000D01*
G01*
X37830000Y39435000D02*
G75*
G03*
X37130000Y40135000I-700000J0D01*
G01*
%TO.C,D2*%
X49340000Y79030000D02*
X49496000Y79030000D01*
X47024000Y79030000D02*
X47180000Y79030000D01*
X49338608Y75797666D02*
G75*
G03*
X49495515Y79029999I-1078608J1672334D01*
G01*
X49339836Y76428871D02*
G75*
G03*
X49339999Y78510960I-1079836J1041129D01*
G01*
X47180001Y78510960D02*
G75*
G03*
X47180164Y76428871I1079999J-1040960D01*
G01*
X47024485Y79029999D02*
G75*
G03*
X47181392Y75797666I1235515J-1559999D01*
G01*
%TO.C,JP2*%
X36530000Y41145000D02*
X37130000Y41145000D01*
X37830000Y41845000D02*
X37830000Y43245000D01*
X35830000Y43245000D02*
X35830000Y41845000D01*
X37130000Y43945000D02*
X36530000Y43945000D01*
X35830000Y41845000D02*
G75*
G03*
X36530000Y41145000I699999J-1D01*
G01*
X37130000Y41145000D02*
G75*
G03*
X37830000Y41845000I1J699999D01*
G01*
X36530000Y43945000D02*
G75*
G03*
X35830000Y43245000I0J-700000D01*
G01*
X37830000Y43245000D02*
G75*
G03*
X37130000Y43945000I-700000J0D01*
G01*
%TO.C,D1*%
X8700000Y79030000D02*
X8856000Y79030000D01*
X6384000Y79030000D02*
X6540000Y79030000D01*
X8698608Y75797666D02*
G75*
G03*
X8855515Y79029999I-1078608J1672334D01*
G01*
X8699836Y76428871D02*
G75*
G03*
X8699999Y78510960I-1079836J1041129D01*
G01*
X6540001Y78510960D02*
G75*
G03*
X6540164Y76428871I1079999J-1040960D01*
G01*
X6384485Y79029999D02*
G75*
G03*
X6541392Y75797666I1235515J-1559999D01*
G01*
%TD*%
M02*
