%TF.GenerationSoftware,KiCad,Pcbnew,7.0.6*%
%TF.CreationDate,2024-08-31T12:14:03+02:00*%
%TF.ProjectId,Analog-Video-Comb-Filter,416e616c-6f67-42d5-9669-64656f2d436f,rev?*%
%TF.SameCoordinates,PX71d9820PY9157080*%
%TF.FileFunction,Soldermask,Bot*%
%TF.FilePolarity,Negative*%
%FSLAX46Y46*%
G04 Gerber Fmt 4.6, Leading zero omitted, Abs format (unit mm)*
G04 Created by KiCad (PCBNEW 7.0.6) date 2024-08-31 12:14:03*
%MOMM*%
%LPD*%
G01*
G04 APERTURE LIST*
G04 Aperture macros list*
%AMRoundRect*
0 Rectangle with rounded corners*
0 $1 Rounding radius*
0 $2 $3 $4 $5 $6 $7 $8 $9 X,Y pos of 4 corners*
0 Add a 4 corners polygon primitive as box body*
4,1,4,$2,$3,$4,$5,$6,$7,$8,$9,$2,$3,0*
0 Add four circle primitives for the rounded corners*
1,1,$1+$1,$2,$3*
1,1,$1+$1,$4,$5*
1,1,$1+$1,$6,$7*
1,1,$1+$1,$8,$9*
0 Add four rect primitives between the rounded corners*
20,1,$1+$1,$2,$3,$4,$5,0*
20,1,$1+$1,$4,$5,$6,$7,0*
20,1,$1+$1,$6,$7,$8,$9,0*
20,1,$1+$1,$8,$9,$2,$3,0*%
%AMFreePoly0*
4,1,19,0.500000,-0.750000,0.000000,-0.750000,0.000000,-0.744911,-0.071157,-0.744911,-0.207708,-0.704816,-0.327430,-0.627875,-0.420627,-0.520320,-0.479746,-0.390866,-0.500000,-0.250000,-0.500000,0.250000,-0.479746,0.390866,-0.420627,0.520320,-0.327430,0.627875,-0.207708,0.704816,-0.071157,0.744911,0.000000,0.744911,0.000000,0.750000,0.500000,0.750000,0.500000,-0.750000,0.500000,-0.750000,
$1*%
%AMFreePoly1*
4,1,19,0.000000,0.744911,0.071157,0.744911,0.207708,0.704816,0.327430,0.627875,0.420627,0.520320,0.479746,0.390866,0.500000,0.250000,0.500000,-0.250000,0.479746,-0.390866,0.420627,-0.520320,0.327430,-0.627875,0.207708,-0.704816,0.071157,-0.744911,0.000000,-0.744911,0.000000,-0.750000,-0.500000,-0.750000,-0.500000,0.750000,0.000000,0.750000,0.000000,0.744911,0.000000,0.744911,
$1*%
G04 Aperture macros list end*
%ADD10C,1.600000*%
%ADD11O,1.600000X1.600000*%
%ADD12R,1.600000X1.600000*%
%ADD13R,3.500000X3.500000*%
%ADD14RoundRect,0.750000X-0.750000X-1.000000X0.750000X-1.000000X0.750000X1.000000X-0.750000X1.000000X0*%
%ADD15RoundRect,0.875000X-0.875000X-0.875000X0.875000X-0.875000X0.875000X0.875000X-0.875000X0.875000X0*%
%ADD16C,2.500000*%
%ADD17R,1.500000X1.500000*%
%ADD18C,1.500000*%
%ADD19O,3.500000X3.500000*%
%ADD20R,2.000000X1.905000*%
%ADD21O,2.000000X1.905000*%
%ADD22C,2.000000*%
%ADD23C,4.000000*%
%ADD24C,3.200000*%
%ADD25FreePoly0,180.000000*%
%ADD26FreePoly1,180.000000*%
%ADD27R,1.800000X1.800000*%
%ADD28C,1.800000*%
G04 APERTURE END LIST*
D10*
%TO.C,R3*%
X25400000Y2540000D03*
D11*
X25400000Y10160000D03*
%TD*%
D10*
%TO.C,C10*%
X15240000Y27820000D03*
X15240000Y20320000D03*
%TD*%
D12*
%TO.C,U4*%
X36830000Y85090000D03*
D11*
X36830000Y82550000D03*
X36830000Y80010000D03*
X36830000Y77470000D03*
X36830000Y74930000D03*
X36830000Y72390000D03*
X36830000Y69850000D03*
X44450000Y69850000D03*
X44450000Y72390000D03*
X44450000Y74930000D03*
X44450000Y77470000D03*
X44450000Y80010000D03*
X44450000Y82550000D03*
X44450000Y85090000D03*
%TD*%
D10*
%TO.C,R24*%
X15240000Y7620000D03*
D11*
X22860000Y7620000D03*
%TD*%
D10*
%TO.C,L1*%
X10160000Y39370000D03*
D11*
X10160000Y31750000D03*
%TD*%
D10*
%TO.C,R21*%
X19050000Y20320000D03*
D11*
X19050000Y27940000D03*
%TD*%
D10*
%TO.C,R6*%
X26670000Y20320000D03*
D11*
X26670000Y27940000D03*
%TD*%
D10*
%TO.C,C11*%
X31750000Y90170000D03*
X31750000Y87670000D03*
%TD*%
%TO.C,R1*%
X3810000Y76200000D03*
D11*
X3810000Y83820000D03*
%TD*%
D10*
%TO.C,R5*%
X39370000Y2540000D03*
D11*
X39370000Y10160000D03*
%TD*%
D10*
%TO.C,R19*%
X24130000Y38100000D03*
D11*
X24130000Y30480000D03*
%TD*%
D12*
%TO.C,U2*%
X29210000Y63500000D03*
D11*
X29210000Y60960000D03*
X29210000Y58420000D03*
X29210000Y55880000D03*
X29210000Y53340000D03*
X29210000Y50800000D03*
X29210000Y48260000D03*
X29210000Y45720000D03*
X29210000Y43180000D03*
X29210000Y40640000D03*
X29210000Y38100000D03*
X29210000Y35560000D03*
X29210000Y33020000D03*
X29210000Y30480000D03*
X44450000Y30480000D03*
X44450000Y33020000D03*
X44450000Y35560000D03*
X44450000Y38100000D03*
X44450000Y40640000D03*
X44450000Y43180000D03*
X44450000Y45720000D03*
X44450000Y48260000D03*
X44450000Y50800000D03*
X44450000Y53340000D03*
X44450000Y55880000D03*
X44450000Y58420000D03*
X44450000Y60960000D03*
X44450000Y63500000D03*
%TD*%
D10*
%TO.C,C8*%
X22860000Y93980000D03*
X22860000Y96480000D03*
%TD*%
%TO.C,C29*%
X31750000Y82550000D03*
X31750000Y85050000D03*
%TD*%
D12*
%TO.C,C3*%
X17780000Y101600000D03*
D10*
X17780000Y99100000D03*
%TD*%
%TO.C,C19*%
X19050000Y69850000D03*
X19050000Y72350000D03*
%TD*%
%TO.C,R4*%
X41910000Y20320000D03*
D11*
X41910000Y27940000D03*
%TD*%
D10*
%TO.C,R20*%
X15240000Y30480000D03*
D11*
X15240000Y38100000D03*
%TD*%
D10*
%TO.C,L6*%
X49530000Y60960000D03*
D11*
X49530000Y63500000D03*
%TD*%
D13*
%TO.C,J1*%
X11430000Y91440000D03*
D14*
X5430000Y91440000D03*
D15*
X8430000Y86740000D03*
%TD*%
D16*
%TO.C,C24*%
X15240000Y81280000D03*
X15240000Y86360000D03*
%TD*%
D10*
%TO.C,C21*%
X19050000Y80010000D03*
X19050000Y82510000D03*
%TD*%
%TO.C,C17*%
X29210000Y66040000D03*
X24210000Y66040000D03*
%TD*%
D17*
%TO.C,Q3*%
X45720000Y12700000D03*
D18*
X45720000Y15240000D03*
X45720000Y17780000D03*
%TD*%
D10*
%TO.C,R8*%
X49530000Y20320000D03*
D11*
X49530000Y27940000D03*
%TD*%
D10*
%TO.C,C26*%
X19050000Y85130000D03*
X19050000Y87630000D03*
%TD*%
D12*
%TO.C,C9*%
X39370000Y90170000D03*
D10*
X37370000Y90170000D03*
%TD*%
%TO.C,C4*%
X45720000Y27820000D03*
X45720000Y20320000D03*
%TD*%
D17*
%TO.C,Q2*%
X25400000Y17780000D03*
D18*
X25400000Y15240000D03*
X25400000Y12700000D03*
%TD*%
D10*
%TO.C,C33*%
X46990000Y60960000D03*
X46990000Y58460000D03*
%TD*%
D19*
%TO.C,U1*%
X42060000Y99060000D03*
D20*
X25400000Y101600000D03*
D21*
X25400000Y99060000D03*
X25400000Y96520000D03*
%TD*%
D10*
%TO.C,R9*%
X34290000Y20320000D03*
D11*
X34290000Y27940000D03*
%TD*%
D22*
%TO.C,J3*%
X4805000Y43485000D03*
X11305000Y47230000D03*
X4805000Y50975000D03*
D23*
X14605000Y47230000D03*
X4805000Y47230000D03*
X12805000Y41930000D03*
%TD*%
D17*
%TO.C,Q1*%
X40640000Y17780000D03*
D18*
X40640000Y15240000D03*
X40640000Y12700000D03*
%TD*%
D10*
%TO.C,R13*%
X44450000Y2540000D03*
D11*
X44450000Y10160000D03*
%TD*%
D10*
%TO.C,R27*%
X26670000Y63500000D03*
D11*
X19050000Y63500000D03*
%TD*%
D10*
%TO.C,C2*%
X19050000Y30480000D03*
X21550000Y30480000D03*
%TD*%
D18*
%TO.C,Y1*%
X15240000Y76000000D03*
X15240000Y71120000D03*
%TD*%
D10*
%TO.C,C20*%
X46990000Y48260000D03*
X46990000Y45760000D03*
%TD*%
D17*
%TO.C,Q5*%
X50800000Y17780000D03*
D18*
X50800000Y15240000D03*
X50800000Y12700000D03*
%TD*%
D17*
%TO.C,Q6*%
X35560000Y17780000D03*
D18*
X35560000Y15240000D03*
X35560000Y12700000D03*
%TD*%
D10*
%TO.C,L3*%
X24130000Y60960000D03*
D11*
X24130000Y53340000D03*
%TD*%
D10*
%TO.C,C25*%
X46990000Y40640000D03*
X46990000Y43140000D03*
%TD*%
D12*
%TO.C,U3*%
X24130000Y77470000D03*
D11*
X24130000Y74930000D03*
X24130000Y72390000D03*
X24130000Y69850000D03*
X31750000Y69850000D03*
X31750000Y72390000D03*
X31750000Y74930000D03*
X31750000Y77470000D03*
%TD*%
D10*
%TO.C,C22*%
X19050000Y77470000D03*
X19050000Y74970000D03*
%TD*%
%TO.C,R26*%
X26670000Y60960000D03*
D11*
X26670000Y53340000D03*
%TD*%
D17*
%TO.C,Q4*%
X30480000Y12700000D03*
D18*
X30480000Y15240000D03*
X30480000Y17780000D03*
%TD*%
D10*
%TO.C,R29*%
X34290000Y77470000D03*
D11*
X34290000Y69850000D03*
%TD*%
D10*
%TO.C,L4*%
X52070000Y60960000D03*
D11*
X52070000Y63500000D03*
%TD*%
D10*
%TO.C,C5*%
X30480000Y27820000D03*
X30480000Y20320000D03*
%TD*%
D17*
%TO.C,Q8*%
X15240000Y12700000D03*
D18*
X15240000Y15240000D03*
X15240000Y17780000D03*
%TD*%
D10*
%TO.C,R11*%
X29210000Y10160000D03*
D11*
X36830000Y10160000D03*
%TD*%
D10*
%TO.C,C28*%
X19050000Y53380000D03*
X19050000Y55880000D03*
%TD*%
%TO.C,R23*%
X21590000Y20320000D03*
D11*
X21590000Y27940000D03*
%TD*%
D12*
%TO.C,C1*%
X10160000Y29210000D03*
D10*
X10160000Y27210000D03*
%TD*%
D12*
%TO.C,C18*%
X50800000Y44450000D03*
D10*
X50800000Y42450000D03*
%TD*%
%TO.C,R15*%
X29210000Y7620000D03*
D11*
X36830000Y7620000D03*
%TD*%
D10*
%TO.C,R14*%
X36830000Y20320000D03*
D11*
X36830000Y27940000D03*
%TD*%
D10*
%TO.C,L2*%
X52070000Y90170000D03*
D11*
X44450000Y90170000D03*
%TD*%
D10*
%TO.C,R25*%
X24130000Y20320000D03*
D11*
X24130000Y27940000D03*
%TD*%
D10*
%TO.C,R22*%
X15240000Y10160000D03*
D11*
X22860000Y10160000D03*
%TD*%
D17*
%TO.C,Q7*%
X20320000Y33020000D03*
D18*
X20320000Y35560000D03*
X20320000Y38100000D03*
%TD*%
D22*
%TO.C,J2*%
X8890000Y14605000D03*
X8890000Y21005000D03*
X11430000Y14605000D03*
X11430000Y21005000D03*
D23*
X4590000Y17805000D03*
%TD*%
D10*
%TO.C,R18*%
X18415000Y48260000D03*
D11*
X18415000Y40640000D03*
%TD*%
D12*
%TO.C,U5*%
X21590000Y90170000D03*
D11*
X21590000Y87630000D03*
X21590000Y85090000D03*
X21590000Y82550000D03*
X29210000Y82550000D03*
X29210000Y85090000D03*
X29210000Y87630000D03*
X29210000Y90170000D03*
%TD*%
D10*
%TO.C,C12*%
X31750000Y80010000D03*
X34250000Y80010000D03*
%TD*%
%TO.C,R28*%
X21590000Y77470000D03*
D11*
X21590000Y69850000D03*
%TD*%
D10*
%TO.C,R31*%
X34290000Y90170000D03*
D11*
X34290000Y82550000D03*
%TD*%
D10*
%TO.C,R32*%
X52070000Y76200000D03*
D11*
X52070000Y83820000D03*
%TD*%
D12*
%TO.C,C31*%
X50800000Y57150000D03*
D10*
X50800000Y55150000D03*
%TD*%
D22*
%TO.C,J4*%
X4805000Y58485000D03*
X11305000Y62230000D03*
X4805000Y65975000D03*
D23*
X14605000Y62230000D03*
X4805000Y62230000D03*
X12805000Y56930000D03*
%TD*%
D10*
%TO.C,R10*%
X41910000Y10160000D03*
D11*
X41910000Y2540000D03*
%TD*%
D10*
%TO.C,C30*%
X46990000Y53340000D03*
X46990000Y55840000D03*
%TD*%
%TO.C,R16*%
X26670000Y30480000D03*
D11*
X26670000Y38100000D03*
%TD*%
D10*
%TO.C,C13*%
X41910000Y87630000D03*
X44410000Y87630000D03*
%TD*%
%TO.C,C6*%
X22860000Y101600000D03*
X22860000Y99100000D03*
%TD*%
%TO.C,R17*%
X39370000Y20320000D03*
D11*
X39370000Y27940000D03*
%TD*%
D12*
%TO.C,C32*%
X50800000Y50800000D03*
D10*
X50800000Y48800000D03*
%TD*%
D12*
%TO.C,C7*%
X18288000Y93472000D03*
D10*
X15788000Y93472000D03*
%TD*%
%TO.C,R7*%
X36830000Y5080000D03*
D11*
X29210000Y5080000D03*
%TD*%
D17*
%TO.C,Q9*%
X20320000Y17780000D03*
D18*
X20320000Y15240000D03*
X20320000Y12700000D03*
%TD*%
D10*
%TO.C,R30*%
X44450000Y66040000D03*
D11*
X52070000Y66040000D03*
%TD*%
D10*
%TO.C,R33*%
X11430000Y81280000D03*
D11*
X11430000Y73660000D03*
%TD*%
D24*
%TO.C,N1*%
X5440000Y35290000D03*
X5715000Y71340000D03*
X50165000Y71340000D03*
X50440000Y35290000D03*
%TD*%
D10*
%TO.C,L5*%
X21590000Y60960000D03*
D11*
X21590000Y53340000D03*
%TD*%
D17*
%TO.C,Q10*%
X48260000Y81280000D03*
D18*
X48260000Y83820000D03*
X48260000Y86360000D03*
%TD*%
D10*
%TO.C,C16*%
X26670000Y48300000D03*
X26670000Y50800000D03*
%TD*%
%TO.C,C27*%
X26670000Y45680000D03*
X26670000Y43180000D03*
%TD*%
D12*
%TO.C,C23*%
X22860000Y45085000D03*
D10*
X22860000Y43085000D03*
%TD*%
%TO.C,R2*%
X29210000Y2540000D03*
D11*
X36830000Y2540000D03*
%TD*%
D10*
%TO.C,R12*%
X52070000Y20320000D03*
D11*
X52070000Y27940000D03*
%TD*%
D12*
%TO.C,C14*%
X22860000Y50800000D03*
D10*
X22860000Y48800000D03*
%TD*%
%TO.C,C15*%
X19050000Y60960000D03*
X19050000Y58460000D03*
%TD*%
D25*
%TO.C,JP1*%
X40670000Y50800000D03*
D26*
X39370000Y50800000D03*
%TD*%
D25*
%TO.C,JP3*%
X40670000Y38100000D03*
D26*
X39370000Y38100000D03*
%TD*%
D27*
%TO.C,D2*%
X48260000Y78740000D03*
D28*
X48260000Y76200000D03*
%TD*%
D25*
%TO.C,JP2*%
X40670000Y43180000D03*
D26*
X39370000Y43180000D03*
%TD*%
D27*
%TO.C,D1*%
X7620000Y78740000D03*
D28*
X7620000Y76200000D03*
%TD*%
M02*
