%TF.GenerationSoftware,KiCad,Pcbnew,7.0.6*%
%TF.CreationDate,2026-02-14T19:56:36+01:00*%
%TF.ProjectId,Analog-Video-Comb-Filter,416e616c-6f67-42d5-9669-64656f2d436f,2*%
%TF.SameCoordinates,PX71d9820PY9157080*%
%TF.FileFunction,Copper,L1,Top*%
%TF.FilePolarity,Positive*%
%FSLAX46Y46*%
G04 Gerber Fmt 4.6, Leading zero omitted, Abs format (unit mm)*
G04 Created by KiCad (PCBNEW 7.0.6) date 2026-02-14 19:56:36*
%MOMM*%
%LPD*%
G01*
G04 APERTURE LIST*
G04 Aperture macros list*
%AMRoundRect*
0 Rectangle with rounded corners*
0 $1 Rounding radius*
0 $2 $3 $4 $5 $6 $7 $8 $9 X,Y pos of 4 corners*
0 Add a 4 corners polygon primitive as box body*
4,1,4,$2,$3,$4,$5,$6,$7,$8,$9,$2,$3,0*
0 Add four circle primitives for the rounded corners*
1,1,$1+$1,$2,$3*
1,1,$1+$1,$4,$5*
1,1,$1+$1,$6,$7*
1,1,$1+$1,$8,$9*
0 Add four rect primitives between the rounded corners*
20,1,$1+$1,$2,$3,$4,$5,0*
20,1,$1+$1,$4,$5,$6,$7,0*
20,1,$1+$1,$6,$7,$8,$9,0*
20,1,$1+$1,$8,$9,$2,$3,0*%
G04 Aperture macros list end*
%TA.AperFunction,ComponentPad*%
%ADD10O,1.600000X1.600000*%
%TD*%
%TA.AperFunction,ComponentPad*%
%ADD11C,1.600000*%
%TD*%
%TA.AperFunction,ComponentPad*%
%ADD12R,1.600000X1.600000*%
%TD*%
%TA.AperFunction,ComponentPad*%
%ADD13R,3.500000X3.500000*%
%TD*%
%TA.AperFunction,ComponentPad*%
%ADD14RoundRect,0.750000X-0.750000X-1.000000X0.750000X-1.000000X0.750000X1.000000X-0.750000X1.000000X0*%
%TD*%
%TA.AperFunction,ComponentPad*%
%ADD15RoundRect,0.875000X-0.875000X-0.875000X0.875000X-0.875000X0.875000X0.875000X-0.875000X0.875000X0*%
%TD*%
%TA.AperFunction,ComponentPad*%
%ADD16C,2.500000*%
%TD*%
%TA.AperFunction,ComponentPad*%
%ADD17O,2.000000X1.905000*%
%TD*%
%TA.AperFunction,ComponentPad*%
%ADD18R,2.000000X1.905000*%
%TD*%
%TA.AperFunction,ComponentPad*%
%ADD19C,4.000000*%
%TD*%
%TA.AperFunction,ComponentPad*%
%ADD20C,1.500000*%
%TD*%
%TA.AperFunction,ComponentPad*%
%ADD21C,2.000000*%
%TD*%
%TA.AperFunction,ComponentPad*%
%ADD22R,1.500000X1.500000*%
%TD*%
%TA.AperFunction,ComponentPad*%
%ADD23R,1.800000X1.800000*%
%TD*%
%TA.AperFunction,ComponentPad*%
%ADD24C,1.800000*%
%TD*%
%TA.AperFunction,ViaPad*%
%ADD25C,0.800000*%
%TD*%
%TA.AperFunction,Conductor*%
%ADD26C,0.406400*%
%TD*%
%TA.AperFunction,Conductor*%
%ADD27C,1.270000*%
%TD*%
%TA.AperFunction,Conductor*%
%ADD28C,0.812800*%
%TD*%
G04 APERTURE END LIST*
D10*
%TO.P,R4,2*%
%TO.N,Net-(R4-Pad2)*%
X34290000Y27940000D03*
D11*
%TO.P,R4,1*%
%TO.N,/CVL*%
X26670000Y27940000D03*
%TD*%
%TO.P,R12,1*%
%TO.N,/CVO*%
X41910000Y20320000D03*
D10*
%TO.P,R12,2*%
%TO.N,GND*%
X41910000Y27940000D03*
%TD*%
D11*
%TO.P,R10,1*%
%TO.N,/YO*%
X36830000Y17780000D03*
D10*
%TO.P,R10,2*%
%TO.N,GND*%
X36830000Y10160000D03*
%TD*%
%TO.P,R8,2*%
%TO.N,GND*%
X26670000Y38100000D03*
D11*
%TO.P,R8,1*%
%TO.N,/CO*%
X26670000Y30480000D03*
%TD*%
D10*
%TO.P,U2,14*%
%TO.N,Net-(R4-Pad2)*%
X34290000Y25400000D03*
%TO.P,U2,13,-*%
%TO.N,Net-(U2D--)*%
X34290000Y22860000D03*
%TO.P,U2,12,+*%
%TO.N,/CVO*%
X34290000Y20320000D03*
%TO.P,U2,11,V-*%
%TO.N,GND*%
X34290000Y17780000D03*
%TO.P,U2,10,+*%
%TO.N,/YO*%
X34290000Y15240000D03*
%TO.P,U2,9,-*%
%TO.N,Net-(U2C--)*%
X34290000Y12700000D03*
%TO.P,U2,8*%
%TO.N,Net-(R3-Pad2)*%
X34290000Y10160000D03*
%TO.P,U2,7*%
%TO.N,Net-(R2-Pad2)*%
X26670000Y10160000D03*
%TO.P,U2,6,-*%
%TO.N,Net-(U2B--)*%
X26670000Y12700000D03*
%TO.P,U2,5,+*%
%TO.N,/CO*%
X26670000Y15240000D03*
%TO.P,U2,4,V+*%
%TO.N,+12VA*%
X26670000Y17780000D03*
%TO.P,U2,3,+*%
X26670000Y20320000D03*
%TO.P,U2,2,-*%
%TO.N,Net-(JP1-A)*%
X26670000Y22860000D03*
D12*
%TO.P,U2,1*%
X26670000Y25400000D03*
%TD*%
D11*
%TO.P,R13,1*%
%TO.N,Net-(U2D--)*%
X39370000Y20320000D03*
D10*
%TO.P,R13,2*%
%TO.N,GND*%
X39370000Y27940000D03*
%TD*%
%TO.P,R11,2*%
%TO.N,GND*%
X41910000Y10160000D03*
D11*
%TO.P,R11,1*%
%TO.N,Net-(U2C--)*%
X41910000Y17780000D03*
%TD*%
D10*
%TO.P,R9,2*%
%TO.N,GND*%
X16510000Y17780000D03*
D11*
%TO.P,R9,1*%
%TO.N,Net-(U2B--)*%
X24130000Y17780000D03*
%TD*%
D10*
%TO.P,R7,2*%
%TO.N,Net-(U2D--)*%
X36830000Y20320000D03*
D11*
%TO.P,R7,1*%
%TO.N,Net-(R4-Pad2)*%
X36830000Y27940000D03*
%TD*%
%TO.P,R6,1*%
%TO.N,Net-(R3-Pad2)*%
X39370000Y10160000D03*
D10*
%TO.P,R6,2*%
%TO.N,Net-(U2C--)*%
X39370000Y17780000D03*
%TD*%
%TO.P,R5,2*%
%TO.N,Net-(U2B--)*%
X24130000Y15240000D03*
D11*
%TO.P,R5,1*%
%TO.N,Net-(R2-Pad2)*%
X16510000Y15240000D03*
%TD*%
D10*
%TO.P,R3,2*%
%TO.N,Net-(R3-Pad2)*%
X24130000Y10160000D03*
D11*
%TO.P,R3,1*%
%TO.N,/YL*%
X16510000Y10160000D03*
%TD*%
D10*
%TO.P,R2,2*%
%TO.N,Net-(R2-Pad2)*%
X24130000Y12700000D03*
D11*
%TO.P,R2,1*%
%TO.N,/CL*%
X16510000Y12700000D03*
%TD*%
D10*
%TO.P,U7,20,REFBP*%
%TO.N,/REFBP*%
X40640000Y60960000D03*
%TO.P,U7,19,i.c.*%
%TO.N,unconnected-(U7-i.c.-Pad19)*%
X40640000Y58420000D03*
%TO.P,U7,18,VCCPLL*%
%TO.N,+5VL*%
X40640000Y55880000D03*
%TO.P,U7,17,PLLGND*%
%TO.N,GND*%
X40640000Y53340000D03*
%TO.P,U7,16,DGND*%
X40640000Y50800000D03*
%TO.P,U7,15,VDDD*%
%TO.N,+5VD*%
X40640000Y48260000D03*
%TO.P,U7,14,YEXT*%
%TO.N,unconnected-(U7-YEXT-Pad14)*%
X40640000Y45720000D03*
%TO.P,U7,13,CVBS*%
%TO.N,/CV*%
X40640000Y43180000D03*
%TO.P,U7,12,CSY*%
%TO.N,/CSY*%
X40640000Y40640000D03*
%TO.P,U7,11,YO*%
%TO.N,/YO*%
X40640000Y38100000D03*
%TO.P,U7,10,REFDL*%
%TO.N,/REFDL_63*%
X33020000Y38100000D03*
%TO.P,U7,9,CO*%
%TO.N,/CO*%
X33020000Y40640000D03*
%TO.P,U7,8,OGND*%
%TO.N,GND*%
X33020000Y43180000D03*
%TO.P,U7,7,CEXT*%
%TO.N,unconnected-(U7-CEXT-Pad7)*%
X33020000Y45720000D03*
%TO.P,U7,6,VCCO*%
%TO.N,+5VP*%
X33020000Y48260000D03*
%TO.P,U7,5,AGND*%
%TO.N,GND*%
X33020000Y50800000D03*
%TO.P,U7,4,VCCA*%
%TO.N,+5VA*%
X33020000Y53340000D03*
%TO.P,U7,3,i.c.*%
%TO.N,unconnected-(U7-i.c.-Pad3)*%
X33020000Y55880000D03*
%TO.P,U7,2,SVHS*%
%TO.N,GND*%
X33020000Y58420000D03*
D12*
%TO.P,U7,1,FSC*%
%TO.N,/FSC*%
X33020000Y60960000D03*
%TD*%
D10*
%TO.P,U5,14,VCC*%
%TO.N,VCC*%
X44450000Y85090000D03*
%TO.P,U5,13*%
%TO.N,GND*%
X44450000Y82550000D03*
%TO.P,U5,12*%
%TO.N,unconnected-(U5-Pad12)*%
X44450000Y80010000D03*
%TO.P,U5,11*%
%TO.N,GND*%
X44450000Y77470000D03*
%TO.P,U5,10*%
%TO.N,unconnected-(U5-Pad10)*%
X44450000Y74930000D03*
%TO.P,U5,9*%
%TO.N,GND*%
X44450000Y72390000D03*
%TO.P,U5,8*%
%TO.N,unconnected-(U5-Pad8)*%
X44450000Y69850000D03*
%TO.P,U5,7,GND*%
%TO.N,GND*%
X36830000Y69850000D03*
%TO.P,U5,6*%
%TO.N,unconnected-(U5-Pad6)*%
X36830000Y72390000D03*
%TO.P,U5,5*%
%TO.N,GND*%
X36830000Y74930000D03*
%TO.P,U5,4*%
%TO.N,Net-(U4-BG)*%
X36830000Y77470000D03*
%TO.P,U5,3*%
%TO.N,Net-(U6-BURST)*%
X36830000Y80010000D03*
%TO.P,U5,2*%
%TO.N,unconnected-(U5-Pad2)*%
X36830000Y82550000D03*
D12*
%TO.P,U5,1*%
%TO.N,GND*%
X36830000Y85090000D03*
%TD*%
D11*
%TO.P,L1,1,1*%
%TO.N,+12V*%
X16510000Y27940000D03*
D10*
%TO.P,L1,2,2*%
%TO.N,+12VA*%
X16510000Y20320000D03*
%TD*%
D11*
%TO.P,C9,2*%
%TO.N,GND*%
X31750000Y87670000D03*
%TO.P,C9,1*%
%TO.N,VCC*%
X31750000Y90170000D03*
%TD*%
%TO.P,R1,1*%
%TO.N,Net-(D1-A)*%
X3810000Y76200000D03*
D10*
%TO.P,R1,2*%
%TO.N,+12V*%
X3810000Y83820000D03*
%TD*%
D11*
%TO.P,C31,2*%
%TO.N,GND*%
X33020000Y31790000D03*
%TO.P,C31,1*%
%TO.N,/REFDL_63*%
X33020000Y34290000D03*
%TD*%
D10*
%TO.P,U3,28,i.c.*%
%TO.N,unconnected-(U3-i.c.-Pad28)*%
X44450000Y63500000D03*
%TO.P,U3,27,VCCPLL*%
%TO.N,+5VL*%
X44450000Y60960000D03*
%TO.P,U3,26,PLLGND*%
%TO.N,GND*%
X44450000Y58420000D03*
%TO.P,U3,25,COMBENA*%
%TO.N,Net-(U3-COMBENA)*%
X44450000Y55880000D03*
%TO.P,U3,24,REFDL*%
%TO.N,/REFDL*%
X44450000Y53340000D03*
%TO.P,U3,23,SYS2*%
%TO.N,Net-(JP2-A)*%
X44450000Y50800000D03*
%TO.P,U3,22,VDDD*%
%TO.N,+5VD*%
X44450000Y48260000D03*
%TO.P,U3,21,DGND*%
%TO.N,GND*%
X44450000Y45720000D03*
%TO.P,U3,20,SYS1*%
%TO.N,Net-(JP3-A)*%
X44450000Y43180000D03*
%TO.P,U3,19,CSY*%
%TO.N,/CSY*%
X44450000Y40640000D03*
%TO.P,U3,18,LPFION*%
%TO.N,Net-(JP4-A)*%
X44450000Y38100000D03*
%TO.P,U3,17,YEXT/CVBS*%
%TO.N,/CV*%
X44450000Y35560000D03*
%TO.P,U3,16,i.c.*%
%TO.N,GND*%
X44450000Y33020000D03*
%TO.P,U3,15,CVBSO*%
%TO.N,/CVO*%
X44450000Y30480000D03*
%TO.P,U3,14,YO*%
%TO.N,/YO*%
X29210000Y30480000D03*
%TO.P,U3,13,FSCSW*%
%TO.N,GND*%
X29210000Y33020000D03*
%TO.P,U3,12,CO*%
%TO.N,/CO*%
X29210000Y35560000D03*
%TO.P,U3,11,OGND*%
%TO.N,GND*%
X29210000Y38100000D03*
%TO.P,U3,10,CEXT*%
%TO.N,unconnected-(U3-CEXT-Pad10)*%
X29210000Y40640000D03*
%TO.P,U3,9,AGND*%
%TO.N,GND*%
X29210000Y43180000D03*
%TO.P,U3,8,VCCO*%
%TO.N,+5VP*%
X29210000Y45720000D03*
%TO.P,U3,7,VCCA*%
%TO.N,+5VA*%
X29210000Y48260000D03*
%TO.P,U3,6,SSYN*%
%TO.N,GND*%
X29210000Y50800000D03*
%TO.P,U3,5,REFBP*%
%TO.N,/REFBP*%
X29210000Y53340000D03*
%TO.P,U3,4,i.c.*%
%TO.N,GND*%
X29210000Y55880000D03*
%TO.P,U3,3,BYP*%
X29210000Y58420000D03*
%TO.P,U3,2,i.c.*%
%TO.N,unconnected-(U3-i.c.-Pad2)*%
X29210000Y60960000D03*
D12*
%TO.P,U3,1,FSC*%
%TO.N,/FSC*%
X29210000Y63500000D03*
%TD*%
D11*
%TO.P,C6,2*%
%TO.N,GND*%
X22860000Y96480000D03*
%TO.P,C6,1*%
%TO.N,+5V*%
X22860000Y93980000D03*
%TD*%
%TO.P,C20,2*%
%TO.N,GND*%
X31750000Y85050000D03*
%TO.P,C20,1*%
%TO.N,Net-(U6-INT)*%
X31750000Y82550000D03*
%TD*%
%TO.P,C3,2*%
%TO.N,GND*%
X17780000Y99100000D03*
D12*
%TO.P,C3,1*%
%TO.N,+12V*%
X17780000Y101600000D03*
%TD*%
D11*
%TO.P,C12,2*%
%TO.N,GND*%
X19050000Y72350000D03*
%TO.P,C12,1*%
%TO.N,Net-(U4-PD)*%
X19050000Y69850000D03*
%TD*%
%TO.P,L6,1,1*%
%TO.N,+5VL*%
X49530000Y60960000D03*
D10*
%TO.P,L6,2,2*%
%TO.N,+5V*%
X49530000Y63500000D03*
%TD*%
D13*
%TO.P,J1,1*%
%TO.N,+12V*%
X11430000Y91440000D03*
D14*
%TO.P,J1,2*%
%TO.N,GND*%
X5430000Y91440000D03*
D15*
%TO.P,J1,3*%
%TO.N,unconnected-(J1-Pad3)*%
X8430000Y86740000D03*
%TD*%
D16*
%TO.P,C17,2*%
%TO.N,GND*%
X15240000Y86360000D03*
%TO.P,C17,1*%
%TO.N,Net-(C17-Pad1)*%
X15240000Y81280000D03*
%TD*%
D11*
%TO.P,C14,2*%
%TO.N,/CV-IN*%
X19050000Y82510000D03*
%TO.P,C14,1*%
%TO.N,Net-(U4-CVBS)*%
X19050000Y80010000D03*
%TD*%
%TO.P,C10,2*%
%TO.N,Net-(U4-FSC)*%
X24210000Y66040000D03*
%TO.P,C10,1*%
%TO.N,/FSC*%
X29210000Y66040000D03*
%TD*%
%TO.P,C19,2*%
%TO.N,Net-(U6-VIDEO)*%
X19050000Y87630000D03*
%TO.P,C19,1*%
%TO.N,/CV-IN*%
X19050000Y85130000D03*
%TD*%
%TO.P,C32,2*%
%TO.N,GND*%
X38100000Y31750000D03*
D12*
%TO.P,C32,1*%
%TO.N,/REFDL_63*%
X38100000Y33750000D03*
%TD*%
D11*
%TO.P,C7,2*%
%TO.N,GND*%
X37370000Y90170000D03*
D12*
%TO.P,C7,1*%
%TO.N,VCC*%
X39370000Y90170000D03*
%TD*%
D11*
%TO.P,C30,2*%
%TO.N,GND*%
X46990000Y58460000D03*
%TO.P,C30,1*%
%TO.N,+5VL*%
X46990000Y60960000D03*
%TD*%
D17*
%TO.P,U1,3,OUT*%
%TO.N,+5V*%
X25400000Y96520000D03*
%TO.P,U1,2,GND*%
%TO.N,GND*%
X25400000Y99060000D03*
D18*
%TO.P,U1,1,IN*%
%TO.N,+12V*%
X25400000Y101600000D03*
%TD*%
D19*
%TO.P,J3,3,Sw*%
%TO.N,unconnected-(J3-Sw-Pad3)*%
X12805000Y41930000D03*
%TO.P,J3,2,Ext*%
%TO.N,GND*%
X4805000Y47230000D03*
%TO.P,J3,1,In*%
%TO.N,/CVL*%
X14605000Y47230000D03*
%TD*%
D10*
%TO.P,R15,2*%
%TO.N,Net-(U4-FSC)*%
X19050000Y63500000D03*
D11*
%TO.P,R15,1*%
%TO.N,GND*%
X26670000Y63500000D03*
%TD*%
%TO.P,C2,1*%
%TO.N,+12VA*%
X24130000Y20320000D03*
%TO.P,C2,2*%
%TO.N,GND*%
X24130000Y22820000D03*
%TD*%
D20*
%TO.P,Y1,2,2*%
%TO.N,Net-(U4-XTAL)*%
X15240000Y71120000D03*
%TO.P,Y1,1,1*%
%TO.N,Net-(C17-Pad1)*%
X15240000Y76000000D03*
%TD*%
D11*
%TO.P,C25,2*%
%TO.N,GND*%
X46990000Y45760000D03*
%TO.P,C25,1*%
%TO.N,+5VD*%
X46990000Y48260000D03*
%TD*%
%TO.P,L3,1,1*%
%TO.N,+5V*%
X24130000Y60960000D03*
D10*
%TO.P,L3,2,2*%
%TO.N,+5VA*%
X24130000Y53340000D03*
%TD*%
D11*
%TO.P,C21,2*%
%TO.N,GND*%
X46990000Y43140000D03*
%TO.P,C21,1*%
%TO.N,/CSY*%
X46990000Y40640000D03*
%TD*%
D10*
%TO.P,U4,8,VCC*%
%TO.N,VCC*%
X31750000Y77470000D03*
%TO.P,U4,7,BG*%
%TO.N,Net-(U4-BG)*%
X31750000Y74930000D03*
%TO.P,U4,6,CVBS*%
%TO.N,Net-(U4-CVBS)*%
X31750000Y72390000D03*
%TO.P,U4,5,4FSC*%
%TO.N,Net-(U4-4FSC)*%
X31750000Y69850000D03*
%TO.P,U4,4,XTAL*%
%TO.N,Net-(U4-XTAL)*%
X24130000Y69850000D03*
%TO.P,U4,3,PD*%
%TO.N,Net-(U4-PD)*%
X24130000Y72390000D03*
%TO.P,U4,2,GND*%
%TO.N,GND*%
X24130000Y74930000D03*
D12*
%TO.P,U4,1,FSC*%
%TO.N,Net-(U4-FSC)*%
X24130000Y77470000D03*
%TD*%
D11*
%TO.P,C15,2*%
%TO.N,GND*%
X19050000Y74970000D03*
%TO.P,C15,1*%
%TO.N,Net-(C15-Pad1)*%
X19050000Y77470000D03*
%TD*%
%TO.P,R14,1*%
%TO.N,Net-(C8-Pad1)*%
X26670000Y60960000D03*
D10*
%TO.P,R14,2*%
%TO.N,/REFBP*%
X26670000Y53340000D03*
%TD*%
%TO.P,R17,2*%
%TO.N,Net-(U4-4FSC)*%
X34290000Y69850000D03*
D11*
%TO.P,R17,1*%
%TO.N,GND*%
X34290000Y77470000D03*
%TD*%
%TO.P,L4,1,1*%
%TO.N,+5VD*%
X52070000Y60960000D03*
D10*
%TO.P,L4,2,2*%
%TO.N,+5V*%
X52070000Y63500000D03*
%TD*%
D11*
%TO.P,C23,2*%
%TO.N,/CV-IN*%
X19050000Y55880000D03*
%TO.P,C23,1*%
%TO.N,/CV*%
X19050000Y53380000D03*
%TD*%
D12*
%TO.P,C1,1*%
%TO.N,+12VA*%
X20320000Y20860000D03*
D11*
%TO.P,C1,2*%
%TO.N,GND*%
X20320000Y22860000D03*
%TD*%
D12*
%TO.P,C22,1*%
%TO.N,+5VD*%
X50800000Y44450000D03*
D11*
%TO.P,C22,2*%
%TO.N,GND*%
X50800000Y42450000D03*
%TD*%
%TO.P,L2,1,1*%
%TO.N,+5V*%
X52070000Y90170000D03*
D10*
%TO.P,L2,2,2*%
%TO.N,VCC*%
X44450000Y90170000D03*
%TD*%
D19*
%TO.P,J2,5*%
%TO.N,GND*%
X4590000Y17805000D03*
D21*
%TO.P,J2,4*%
%TO.N,/CL*%
X11430000Y21005000D03*
%TO.P,J2,3*%
%TO.N,/YL*%
X11430000Y14605000D03*
%TO.P,J2,2*%
%TO.N,GND*%
X8890000Y21005000D03*
%TO.P,J2,1*%
X8890000Y14605000D03*
%TD*%
D10*
%TO.P,U6,8,VCC*%
%TO.N,VCC*%
X29210000Y90170000D03*
%TO.P,U6,7,O/E*%
%TO.N,unconnected-(U6-O{slash}E-Pad7)*%
X29210000Y87630000D03*
%TO.P,U6,6,INT*%
%TO.N,Net-(U6-INT)*%
X29210000Y85090000D03*
%TO.P,U6,5,BURST*%
%TO.N,Net-(U6-BURST)*%
X29210000Y82550000D03*
%TO.P,U6,4,GND*%
%TO.N,GND*%
X21590000Y82550000D03*
%TO.P,U6,3,FRAME*%
%TO.N,unconnected-(U6-FRAME-Pad3)*%
X21590000Y85090000D03*
%TO.P,U6,2,VIDEO*%
%TO.N,Net-(U6-VIDEO)*%
X21590000Y87630000D03*
D12*
%TO.P,U6,1,CSYNC*%
%TO.N,unconnected-(U6-CSYNC-Pad1)*%
X21590000Y90170000D03*
%TD*%
D11*
%TO.P,C11,2*%
%TO.N,GND*%
X34250000Y80010000D03*
%TO.P,C11,1*%
%TO.N,VCC*%
X31750000Y80010000D03*
%TD*%
D10*
%TO.P,R16,2*%
%TO.N,Net-(U4-PD)*%
X21590000Y69850000D03*
D11*
%TO.P,R16,1*%
%TO.N,Net-(C15-Pad1)*%
X21590000Y77470000D03*
%TD*%
D10*
%TO.P,R19,2*%
%TO.N,Net-(U6-INT)*%
X34290000Y82550000D03*
D11*
%TO.P,R19,1*%
%TO.N,GND*%
X34290000Y90170000D03*
%TD*%
D10*
%TO.P,R20,2*%
%TO.N,+5V*%
X52070000Y83820000D03*
D11*
%TO.P,R20,1*%
%TO.N,Net-(D2-A)*%
X52070000Y76200000D03*
%TD*%
%TO.P,C29,2*%
%TO.N,GND*%
X50800000Y55150000D03*
D12*
%TO.P,C29,1*%
%TO.N,+5VL*%
X50800000Y57150000D03*
%TD*%
D19*
%TO.P,J4,3,Sw*%
%TO.N,unconnected-(J4-Sw-Pad3)*%
X12805000Y56930000D03*
%TO.P,J4,2,Ext*%
%TO.N,GND*%
X4805000Y62230000D03*
%TO.P,J4,1,In*%
%TO.N,/CV-IN*%
X14605000Y62230000D03*
%TD*%
D11*
%TO.P,C24,2*%
%TO.N,GND*%
X46990000Y55840000D03*
%TO.P,C24,1*%
%TO.N,/REFDL*%
X46990000Y53340000D03*
%TD*%
%TO.P,C13,2*%
%TO.N,GND*%
X44410000Y87630000D03*
%TO.P,C13,1*%
%TO.N,VCC*%
X41910000Y87630000D03*
%TD*%
%TO.P,C4,2*%
%TO.N,GND*%
X22860000Y99100000D03*
%TO.P,C4,1*%
%TO.N,+12V*%
X22860000Y101600000D03*
%TD*%
%TO.P,C26,2*%
%TO.N,GND*%
X50800000Y48800000D03*
D12*
%TO.P,C26,1*%
%TO.N,/REFDL*%
X50800000Y50800000D03*
%TD*%
D11*
%TO.P,C5,2*%
%TO.N,GND*%
X15788000Y93472000D03*
D12*
%TO.P,C5,1*%
%TO.N,+5V*%
X18288000Y93472000D03*
%TD*%
D10*
%TO.P,R18,2*%
%TO.N,Net-(Q1-B)*%
X49530000Y66040000D03*
D11*
%TO.P,R18,1*%
%TO.N,Net-(U3-COMBENA)*%
X41910000Y66040000D03*
%TD*%
D10*
%TO.P,R21,2*%
%TO.N,/CV-IN*%
X11430000Y73660000D03*
D11*
%TO.P,R21,1*%
%TO.N,GND*%
X11430000Y81280000D03*
%TD*%
%TO.P,L5,1,1*%
%TO.N,+5V*%
X21590000Y60960000D03*
D10*
%TO.P,L5,2,2*%
%TO.N,+5VP*%
X21590000Y53340000D03*
%TD*%
D20*
%TO.P,Q1,3,E*%
%TO.N,GND*%
X48260000Y86360000D03*
%TO.P,Q1,2,B*%
%TO.N,Net-(Q1-B)*%
X48260000Y83820000D03*
D22*
%TO.P,Q1,1,C*%
%TO.N,Net-(D2-K)*%
X48260000Y81280000D03*
%TD*%
D11*
%TO.P,C18,2*%
%TO.N,GND*%
X26670000Y50800000D03*
%TO.P,C18,1*%
%TO.N,+5VA*%
X26670000Y48300000D03*
%TD*%
%TO.P,C28,2*%
%TO.N,GND*%
X26670000Y43180000D03*
%TO.P,C28,1*%
%TO.N,+5VP*%
X26670000Y45680000D03*
%TD*%
%TO.P,C27,2*%
%TO.N,GND*%
X22860000Y43085000D03*
D12*
%TO.P,C27,1*%
%TO.N,+5VP*%
X22860000Y45085000D03*
%TD*%
D11*
%TO.P,C16,2*%
%TO.N,GND*%
X22860000Y48800000D03*
D12*
%TO.P,C16,1*%
%TO.N,+5VA*%
X22860000Y50800000D03*
%TD*%
D11*
%TO.P,C8,2*%
%TO.N,GND*%
X19050000Y58460000D03*
%TO.P,C8,1*%
%TO.N,Net-(C8-Pad1)*%
X19050000Y60960000D03*
%TD*%
D23*
%TO.P,D2,1,K*%
%TO.N,Net-(D2-K)*%
X48260000Y78740000D03*
D24*
%TO.P,D2,2,A*%
%TO.N,Net-(D2-A)*%
X48260000Y76200000D03*
%TD*%
D23*
%TO.P,D1,1,K*%
%TO.N,GND*%
X7620000Y78740000D03*
D24*
%TO.P,D1,2,A*%
%TO.N,Net-(D1-A)*%
X7620000Y76200000D03*
%TD*%
D25*
%TO.N,Net-(JP1-A)*%
X29845000Y24130000D03*
%TO.N,+12VA*%
X29845000Y20320000D03*
%TO.N,+5VD*%
X38100000Y48260000D03*
%TO.N,/CV*%
X41910000Y34925000D03*
%TO.N,Net-(JP2-A)*%
X38100000Y52070000D03*
%TO.N,Net-(JP3-A)*%
X38100000Y46990000D03*
%TO.N,Net-(JP4-A)*%
X38100000Y38100000D03*
%TO.N,/CVO*%
X41910000Y31115000D03*
%TO.N,Net-(U4-XTAL)*%
X17780000Y67945000D03*
%TD*%
D26*
%TO.N,Net-(R3-Pad2)*%
X37465000Y12065000D02*
X39370000Y10160000D01*
X36195000Y12065000D02*
X37465000Y12065000D01*
X34290000Y10160000D02*
X36195000Y12065000D01*
X26035000Y8255000D02*
X32385000Y8255000D01*
X32385000Y8255000D02*
X34290000Y10160000D01*
X24130000Y10160000D02*
X26035000Y8255000D01*
%TO.N,Net-(U4-CVBS)*%
X29210000Y74930000D02*
X31750000Y72390000D01*
X29210000Y76200000D02*
X29210000Y74930000D01*
X25400000Y80010000D02*
X29210000Y76200000D01*
X19050000Y80010000D02*
X25400000Y80010000D01*
%TO.N,Net-(C8-Pad1)*%
X20955000Y59055000D02*
X19050000Y60960000D01*
X24765000Y59055000D02*
X20955000Y59055000D01*
X26670000Y60960000D02*
X24765000Y59055000D01*
%TO.N,/CVL*%
X26670000Y27940000D02*
X24130000Y30480000D01*
X24130000Y30480000D02*
X24130000Y36830000D01*
X24130000Y36830000D02*
X17780000Y43180000D01*
X17780000Y43180000D02*
X17780000Y44055000D01*
X17780000Y44055000D02*
X14605000Y47230000D01*
%TO.N,/CV-IN*%
X16510000Y60325000D02*
X14605000Y62230000D01*
X16510000Y58420000D02*
X16510000Y60325000D01*
X19050000Y55880000D02*
X16510000Y58420000D01*
%TO.N,Net-(R2-Pad2)*%
X24130000Y12700000D02*
X21590000Y15240000D01*
X21590000Y15240000D02*
X16510000Y15240000D01*
%TO.N,/YO*%
X34290000Y15240000D02*
X36830000Y17780000D01*
%TO.N,Net-(U2C--)*%
X34290000Y12700000D02*
X39370000Y17780000D01*
%TO.N,/YL*%
X13970000Y11430000D02*
X15240000Y10160000D01*
X13970000Y12065000D02*
X13970000Y11430000D01*
X15240000Y10160000D02*
X16510000Y10160000D01*
X11430000Y14605000D02*
X13970000Y12065000D01*
%TO.N,/CL*%
X13970000Y15240000D02*
X13970000Y18465000D01*
X16510000Y12700000D02*
X13970000Y15240000D01*
X13970000Y18465000D02*
X11430000Y21005000D01*
%TO.N,/CVO*%
X44450000Y22860000D02*
X44450000Y30480000D01*
X41910000Y20320000D02*
X44450000Y22860000D01*
X40640000Y19050000D02*
X41910000Y20320000D01*
%TO.N,/YO*%
X32385000Y27305000D02*
X29210000Y30480000D01*
X32385000Y17145000D02*
X32385000Y27305000D01*
X34290000Y15240000D02*
X32385000Y17145000D01*
X31496000Y29972000D02*
X39116000Y29972000D01*
D27*
%TO.N,+12V*%
X8890000Y40640000D02*
X16510000Y33020000D01*
X16510000Y33020000D02*
X16510000Y27940000D01*
X8890000Y67945000D02*
X8890000Y40640000D01*
X10160000Y70485000D02*
X8890000Y67945000D01*
X9525000Y73660000D02*
X10160000Y71755000D01*
X9525000Y83820000D02*
X9525000Y73660000D01*
X10160000Y71755000D02*
X10160000Y70485000D01*
D26*
%TO.N,/CO*%
X26670000Y33020000D02*
X29210000Y35560000D01*
X26670000Y30480000D02*
X26670000Y33020000D01*
X31115000Y26035000D02*
X26670000Y30480000D01*
X31115000Y26035000D02*
X31115000Y17145000D01*
%TO.N,/CVO*%
X34290000Y20320000D02*
X35560000Y19050000D01*
X35560000Y19050000D02*
X40640000Y19050000D01*
%TO.N,Net-(R4-Pad2)*%
X36830000Y27940000D02*
X34290000Y27940000D01*
%TO.N,Net-(U2D--)*%
X36830000Y20320000D02*
X39370000Y20320000D01*
X34290000Y22860000D02*
X36830000Y20320000D01*
%TO.N,Net-(U2C--)*%
X39370000Y17780000D02*
X41910000Y17780000D01*
%TO.N,Net-(JP1-A)*%
X28575000Y25400000D02*
X26670000Y25400000D01*
X29845000Y24130000D02*
X28575000Y25400000D01*
%TO.N,+12VA*%
X29845000Y20320000D02*
X26670000Y20320000D01*
%TO.N,/CO*%
X29210000Y15240000D02*
X31115000Y17145000D01*
X26670000Y15240000D02*
X29210000Y15240000D01*
%TO.N,Net-(U2B--)*%
X24130000Y15240000D02*
X24130000Y17780000D01*
X26670000Y12700000D02*
X24130000Y15240000D01*
%TO.N,/YO*%
X40132000Y36068000D02*
X40640000Y36576000D01*
X40132000Y30988000D02*
X40132000Y36068000D01*
X40640000Y36576000D02*
X40640000Y38100000D01*
X39116000Y29972000D02*
X40132000Y30988000D01*
X30988000Y30480000D02*
X31496000Y29972000D01*
X29210000Y30480000D02*
X30988000Y30480000D01*
%TO.N,/CV*%
X41910000Y41910000D02*
X48260000Y41910000D01*
X48895000Y40005000D02*
X44450000Y35560000D01*
X48895000Y41275000D02*
X48895000Y40005000D01*
X48895000Y41275000D02*
X48260000Y41910000D01*
X41910000Y41910000D02*
X40640000Y43180000D01*
X42545000Y35560000D02*
X41910000Y34925000D01*
X44450000Y35560000D02*
X42545000Y35560000D01*
%TO.N,/CVO*%
X44450000Y30480000D02*
X42545000Y30480000D01*
X42545000Y30480000D02*
X41910000Y31115000D01*
%TO.N,Net-(R4-Pad2)*%
X34290000Y27940000D02*
X34290000Y25400000D01*
D27*
%TO.N,+12VA*%
X17050000Y20860000D02*
X16510000Y20320000D01*
X20320000Y20860000D02*
X17050000Y20860000D01*
X20320000Y20860000D02*
X23590000Y20860000D01*
X23590000Y20860000D02*
X24130000Y20320000D01*
X24130000Y20320000D02*
X26670000Y20320000D01*
D26*
%TO.N,Net-(R2-Pad2)*%
X26670000Y10160000D02*
X24130000Y12700000D01*
D27*
%TO.N,+12VA*%
X26670000Y17780000D02*
X26670000Y20320000D01*
D26*
%TO.N,Net-(JP1-A)*%
X26670000Y25400000D02*
X26670000Y22860000D01*
D27*
%TO.N,+12V*%
X22860000Y101600000D02*
X25400000Y101600000D01*
X11430000Y85090000D02*
X10160000Y83820000D01*
X13970000Y96520000D02*
X11430000Y93980000D01*
X11430000Y93980000D02*
X11430000Y91440000D01*
X15240000Y101600000D02*
X13970000Y100330000D01*
X10160000Y83820000D02*
X9525000Y83820000D01*
X9525000Y83820000D02*
X3810000Y83820000D01*
X13970000Y100330000D02*
X13970000Y96520000D01*
X17780000Y101600000D02*
X22860000Y101600000D01*
X11430000Y91440000D02*
X11430000Y85090000D01*
X17780000Y101600000D02*
X15240000Y101600000D01*
%TO.N,+5V*%
X52070000Y91440000D02*
X50800000Y92710000D01*
X24130000Y63500000D02*
X24130000Y60960000D01*
X22860000Y93980000D02*
X25400000Y96520000D01*
X52070000Y83820000D02*
X52070000Y90170000D01*
X21590000Y60960000D02*
X24130000Y60960000D01*
X49530000Y63500000D02*
X52070000Y63500000D01*
X19050000Y93980000D02*
X18288000Y93472000D01*
X50800000Y92710000D02*
X24130000Y92710000D01*
X45085000Y67945000D02*
X28575000Y67945000D01*
X28575000Y67945000D02*
X24130000Y63500000D01*
X49530000Y63500000D02*
X45085000Y67945000D01*
X22860000Y93980000D02*
X19050000Y93980000D01*
X24130000Y92710000D02*
X22860000Y93980000D01*
X52070000Y90170000D02*
X52070000Y91440000D01*
D28*
%TO.N,VCC*%
X27940000Y90170000D02*
X29210000Y90170000D01*
X31750000Y80010000D02*
X27940000Y80010000D01*
X39370000Y87630000D02*
X34290000Y87630000D01*
X31750000Y90170000D02*
X29210000Y90170000D01*
X44450000Y90170000D02*
X39370000Y90170000D01*
X34290000Y87630000D02*
X31750000Y90170000D01*
X44450000Y85090000D02*
X41910000Y87630000D01*
X26670000Y88900000D02*
X27940000Y90170000D01*
X41910000Y87630000D02*
X39370000Y87630000D01*
X26670000Y81280000D02*
X26670000Y88900000D01*
X27940000Y80010000D02*
X26670000Y81280000D01*
X31750000Y77470000D02*
X31750000Y80010000D01*
X39370000Y90170000D02*
X39370000Y87630000D01*
%TO.N,+5VA*%
X26670000Y48300000D02*
X25360000Y48300000D01*
X31115000Y50165000D02*
X31115000Y51435000D01*
X28575000Y48260000D02*
X26710000Y48260000D01*
X24130000Y52070000D02*
X22860000Y50800000D01*
X26710000Y48260000D02*
X26670000Y48300000D01*
X29210000Y48260000D02*
X31115000Y50165000D01*
X24130000Y53340000D02*
X24130000Y52070000D01*
X29210000Y48260000D02*
X28575000Y48260000D01*
X25360000Y48300000D02*
X22860000Y50800000D01*
X31115000Y51435000D02*
X33020000Y53340000D01*
D26*
%TO.N,/FSC*%
X29210000Y66040000D02*
X29210000Y63500000D01*
X29210000Y63500000D02*
X30480000Y63500000D01*
X30480000Y63500000D02*
X33020000Y60960000D01*
%TO.N,Net-(U4-FSC)*%
X24210000Y66040000D02*
X21670000Y63500000D01*
X24130000Y77470000D02*
X26670000Y74930000D01*
X26670000Y68500000D02*
X24210000Y66040000D01*
X26670000Y74930000D02*
X26670000Y68500000D01*
X21670000Y63500000D02*
X19050000Y63500000D01*
D28*
%TO.N,+5VD*%
X52705000Y60325000D02*
X52705000Y46355000D01*
X52705000Y46355000D02*
X50800000Y44450000D01*
X44450000Y48260000D02*
X40640000Y48260000D01*
X46990000Y48260000D02*
X44450000Y48260000D01*
X52070000Y60960000D02*
X52705000Y60325000D01*
D26*
X38100000Y48260000D02*
X40640000Y48260000D01*
D28*
X50800000Y44450000D02*
X46990000Y48260000D01*
D26*
%TO.N,Net-(U4-PD)*%
X19050000Y69850000D02*
X21590000Y69850000D01*
X21590000Y69850000D02*
X24130000Y72390000D01*
%TO.N,/CV-IN*%
X14605000Y62230000D02*
X14605000Y65405000D01*
X11430000Y78740000D02*
X12700000Y80010000D01*
X12700000Y82550000D02*
X13970000Y83820000D01*
X13970000Y83820000D02*
X19050000Y83820000D01*
X11430000Y73660000D02*
X11430000Y78740000D01*
X14605000Y65405000D02*
X11430000Y68580000D01*
X19050000Y83820000D02*
X19050000Y82510000D01*
X11430000Y68580000D02*
X11430000Y73660000D01*
X19050000Y85130000D02*
X19050000Y83820000D01*
X12700000Y80010000D02*
X12700000Y82550000D01*
%TO.N,Net-(C15-Pad1)*%
X21590000Y77470000D02*
X19050000Y77470000D01*
D28*
%TO.N,+5VP*%
X20955000Y46990000D02*
X20955000Y52070000D01*
X22860000Y45085000D02*
X20955000Y46990000D01*
X29210000Y45720000D02*
X30480000Y45720000D01*
X23455000Y45680000D02*
X22860000Y45085000D01*
X30480000Y45720000D02*
X33020000Y48260000D01*
X26710000Y45720000D02*
X26670000Y45680000D01*
X26670000Y45680000D02*
X23455000Y45680000D01*
X20955000Y52070000D02*
X21590000Y53340000D01*
X29210000Y45720000D02*
X26710000Y45720000D01*
D26*
%TO.N,Net-(U6-VIDEO)*%
X19050000Y87630000D02*
X21590000Y87630000D01*
%TO.N,/CSY*%
X46990000Y40640000D02*
X44450000Y40640000D01*
X44450000Y40640000D02*
X40640000Y40640000D01*
%TO.N,Net-(U6-INT)*%
X31750000Y82550000D02*
X29210000Y85090000D01*
X34290000Y82550000D02*
X31750000Y82550000D01*
%TO.N,/CV*%
X22225000Y41275000D02*
X19685000Y43815000D01*
X27305000Y41275000D02*
X22225000Y41275000D01*
X19685000Y52070000D02*
X19050000Y53380000D01*
X34290000Y41910000D02*
X27940000Y41910000D01*
X27940000Y41910000D02*
X27305000Y41275000D01*
X35560000Y43180000D02*
X34290000Y41910000D01*
X19685000Y43815000D02*
X19685000Y52070000D01*
X40640000Y43180000D02*
X35560000Y43180000D01*
D28*
%TO.N,+5VL*%
X48895000Y57785000D02*
X48895000Y59055000D01*
X50800000Y59690000D02*
X49530000Y60960000D01*
X49530000Y57150000D02*
X48895000Y57785000D01*
X42545000Y57785000D02*
X42545000Y59055000D01*
X46990000Y60960000D02*
X44450000Y60960000D01*
X42545000Y59055000D02*
X44450000Y60960000D01*
X50800000Y57150000D02*
X50800000Y59690000D01*
X40640000Y55880000D02*
X42545000Y57785000D01*
X50800000Y57150000D02*
X49530000Y57150000D01*
X48895000Y59055000D02*
X46990000Y60960000D01*
D26*
%TO.N,Net-(D1-A)*%
X7620000Y76200000D02*
X3810000Y76200000D01*
%TO.N,Net-(D2-K)*%
X48260000Y81280000D02*
X48260000Y78740000D01*
%TO.N,Net-(D2-A)*%
X48260000Y76200000D02*
X52070000Y76200000D01*
%TO.N,Net-(JP2-A)*%
X43180000Y52070000D02*
X44450000Y50800000D01*
X38100000Y52070000D02*
X43180000Y52070000D01*
%TO.N,Net-(JP3-A)*%
X42545000Y45085000D02*
X42545000Y46355000D01*
X44450000Y43180000D02*
X42545000Y45085000D01*
X41910000Y46990000D02*
X38100000Y46990000D01*
X42545000Y46355000D02*
X41910000Y46990000D01*
%TO.N,Net-(JP4-A)*%
X38100000Y38100000D02*
X39370000Y39370000D01*
X43180000Y39370000D02*
X44450000Y38100000D01*
X39370000Y39370000D02*
X43180000Y39370000D01*
%TO.N,Net-(Q1-B)*%
X46355000Y81915000D02*
X48260000Y83820000D01*
X49530000Y66040000D02*
X46355000Y69215000D01*
X46355000Y69215000D02*
X46355000Y81915000D01*
%TO.N,/CO*%
X31115000Y40005000D02*
X31750000Y40640000D01*
X31115000Y37465000D02*
X31115000Y40005000D01*
X29210000Y35560000D02*
X31115000Y37465000D01*
X31750000Y40640000D02*
X33020000Y40640000D01*
%TO.N,/REFBP*%
X36195000Y59690000D02*
X37465000Y60960000D01*
X29210000Y53340000D02*
X31115000Y55245000D01*
X31750000Y59690000D02*
X36195000Y59690000D01*
X26670000Y53340000D02*
X29210000Y53340000D01*
X31115000Y55245000D02*
X31115000Y59055000D01*
X31115000Y59055000D02*
X31750000Y59690000D01*
X37465000Y60960000D02*
X40640000Y60960000D01*
%TO.N,Net-(U4-4FSC)*%
X34290000Y69850000D02*
X31750000Y69850000D01*
%TO.N,Net-(U3-COMBENA)*%
X38735000Y59055000D02*
X39370000Y59690000D01*
X39370000Y59690000D02*
X41275000Y59690000D01*
X44450000Y55880000D02*
X43180000Y54610000D01*
X41910000Y60325000D02*
X41910000Y66040000D01*
X43180000Y54610000D02*
X39370000Y54610000D01*
X41275000Y59690000D02*
X41910000Y60325000D01*
X38735000Y55245000D02*
X38735000Y59055000D01*
X39370000Y54610000D02*
X38735000Y55245000D01*
%TO.N,Net-(U4-XTAL)*%
X24130000Y69850000D02*
X22225000Y67945000D01*
X22225000Y67945000D02*
X17780000Y67945000D01*
%TO.N,Net-(U4-BG)*%
X36830000Y77470000D02*
X34290000Y74930000D01*
X34290000Y74930000D02*
X31750000Y74930000D01*
%TO.N,Net-(U6-BURST)*%
X30480000Y81280000D02*
X35560000Y81280000D01*
X35560000Y81280000D02*
X36830000Y80010000D01*
X29210000Y82550000D02*
X30480000Y81280000D01*
D28*
%TO.N,/REFDL*%
X46990000Y53340000D02*
X48260000Y53340000D01*
X48260000Y53340000D02*
X50800000Y50800000D01*
X44450000Y53340000D02*
X46990000Y53340000D01*
D26*
%TO.N,/REFDL_63*%
X33020000Y34290000D02*
X33020000Y38100000D01*
X33020000Y34290000D02*
X37560000Y34290000D01*
X37560000Y34290000D02*
X38100000Y33750000D01*
%TD*%
M02*
