%TF.GenerationSoftware,KiCad,Pcbnew,7.0.6*%
%TF.CreationDate,2024-08-31T12:14:03+02:00*%
%TF.ProjectId,Analog-Video-Comb-Filter,416e616c-6f67-42d5-9669-64656f2d436f,rev?*%
%TF.SameCoordinates,PX71d9820PY9157080*%
%TF.FileFunction,Legend,Bot*%
%TF.FilePolarity,Positive*%
%FSLAX46Y46*%
G04 Gerber Fmt 4.6, Leading zero omitted, Abs format (unit mm)*
G04 Created by KiCad (PCBNEW 7.0.6) date 2024-08-31 12:14:03*
%MOMM*%
%LPD*%
G01*
G04 APERTURE LIST*
%ADD10C,0.200000*%
%ADD11C,0.150000*%
%ADD12C,0.120000*%
G04 APERTURE END LIST*
D10*
X32785850Y59617140D02*
X32845373Y59402854D01*
X32845373Y59402854D02*
X32845373Y59045712D01*
X32845373Y59045712D02*
X32785850Y58902854D01*
X32785850Y58902854D02*
X32726326Y58831426D01*
X32726326Y58831426D02*
X32607278Y58759997D01*
X32607278Y58759997D02*
X32488230Y58759997D01*
X32488230Y58759997D02*
X32369183Y58831426D01*
X32369183Y58831426D02*
X32309659Y58902854D01*
X32309659Y58902854D02*
X32250135Y59045712D01*
X32250135Y59045712D02*
X32190611Y59331426D01*
X32190611Y59331426D02*
X32131088Y59474283D01*
X32131088Y59474283D02*
X32071564Y59545712D01*
X32071564Y59545712D02*
X31952516Y59617140D01*
X31952516Y59617140D02*
X31833469Y59617140D01*
X31833469Y59617140D02*
X31714421Y59545712D01*
X31714421Y59545712D02*
X31654897Y59474283D01*
X31654897Y59474283D02*
X31595373Y59331426D01*
X31595373Y59331426D02*
X31595373Y58974283D01*
X31595373Y58974283D02*
X31654897Y58759997D01*
X32488230Y58188569D02*
X32488230Y57474283D01*
X32845373Y58331426D02*
X31595373Y57831426D01*
X31595373Y57831426D02*
X32845373Y57331426D01*
X32488230Y56902855D02*
X32488230Y56188569D01*
X32845373Y57045712D02*
X31595373Y56545712D01*
X31595373Y56545712D02*
X32845373Y56045712D01*
X32012040Y54902855D02*
X32845373Y54902855D01*
X31535850Y55259998D02*
X32428707Y55617141D01*
X32428707Y55617141D02*
X32428707Y54688570D01*
X32845373Y54045713D02*
X32845373Y53759999D01*
X32845373Y53759999D02*
X32785850Y53617142D01*
X32785850Y53617142D02*
X32726326Y53545713D01*
X32726326Y53545713D02*
X32547754Y53402856D01*
X32547754Y53402856D02*
X32309659Y53331427D01*
X32309659Y53331427D02*
X31833469Y53331427D01*
X31833469Y53331427D02*
X31714421Y53402856D01*
X31714421Y53402856D02*
X31654897Y53474284D01*
X31654897Y53474284D02*
X31595373Y53617142D01*
X31595373Y53617142D02*
X31595373Y53902856D01*
X31595373Y53902856D02*
X31654897Y54045713D01*
X31654897Y54045713D02*
X31714421Y54117142D01*
X31714421Y54117142D02*
X31833469Y54188570D01*
X31833469Y54188570D02*
X32131088Y54188570D01*
X32131088Y54188570D02*
X32250135Y54117142D01*
X32250135Y54117142D02*
X32309659Y54045713D01*
X32309659Y54045713D02*
X32369183Y53902856D01*
X32369183Y53902856D02*
X32369183Y53617142D01*
X32369183Y53617142D02*
X32309659Y53474284D01*
X32309659Y53474284D02*
X32250135Y53402856D01*
X32250135Y53402856D02*
X32131088Y53331427D01*
X31595373Y52045713D02*
X31595373Y52331428D01*
X31595373Y52331428D02*
X31654897Y52474285D01*
X31654897Y52474285D02*
X31714421Y52545713D01*
X31714421Y52545713D02*
X31892992Y52688571D01*
X31892992Y52688571D02*
X32131088Y52759999D01*
X32131088Y52759999D02*
X32607278Y52759999D01*
X32607278Y52759999D02*
X32726326Y52688571D01*
X32726326Y52688571D02*
X32785850Y52617142D01*
X32785850Y52617142D02*
X32845373Y52474285D01*
X32845373Y52474285D02*
X32845373Y52188571D01*
X32845373Y52188571D02*
X32785850Y52045713D01*
X32785850Y52045713D02*
X32726326Y51974285D01*
X32726326Y51974285D02*
X32607278Y51902856D01*
X32607278Y51902856D02*
X32309659Y51902856D01*
X32309659Y51902856D02*
X32190611Y51974285D01*
X32190611Y51974285D02*
X32131088Y52045713D01*
X32131088Y52045713D02*
X32071564Y52188571D01*
X32071564Y52188571D02*
X32071564Y52474285D01*
X32071564Y52474285D02*
X32131088Y52617142D01*
X32131088Y52617142D02*
X32190611Y52688571D01*
X32190611Y52688571D02*
X32309659Y52759999D01*
X31595373Y50974285D02*
X31595373Y50831428D01*
X31595373Y50831428D02*
X31654897Y50688571D01*
X31654897Y50688571D02*
X31714421Y50617142D01*
X31714421Y50617142D02*
X31833469Y50545714D01*
X31833469Y50545714D02*
X32071564Y50474285D01*
X32071564Y50474285D02*
X32369183Y50474285D01*
X32369183Y50474285D02*
X32607278Y50545714D01*
X32607278Y50545714D02*
X32726326Y50617142D01*
X32726326Y50617142D02*
X32785850Y50688571D01*
X32785850Y50688571D02*
X32845373Y50831428D01*
X32845373Y50831428D02*
X32845373Y50974285D01*
X32845373Y50974285D02*
X32785850Y51117142D01*
X32785850Y51117142D02*
X32726326Y51188571D01*
X32726326Y51188571D02*
X32607278Y51260000D01*
X32607278Y51260000D02*
X32369183Y51331428D01*
X32369183Y51331428D02*
X32071564Y51331428D01*
X32071564Y51331428D02*
X31833469Y51260000D01*
X31833469Y51260000D02*
X31714421Y51188571D01*
X31714421Y51188571D02*
X31654897Y51117142D01*
X31654897Y51117142D02*
X31595373Y50974285D01*
X31535850Y47617143D02*
X33142992Y48902857D01*
X32785850Y46045714D02*
X32845373Y45831428D01*
X32845373Y45831428D02*
X32845373Y45474286D01*
X32845373Y45474286D02*
X32785850Y45331428D01*
X32785850Y45331428D02*
X32726326Y45260000D01*
X32726326Y45260000D02*
X32607278Y45188571D01*
X32607278Y45188571D02*
X32488230Y45188571D01*
X32488230Y45188571D02*
X32369183Y45260000D01*
X32369183Y45260000D02*
X32309659Y45331428D01*
X32309659Y45331428D02*
X32250135Y45474286D01*
X32250135Y45474286D02*
X32190611Y45760000D01*
X32190611Y45760000D02*
X32131088Y45902857D01*
X32131088Y45902857D02*
X32071564Y45974286D01*
X32071564Y45974286D02*
X31952516Y46045714D01*
X31952516Y46045714D02*
X31833469Y46045714D01*
X31833469Y46045714D02*
X31714421Y45974286D01*
X31714421Y45974286D02*
X31654897Y45902857D01*
X31654897Y45902857D02*
X31595373Y45760000D01*
X31595373Y45760000D02*
X31595373Y45402857D01*
X31595373Y45402857D02*
X31654897Y45188571D01*
X32488230Y44617143D02*
X32488230Y43902857D01*
X32845373Y44760000D02*
X31595373Y44260000D01*
X31595373Y44260000D02*
X32845373Y43760000D01*
X32488230Y43331429D02*
X32488230Y42617143D01*
X32845373Y43474286D02*
X31595373Y42974286D01*
X31595373Y42974286D02*
X32845373Y42474286D01*
X32012040Y41331429D02*
X32845373Y41331429D01*
X31535850Y41688572D02*
X32428707Y42045715D01*
X32428707Y42045715D02*
X32428707Y41117144D01*
X32845373Y40474287D02*
X32845373Y40188573D01*
X32845373Y40188573D02*
X32785850Y40045716D01*
X32785850Y40045716D02*
X32726326Y39974287D01*
X32726326Y39974287D02*
X32547754Y39831430D01*
X32547754Y39831430D02*
X32309659Y39760001D01*
X32309659Y39760001D02*
X31833469Y39760001D01*
X31833469Y39760001D02*
X31714421Y39831430D01*
X31714421Y39831430D02*
X31654897Y39902858D01*
X31654897Y39902858D02*
X31595373Y40045716D01*
X31595373Y40045716D02*
X31595373Y40331430D01*
X31595373Y40331430D02*
X31654897Y40474287D01*
X31654897Y40474287D02*
X31714421Y40545716D01*
X31714421Y40545716D02*
X31833469Y40617144D01*
X31833469Y40617144D02*
X32131088Y40617144D01*
X32131088Y40617144D02*
X32250135Y40545716D01*
X32250135Y40545716D02*
X32309659Y40474287D01*
X32309659Y40474287D02*
X32369183Y40331430D01*
X32369183Y40331430D02*
X32369183Y40045716D01*
X32369183Y40045716D02*
X32309659Y39902858D01*
X32309659Y39902858D02*
X32250135Y39831430D01*
X32250135Y39831430D02*
X32131088Y39760001D01*
X31595373Y38474287D02*
X31595373Y38760002D01*
X31595373Y38760002D02*
X31654897Y38902859D01*
X31654897Y38902859D02*
X31714421Y38974287D01*
X31714421Y38974287D02*
X31892992Y39117145D01*
X31892992Y39117145D02*
X32131088Y39188573D01*
X32131088Y39188573D02*
X32607278Y39188573D01*
X32607278Y39188573D02*
X32726326Y39117145D01*
X32726326Y39117145D02*
X32785850Y39045716D01*
X32785850Y39045716D02*
X32845373Y38902859D01*
X32845373Y38902859D02*
X32845373Y38617145D01*
X32845373Y38617145D02*
X32785850Y38474287D01*
X32785850Y38474287D02*
X32726326Y38402859D01*
X32726326Y38402859D02*
X32607278Y38331430D01*
X32607278Y38331430D02*
X32309659Y38331430D01*
X32309659Y38331430D02*
X32190611Y38402859D01*
X32190611Y38402859D02*
X32131088Y38474287D01*
X32131088Y38474287D02*
X32071564Y38617145D01*
X32071564Y38617145D02*
X32071564Y38902859D01*
X32071564Y38902859D02*
X32131088Y39045716D01*
X32131088Y39045716D02*
X32190611Y39117145D01*
X32190611Y39117145D02*
X32309659Y39188573D01*
X32845373Y36902859D02*
X32845373Y37760002D01*
X32845373Y37331431D02*
X31595373Y37331431D01*
X31595373Y37331431D02*
X31773945Y37474288D01*
X31773945Y37474288D02*
X31892992Y37617145D01*
X31892992Y37617145D02*
X31952516Y37760002D01*
X34500730Y62474285D02*
X34500730Y61759999D01*
X34857873Y62617142D02*
X33607873Y62117142D01*
X33607873Y62117142D02*
X34857873Y61617142D01*
X34024540Y61117143D02*
X34857873Y61117143D01*
X34143588Y61117143D02*
X34084064Y61045714D01*
X34084064Y61045714D02*
X34024540Y60902857D01*
X34024540Y60902857D02*
X34024540Y60688571D01*
X34024540Y60688571D02*
X34084064Y60545714D01*
X34084064Y60545714D02*
X34203111Y60474285D01*
X34203111Y60474285D02*
X34857873Y60474285D01*
X34857873Y59117142D02*
X34203111Y59117142D01*
X34203111Y59117142D02*
X34084064Y59188571D01*
X34084064Y59188571D02*
X34024540Y59331428D01*
X34024540Y59331428D02*
X34024540Y59617142D01*
X34024540Y59617142D02*
X34084064Y59760000D01*
X34798350Y59117142D02*
X34857873Y59260000D01*
X34857873Y59260000D02*
X34857873Y59617142D01*
X34857873Y59617142D02*
X34798350Y59760000D01*
X34798350Y59760000D02*
X34679302Y59831428D01*
X34679302Y59831428D02*
X34560254Y59831428D01*
X34560254Y59831428D02*
X34441207Y59760000D01*
X34441207Y59760000D02*
X34381683Y59617142D01*
X34381683Y59617142D02*
X34381683Y59260000D01*
X34381683Y59260000D02*
X34322159Y59117142D01*
X34857873Y58188571D02*
X34798350Y58331428D01*
X34798350Y58331428D02*
X34679302Y58402857D01*
X34679302Y58402857D02*
X33607873Y58402857D01*
X34857873Y57402857D02*
X34798350Y57545714D01*
X34798350Y57545714D02*
X34738826Y57617143D01*
X34738826Y57617143D02*
X34619778Y57688571D01*
X34619778Y57688571D02*
X34262635Y57688571D01*
X34262635Y57688571D02*
X34143588Y57617143D01*
X34143588Y57617143D02*
X34084064Y57545714D01*
X34084064Y57545714D02*
X34024540Y57402857D01*
X34024540Y57402857D02*
X34024540Y57188571D01*
X34024540Y57188571D02*
X34084064Y57045714D01*
X34084064Y57045714D02*
X34143588Y56974285D01*
X34143588Y56974285D02*
X34262635Y56902857D01*
X34262635Y56902857D02*
X34619778Y56902857D01*
X34619778Y56902857D02*
X34738826Y56974285D01*
X34738826Y56974285D02*
X34798350Y57045714D01*
X34798350Y57045714D02*
X34857873Y57188571D01*
X34857873Y57188571D02*
X34857873Y57402857D01*
X34024540Y55617142D02*
X35036445Y55617142D01*
X35036445Y55617142D02*
X35155492Y55688571D01*
X35155492Y55688571D02*
X35215016Y55760000D01*
X35215016Y55760000D02*
X35274540Y55902857D01*
X35274540Y55902857D02*
X35274540Y56117142D01*
X35274540Y56117142D02*
X35215016Y56260000D01*
X34798350Y55617142D02*
X34857873Y55760000D01*
X34857873Y55760000D02*
X34857873Y56045714D01*
X34857873Y56045714D02*
X34798350Y56188571D01*
X34798350Y56188571D02*
X34738826Y56260000D01*
X34738826Y56260000D02*
X34619778Y56331428D01*
X34619778Y56331428D02*
X34262635Y56331428D01*
X34262635Y56331428D02*
X34143588Y56260000D01*
X34143588Y56260000D02*
X34084064Y56188571D01*
X34084064Y56188571D02*
X34024540Y56045714D01*
X34024540Y56045714D02*
X34024540Y55760000D01*
X34024540Y55760000D02*
X34084064Y55617142D01*
X33607873Y53974285D02*
X34857873Y53474285D01*
X34857873Y53474285D02*
X33607873Y52974285D01*
X34857873Y52474286D02*
X34024540Y52474286D01*
X33607873Y52474286D02*
X33667397Y52545714D01*
X33667397Y52545714D02*
X33726921Y52474286D01*
X33726921Y52474286D02*
X33667397Y52402857D01*
X33667397Y52402857D02*
X33607873Y52474286D01*
X33607873Y52474286D02*
X33726921Y52474286D01*
X34857873Y51117142D02*
X33607873Y51117142D01*
X34798350Y51117142D02*
X34857873Y51260000D01*
X34857873Y51260000D02*
X34857873Y51545714D01*
X34857873Y51545714D02*
X34798350Y51688571D01*
X34798350Y51688571D02*
X34738826Y51760000D01*
X34738826Y51760000D02*
X34619778Y51831428D01*
X34619778Y51831428D02*
X34262635Y51831428D01*
X34262635Y51831428D02*
X34143588Y51760000D01*
X34143588Y51760000D02*
X34084064Y51688571D01*
X34084064Y51688571D02*
X34024540Y51545714D01*
X34024540Y51545714D02*
X34024540Y51260000D01*
X34024540Y51260000D02*
X34084064Y51117142D01*
X34798350Y49831428D02*
X34857873Y49974285D01*
X34857873Y49974285D02*
X34857873Y50259999D01*
X34857873Y50259999D02*
X34798350Y50402857D01*
X34798350Y50402857D02*
X34679302Y50474285D01*
X34679302Y50474285D02*
X34203111Y50474285D01*
X34203111Y50474285D02*
X34084064Y50402857D01*
X34084064Y50402857D02*
X34024540Y50259999D01*
X34024540Y50259999D02*
X34024540Y49974285D01*
X34024540Y49974285D02*
X34084064Y49831428D01*
X34084064Y49831428D02*
X34203111Y49759999D01*
X34203111Y49759999D02*
X34322159Y49759999D01*
X34322159Y49759999D02*
X34441207Y50474285D01*
X34857873Y48902857D02*
X34798350Y49045714D01*
X34798350Y49045714D02*
X34738826Y49117143D01*
X34738826Y49117143D02*
X34619778Y49188571D01*
X34619778Y49188571D02*
X34262635Y49188571D01*
X34262635Y49188571D02*
X34143588Y49117143D01*
X34143588Y49117143D02*
X34084064Y49045714D01*
X34084064Y49045714D02*
X34024540Y48902857D01*
X34024540Y48902857D02*
X34024540Y48688571D01*
X34024540Y48688571D02*
X34084064Y48545714D01*
X34084064Y48545714D02*
X34143588Y48474285D01*
X34143588Y48474285D02*
X34262635Y48402857D01*
X34262635Y48402857D02*
X34619778Y48402857D01*
X34619778Y48402857D02*
X34738826Y48474285D01*
X34738826Y48474285D02*
X34798350Y48545714D01*
X34798350Y48545714D02*
X34857873Y48688571D01*
X34857873Y48688571D02*
X34857873Y48902857D01*
X34738826Y45760000D02*
X34798350Y45831428D01*
X34798350Y45831428D02*
X34857873Y46045714D01*
X34857873Y46045714D02*
X34857873Y46188571D01*
X34857873Y46188571D02*
X34798350Y46402857D01*
X34798350Y46402857D02*
X34679302Y46545714D01*
X34679302Y46545714D02*
X34560254Y46617143D01*
X34560254Y46617143D02*
X34322159Y46688571D01*
X34322159Y46688571D02*
X34143588Y46688571D01*
X34143588Y46688571D02*
X33905492Y46617143D01*
X33905492Y46617143D02*
X33786445Y46545714D01*
X33786445Y46545714D02*
X33667397Y46402857D01*
X33667397Y46402857D02*
X33607873Y46188571D01*
X33607873Y46188571D02*
X33607873Y46045714D01*
X33607873Y46045714D02*
X33667397Y45831428D01*
X33667397Y45831428D02*
X33726921Y45760000D01*
X34857873Y44902857D02*
X34798350Y45045714D01*
X34798350Y45045714D02*
X34738826Y45117143D01*
X34738826Y45117143D02*
X34619778Y45188571D01*
X34619778Y45188571D02*
X34262635Y45188571D01*
X34262635Y45188571D02*
X34143588Y45117143D01*
X34143588Y45117143D02*
X34084064Y45045714D01*
X34084064Y45045714D02*
X34024540Y44902857D01*
X34024540Y44902857D02*
X34024540Y44688571D01*
X34024540Y44688571D02*
X34084064Y44545714D01*
X34084064Y44545714D02*
X34143588Y44474285D01*
X34143588Y44474285D02*
X34262635Y44402857D01*
X34262635Y44402857D02*
X34619778Y44402857D01*
X34619778Y44402857D02*
X34738826Y44474285D01*
X34738826Y44474285D02*
X34798350Y44545714D01*
X34798350Y44545714D02*
X34857873Y44688571D01*
X34857873Y44688571D02*
X34857873Y44902857D01*
X34857873Y43760000D02*
X34024540Y43760000D01*
X34143588Y43760000D02*
X34084064Y43688571D01*
X34084064Y43688571D02*
X34024540Y43545714D01*
X34024540Y43545714D02*
X34024540Y43331428D01*
X34024540Y43331428D02*
X34084064Y43188571D01*
X34084064Y43188571D02*
X34203111Y43117142D01*
X34203111Y43117142D02*
X34857873Y43117142D01*
X34203111Y43117142D02*
X34084064Y43045714D01*
X34084064Y43045714D02*
X34024540Y42902857D01*
X34024540Y42902857D02*
X34024540Y42688571D01*
X34024540Y42688571D02*
X34084064Y42545714D01*
X34084064Y42545714D02*
X34203111Y42474285D01*
X34203111Y42474285D02*
X34857873Y42474285D01*
X34857873Y41760000D02*
X33607873Y41760000D01*
X34084064Y41760000D02*
X34024540Y41617142D01*
X34024540Y41617142D02*
X34024540Y41331428D01*
X34024540Y41331428D02*
X34084064Y41188571D01*
X34084064Y41188571D02*
X34143588Y41117142D01*
X34143588Y41117142D02*
X34262635Y41045714D01*
X34262635Y41045714D02*
X34619778Y41045714D01*
X34619778Y41045714D02*
X34738826Y41117142D01*
X34738826Y41117142D02*
X34798350Y41188571D01*
X34798350Y41188571D02*
X34857873Y41331428D01*
X34857873Y41331428D02*
X34857873Y41617142D01*
X34857873Y41617142D02*
X34798350Y41760000D01*
X34203111Y38760000D02*
X34203111Y39260000D01*
X34857873Y39260000D02*
X33607873Y39260000D01*
X33607873Y39260000D02*
X33607873Y38545714D01*
X34857873Y37974286D02*
X34024540Y37974286D01*
X33607873Y37974286D02*
X33667397Y38045714D01*
X33667397Y38045714D02*
X33726921Y37974286D01*
X33726921Y37974286D02*
X33667397Y37902857D01*
X33667397Y37902857D02*
X33607873Y37974286D01*
X33607873Y37974286D02*
X33726921Y37974286D01*
X34857873Y37045714D02*
X34798350Y37188571D01*
X34798350Y37188571D02*
X34679302Y37260000D01*
X34679302Y37260000D02*
X33607873Y37260000D01*
X34024540Y36688571D02*
X34024540Y36117143D01*
X33607873Y36474286D02*
X34679302Y36474286D01*
X34679302Y36474286D02*
X34798350Y36402857D01*
X34798350Y36402857D02*
X34857873Y36260000D01*
X34857873Y36260000D02*
X34857873Y36117143D01*
X34798350Y35045714D02*
X34857873Y35188571D01*
X34857873Y35188571D02*
X34857873Y35474285D01*
X34857873Y35474285D02*
X34798350Y35617143D01*
X34798350Y35617143D02*
X34679302Y35688571D01*
X34679302Y35688571D02*
X34203111Y35688571D01*
X34203111Y35688571D02*
X34084064Y35617143D01*
X34084064Y35617143D02*
X34024540Y35474285D01*
X34024540Y35474285D02*
X34024540Y35188571D01*
X34024540Y35188571D02*
X34084064Y35045714D01*
X34084064Y35045714D02*
X34203111Y34974285D01*
X34203111Y34974285D02*
X34322159Y34974285D01*
X34322159Y34974285D02*
X34441207Y35688571D01*
X34857873Y34331429D02*
X34024540Y34331429D01*
X34262635Y34331429D02*
X34143588Y34260000D01*
X34143588Y34260000D02*
X34084064Y34188571D01*
X34084064Y34188571D02*
X34024540Y34045714D01*
X34024540Y34045714D02*
X34024540Y33902857D01*
X36037040Y59581430D02*
X37048945Y59581430D01*
X37048945Y59581430D02*
X37167992Y59652859D01*
X37167992Y59652859D02*
X37227516Y59724288D01*
X37227516Y59724288D02*
X37287040Y59867145D01*
X37287040Y59867145D02*
X37287040Y60081430D01*
X37287040Y60081430D02*
X37227516Y60224288D01*
X36810850Y59581430D02*
X36870373Y59724288D01*
X36870373Y59724288D02*
X36870373Y60010002D01*
X36870373Y60010002D02*
X36810850Y60152859D01*
X36810850Y60152859D02*
X36751326Y60224288D01*
X36751326Y60224288D02*
X36632278Y60295716D01*
X36632278Y60295716D02*
X36275135Y60295716D01*
X36275135Y60295716D02*
X36156088Y60224288D01*
X36156088Y60224288D02*
X36096564Y60152859D01*
X36096564Y60152859D02*
X36037040Y60010002D01*
X36037040Y60010002D02*
X36037040Y59724288D01*
X36037040Y59724288D02*
X36096564Y59581430D01*
X36870373Y58867145D02*
X36037040Y58867145D01*
X35620373Y58867145D02*
X35679897Y58938573D01*
X35679897Y58938573D02*
X35739421Y58867145D01*
X35739421Y58867145D02*
X35679897Y58795716D01*
X35679897Y58795716D02*
X35620373Y58867145D01*
X35620373Y58867145D02*
X35739421Y58867145D01*
X36037040Y58367144D02*
X36037040Y57795716D01*
X35620373Y58152859D02*
X36691802Y58152859D01*
X36691802Y58152859D02*
X36810850Y58081430D01*
X36810850Y58081430D02*
X36870373Y57938573D01*
X36870373Y57938573D02*
X36870373Y57795716D01*
X36870373Y57295716D02*
X35620373Y57295716D01*
X36870373Y56652858D02*
X36215611Y56652858D01*
X36215611Y56652858D02*
X36096564Y56724287D01*
X36096564Y56724287D02*
X36037040Y56867144D01*
X36037040Y56867144D02*
X36037040Y57081430D01*
X36037040Y57081430D02*
X36096564Y57224287D01*
X36096564Y57224287D02*
X36156088Y57295716D01*
X36037040Y55295715D02*
X36870373Y55295715D01*
X36037040Y55938573D02*
X36691802Y55938573D01*
X36691802Y55938573D02*
X36810850Y55867144D01*
X36810850Y55867144D02*
X36870373Y55724287D01*
X36870373Y55724287D02*
X36870373Y55510001D01*
X36870373Y55510001D02*
X36810850Y55367144D01*
X36810850Y55367144D02*
X36751326Y55295715D01*
X36870373Y54581430D02*
X35620373Y54581430D01*
X36096564Y54581430D02*
X36037040Y54438572D01*
X36037040Y54438572D02*
X36037040Y54152858D01*
X36037040Y54152858D02*
X36096564Y54010001D01*
X36096564Y54010001D02*
X36156088Y53938572D01*
X36156088Y53938572D02*
X36275135Y53867144D01*
X36275135Y53867144D02*
X36632278Y53867144D01*
X36632278Y53867144D02*
X36751326Y53938572D01*
X36751326Y53938572D02*
X36810850Y54010001D01*
X36810850Y54010001D02*
X36870373Y54152858D01*
X36870373Y54152858D02*
X36870373Y54438572D01*
X36870373Y54438572D02*
X36810850Y54581430D01*
X36751326Y53224287D02*
X36810850Y53152858D01*
X36810850Y53152858D02*
X36870373Y53224287D01*
X36870373Y53224287D02*
X36810850Y53295715D01*
X36810850Y53295715D02*
X36751326Y53224287D01*
X36751326Y53224287D02*
X36870373Y53224287D01*
X36810850Y51867143D02*
X36870373Y52010001D01*
X36870373Y52010001D02*
X36870373Y52295715D01*
X36870373Y52295715D02*
X36810850Y52438572D01*
X36810850Y52438572D02*
X36751326Y52510001D01*
X36751326Y52510001D02*
X36632278Y52581429D01*
X36632278Y52581429D02*
X36275135Y52581429D01*
X36275135Y52581429D02*
X36156088Y52510001D01*
X36156088Y52510001D02*
X36096564Y52438572D01*
X36096564Y52438572D02*
X36037040Y52295715D01*
X36037040Y52295715D02*
X36037040Y52010001D01*
X36037040Y52010001D02*
X36096564Y51867143D01*
X36870373Y51010001D02*
X36810850Y51152858D01*
X36810850Y51152858D02*
X36751326Y51224287D01*
X36751326Y51224287D02*
X36632278Y51295715D01*
X36632278Y51295715D02*
X36275135Y51295715D01*
X36275135Y51295715D02*
X36156088Y51224287D01*
X36156088Y51224287D02*
X36096564Y51152858D01*
X36096564Y51152858D02*
X36037040Y51010001D01*
X36037040Y51010001D02*
X36037040Y50795715D01*
X36037040Y50795715D02*
X36096564Y50652858D01*
X36096564Y50652858D02*
X36156088Y50581429D01*
X36156088Y50581429D02*
X36275135Y50510001D01*
X36275135Y50510001D02*
X36632278Y50510001D01*
X36632278Y50510001D02*
X36751326Y50581429D01*
X36751326Y50581429D02*
X36810850Y50652858D01*
X36810850Y50652858D02*
X36870373Y50795715D01*
X36870373Y50795715D02*
X36870373Y51010001D01*
X36870373Y49867144D02*
X36037040Y49867144D01*
X36156088Y49867144D02*
X36096564Y49795715D01*
X36096564Y49795715D02*
X36037040Y49652858D01*
X36037040Y49652858D02*
X36037040Y49438572D01*
X36037040Y49438572D02*
X36096564Y49295715D01*
X36096564Y49295715D02*
X36215611Y49224286D01*
X36215611Y49224286D02*
X36870373Y49224286D01*
X36215611Y49224286D02*
X36096564Y49152858D01*
X36096564Y49152858D02*
X36037040Y49010001D01*
X36037040Y49010001D02*
X36037040Y48795715D01*
X36037040Y48795715D02*
X36096564Y48652858D01*
X36096564Y48652858D02*
X36215611Y48581429D01*
X36215611Y48581429D02*
X36870373Y48581429D01*
X35560850Y46795715D02*
X37167992Y48081429D01*
X36037040Y45652857D02*
X37048945Y45652857D01*
X37048945Y45652857D02*
X37167992Y45724286D01*
X37167992Y45724286D02*
X37227516Y45795715D01*
X37227516Y45795715D02*
X37287040Y45938572D01*
X37287040Y45938572D02*
X37287040Y46152857D01*
X37287040Y46152857D02*
X37227516Y46295715D01*
X36810850Y45652857D02*
X36870373Y45795715D01*
X36870373Y45795715D02*
X36870373Y46081429D01*
X36870373Y46081429D02*
X36810850Y46224286D01*
X36810850Y46224286D02*
X36751326Y46295715D01*
X36751326Y46295715D02*
X36632278Y46367143D01*
X36632278Y46367143D02*
X36275135Y46367143D01*
X36275135Y46367143D02*
X36156088Y46295715D01*
X36156088Y46295715D02*
X36096564Y46224286D01*
X36096564Y46224286D02*
X36037040Y46081429D01*
X36037040Y46081429D02*
X36037040Y45795715D01*
X36037040Y45795715D02*
X36096564Y45652857D01*
X36870373Y44724286D02*
X36810850Y44867143D01*
X36810850Y44867143D02*
X36751326Y44938572D01*
X36751326Y44938572D02*
X36632278Y45010000D01*
X36632278Y45010000D02*
X36275135Y45010000D01*
X36275135Y45010000D02*
X36156088Y44938572D01*
X36156088Y44938572D02*
X36096564Y44867143D01*
X36096564Y44867143D02*
X36037040Y44724286D01*
X36037040Y44724286D02*
X36037040Y44510000D01*
X36037040Y44510000D02*
X36096564Y44367143D01*
X36096564Y44367143D02*
X36156088Y44295714D01*
X36156088Y44295714D02*
X36275135Y44224286D01*
X36275135Y44224286D02*
X36632278Y44224286D01*
X36632278Y44224286D02*
X36751326Y44295714D01*
X36751326Y44295714D02*
X36810850Y44367143D01*
X36810850Y44367143D02*
X36870373Y44510000D01*
X36870373Y44510000D02*
X36870373Y44724286D01*
X36810850Y43652857D02*
X36870373Y43510000D01*
X36870373Y43510000D02*
X36870373Y43224286D01*
X36870373Y43224286D02*
X36810850Y43081429D01*
X36810850Y43081429D02*
X36691802Y43010000D01*
X36691802Y43010000D02*
X36632278Y43010000D01*
X36632278Y43010000D02*
X36513230Y43081429D01*
X36513230Y43081429D02*
X36453707Y43224286D01*
X36453707Y43224286D02*
X36453707Y43438571D01*
X36453707Y43438571D02*
X36394183Y43581429D01*
X36394183Y43581429D02*
X36275135Y43652857D01*
X36275135Y43652857D02*
X36215611Y43652857D01*
X36215611Y43652857D02*
X36096564Y43581429D01*
X36096564Y43581429D02*
X36037040Y43438571D01*
X36037040Y43438571D02*
X36037040Y43224286D01*
X36037040Y43224286D02*
X36096564Y43081429D01*
X36810850Y41724285D02*
X36870373Y41867143D01*
X36870373Y41867143D02*
X36870373Y42152857D01*
X36870373Y42152857D02*
X36810850Y42295714D01*
X36810850Y42295714D02*
X36751326Y42367143D01*
X36751326Y42367143D02*
X36632278Y42438571D01*
X36632278Y42438571D02*
X36275135Y42438571D01*
X36275135Y42438571D02*
X36156088Y42367143D01*
X36156088Y42367143D02*
X36096564Y42295714D01*
X36096564Y42295714D02*
X36037040Y42152857D01*
X36037040Y42152857D02*
X36037040Y41867143D01*
X36037040Y41867143D02*
X36096564Y41724285D01*
X36870373Y41081429D02*
X36037040Y41081429D01*
X35620373Y41081429D02*
X35679897Y41152857D01*
X35679897Y41152857D02*
X35739421Y41081429D01*
X35739421Y41081429D02*
X35679897Y41010000D01*
X35679897Y41010000D02*
X35620373Y41081429D01*
X35620373Y41081429D02*
X35739421Y41081429D01*
X36810850Y39724285D02*
X36870373Y39867143D01*
X36870373Y39867143D02*
X36870373Y40152857D01*
X36870373Y40152857D02*
X36810850Y40295714D01*
X36810850Y40295714D02*
X36751326Y40367143D01*
X36751326Y40367143D02*
X36632278Y40438571D01*
X36632278Y40438571D02*
X36275135Y40438571D01*
X36275135Y40438571D02*
X36156088Y40367143D01*
X36156088Y40367143D02*
X36096564Y40295714D01*
X36096564Y40295714D02*
X36037040Y40152857D01*
X36037040Y40152857D02*
X36037040Y39867143D01*
X36037040Y39867143D02*
X36096564Y39724285D01*
X36870373Y39081429D02*
X35620373Y39081429D01*
X36394183Y38938571D02*
X36870373Y38510000D01*
X36037040Y38510000D02*
X36513230Y39081429D01*
X36870373Y37867143D02*
X36037040Y37867143D01*
X35620373Y37867143D02*
X35679897Y37938571D01*
X35679897Y37938571D02*
X35739421Y37867143D01*
X35739421Y37867143D02*
X35679897Y37795714D01*
X35679897Y37795714D02*
X35620373Y37867143D01*
X35620373Y37867143D02*
X35739421Y37867143D01*
X36037040Y37295714D02*
X36870373Y37009999D01*
X36870373Y37009999D02*
X36275135Y36724285D01*
X36275135Y36724285D02*
X36870373Y36438571D01*
X36870373Y36438571D02*
X36037040Y36152857D01*
D11*
G36*
X41889523Y52032324D02*
G01*
X38120476Y52032324D01*
X38120476Y52964467D01*
X38263333Y52964467D01*
X38263893Y52962929D01*
X38267182Y52940750D01*
X38314801Y52797893D01*
X38317588Y52794381D01*
X38317979Y52789914D01*
X38332919Y52768577D01*
X38776314Y52325181D01*
X38338333Y52325181D01*
X38290124Y52307634D01*
X38264472Y52263205D01*
X38273381Y52212681D01*
X38312681Y52179704D01*
X38338333Y52175181D01*
X38957380Y52175181D01*
X38978591Y52182902D01*
X39000398Y52188744D01*
X39002366Y52191556D01*
X39005589Y52192728D01*
X39016874Y52212274D01*
X39029825Y52230769D01*
X39029526Y52234187D01*
X39031241Y52237157D01*
X39027321Y52259384D01*
X39025354Y52281877D01*
X39022682Y52285692D01*
X39022332Y52287681D01*
X39019805Y52289802D01*
X39010413Y52303214D01*
X38872969Y52440658D01*
X39215714Y52440658D01*
X39217247Y52436445D01*
X39216206Y52432084D01*
X39223632Y52407117D01*
X39271251Y52311879D01*
X39272439Y52310754D01*
X39285299Y52292388D01*
X39332918Y52244768D01*
X39334399Y52244078D01*
X39352411Y52230718D01*
X39447649Y52183099D01*
X39452102Y52182587D01*
X39455538Y52179704D01*
X39481190Y52175181D01*
X39719285Y52175181D01*
X39720823Y52175742D01*
X39743002Y52179030D01*
X39885859Y52226649D01*
X39926045Y52258540D01*
X39936331Y52308801D01*
X39911902Y52353915D01*
X39864190Y52372772D01*
X39838424Y52368951D01*
X39707115Y52325181D01*
X39498895Y52325181D01*
X39430379Y52359439D01*
X39399972Y52389847D01*
X39365714Y52458363D01*
X39365714Y52518191D01*
X39399972Y52586708D01*
X39430379Y52617115D01*
X39507366Y52655608D01*
X39689856Y52701230D01*
X39692800Y52703219D01*
X39705207Y52706909D01*
X39800445Y52754528D01*
X39801570Y52755718D01*
X39819937Y52768577D01*
X39867556Y52816196D01*
X39868247Y52817678D01*
X39881605Y52835688D01*
X39929224Y52930926D01*
X39929736Y52935380D01*
X39932619Y52938815D01*
X39937142Y52964467D01*
X39937142Y53059705D01*
X39935608Y53063919D01*
X39936650Y53068280D01*
X39929224Y53093246D01*
X39881605Y53188484D01*
X39880415Y53189610D01*
X39867556Y53207976D01*
X39841547Y53233985D01*
X40074626Y53233985D01*
X40084582Y53209915D01*
X40406190Y52704531D01*
X40406190Y52250181D01*
X40423737Y52201972D01*
X40468166Y52176320D01*
X40518690Y52185229D01*
X40551667Y52224529D01*
X40556190Y52250181D01*
X40556190Y52440658D01*
X41025238Y52440658D01*
X41026771Y52436445D01*
X41025730Y52432084D01*
X41033156Y52407117D01*
X41080775Y52311879D01*
X41081963Y52310754D01*
X41094823Y52292388D01*
X41142442Y52244768D01*
X41143923Y52244078D01*
X41161935Y52230718D01*
X41257173Y52183099D01*
X41261626Y52182587D01*
X41265062Y52179704D01*
X41290714Y52175181D01*
X41528809Y52175181D01*
X41530347Y52175742D01*
X41552526Y52179030D01*
X41695383Y52226649D01*
X41735569Y52258540D01*
X41745855Y52308801D01*
X41721426Y52353915D01*
X41673714Y52372772D01*
X41647948Y52368951D01*
X41516639Y52325181D01*
X41308419Y52325181D01*
X41239903Y52359439D01*
X41209496Y52389847D01*
X41175238Y52458364D01*
X41175238Y52518191D01*
X41209496Y52586708D01*
X41239903Y52617115D01*
X41316890Y52655608D01*
X41499380Y52701230D01*
X41502324Y52703219D01*
X41514731Y52706909D01*
X41609969Y52754528D01*
X41611094Y52755718D01*
X41629461Y52768577D01*
X41677080Y52816196D01*
X41677771Y52817678D01*
X41691129Y52835688D01*
X41738748Y52930926D01*
X41739260Y52935380D01*
X41742143Y52938815D01*
X41746666Y52964467D01*
X41746666Y53059705D01*
X41745132Y53063919D01*
X41746174Y53068280D01*
X41738748Y53093246D01*
X41691129Y53188484D01*
X41689939Y53189610D01*
X41677080Y53207976D01*
X41629461Y53255595D01*
X41627979Y53256286D01*
X41609969Y53269644D01*
X41514731Y53317263D01*
X41510277Y53317776D01*
X41506842Y53320658D01*
X41481190Y53325181D01*
X41243095Y53325181D01*
X41241557Y53324622D01*
X41219377Y53321332D01*
X41076521Y53273713D01*
X41036335Y53241822D01*
X41026049Y53191561D01*
X41050478Y53146447D01*
X41098189Y53127590D01*
X41123955Y53131411D01*
X41255265Y53175181D01*
X41463485Y53175181D01*
X41532001Y53140923D01*
X41562408Y53110516D01*
X41596666Y53042000D01*
X41596666Y52982172D01*
X41562408Y52913656D01*
X41532001Y52883250D01*
X41455014Y52844756D01*
X41272524Y52799133D01*
X41269579Y52797145D01*
X41257173Y52793454D01*
X41161935Y52745835D01*
X41160809Y52744646D01*
X41142443Y52731786D01*
X41094824Y52684167D01*
X41094133Y52682686D01*
X41080775Y52664675D01*
X41033156Y52569437D01*
X41032643Y52564984D01*
X41029761Y52561548D01*
X41025238Y52535896D01*
X41025238Y52440658D01*
X40556190Y52440658D01*
X40556190Y52704532D01*
X40877798Y53209916D01*
X40888876Y53260008D01*
X40865165Y53305503D01*
X40817757Y53325112D01*
X40768836Y53309660D01*
X40751248Y53290447D01*
X40481189Y52866070D01*
X40211132Y53290447D01*
X40170446Y53321698D01*
X40119191Y53319487D01*
X40081349Y53284846D01*
X40074626Y53233985D01*
X39841547Y53233985D01*
X39819937Y53255595D01*
X39818455Y53256286D01*
X39800445Y53269644D01*
X39705207Y53317263D01*
X39700753Y53317776D01*
X39697318Y53320658D01*
X39671666Y53325181D01*
X39433571Y53325181D01*
X39432033Y53324622D01*
X39409853Y53321332D01*
X39266997Y53273713D01*
X39226811Y53241822D01*
X39216525Y53191561D01*
X39240954Y53146447D01*
X39288665Y53127590D01*
X39314431Y53131411D01*
X39445741Y53175181D01*
X39653961Y53175181D01*
X39722477Y53140923D01*
X39752884Y53110516D01*
X39787142Y53042001D01*
X39787142Y52982172D01*
X39752884Y52913657D01*
X39722476Y52883249D01*
X39645490Y52844756D01*
X39463000Y52799133D01*
X39460055Y52797145D01*
X39447649Y52793454D01*
X39352411Y52745835D01*
X39351285Y52744646D01*
X39332919Y52731786D01*
X39285300Y52684167D01*
X39284609Y52682686D01*
X39271251Y52664675D01*
X39223632Y52569437D01*
X39223119Y52564984D01*
X39220237Y52561548D01*
X39215714Y52535896D01*
X39215714Y52440658D01*
X38872969Y52440658D01*
X38451504Y52862124D01*
X38413333Y52976638D01*
X38413333Y53042000D01*
X38447591Y53110517D01*
X38477997Y53140923D01*
X38546514Y53175181D01*
X38749199Y53175181D01*
X38817715Y53140923D01*
X38856728Y53101910D01*
X38903224Y53080229D01*
X38952779Y53093506D01*
X38982205Y53135532D01*
X38977734Y53186639D01*
X38962794Y53207976D01*
X38915175Y53255595D01*
X38913693Y53256286D01*
X38895683Y53269644D01*
X38800445Y53317263D01*
X38795991Y53317776D01*
X38792556Y53320658D01*
X38766904Y53325181D01*
X38528809Y53325181D01*
X38524595Y53323648D01*
X38520234Y53324689D01*
X38495268Y53317263D01*
X38400030Y53269644D01*
X38398904Y53268455D01*
X38380538Y53255595D01*
X38332919Y53207976D01*
X38332228Y53206495D01*
X38318870Y53188484D01*
X38271251Y53093246D01*
X38270738Y53088793D01*
X38267856Y53085357D01*
X38263333Y53059705D01*
X38263333Y52964467D01*
X38120476Y52964467D01*
X38120476Y53468038D01*
X41889523Y53468038D01*
X41889523Y52032324D01*
G37*
G36*
X40215713Y36291372D02*
G01*
X39927466Y36291372D01*
X39858950Y36325631D01*
X39828543Y36356038D01*
X39794285Y36424553D01*
X39794285Y36532001D01*
X39828543Y36600517D01*
X39858950Y36630924D01*
X39927466Y36665181D01*
X40215713Y36665181D01*
X40215713Y36291372D01*
G37*
G36*
X41318094Y35522324D02*
G01*
X38597805Y35522324D01*
X38597805Y36753205D01*
X38740662Y36753205D01*
X38749571Y36702681D01*
X38788871Y36669704D01*
X38814523Y36665181D01*
X39215713Y36665181D01*
X39215713Y36338991D01*
X38957380Y36338991D01*
X38909171Y36321444D01*
X38883519Y36277015D01*
X38892428Y36226491D01*
X38931728Y36193514D01*
X38957380Y36188991D01*
X39215713Y36188991D01*
X39215713Y35740181D01*
X39233260Y35691972D01*
X39277689Y35666320D01*
X39328213Y35675229D01*
X39361190Y35714529D01*
X39365713Y35740181D01*
X39365713Y36406848D01*
X39644285Y36406848D01*
X39645818Y36402635D01*
X39644777Y36398274D01*
X39652203Y36373307D01*
X39699822Y36278069D01*
X39701011Y36276944D01*
X39713871Y36258577D01*
X39761490Y36210958D01*
X39762971Y36210267D01*
X39780982Y36196909D01*
X39876220Y36149290D01*
X39880673Y36148778D01*
X39884109Y36145895D01*
X39909761Y36141372D01*
X40215713Y36141372D01*
X40215713Y35740181D01*
X40233260Y35691972D01*
X40277689Y35666320D01*
X40328213Y35675229D01*
X40361190Y35714529D01*
X40365713Y35740181D01*
X40365713Y35753205D01*
X40550186Y35753205D01*
X40559095Y35702681D01*
X40598395Y35669704D01*
X40624047Y35665181D01*
X41100237Y35665181D01*
X41118545Y35671845D01*
X41137737Y35675229D01*
X41142087Y35680414D01*
X41148446Y35682728D01*
X41158188Y35699602D01*
X41170714Y35714529D01*
X41172431Y35724272D01*
X41174098Y35727157D01*
X41173519Y35730440D01*
X41175237Y35740181D01*
X41175237Y36740181D01*
X41157690Y36788390D01*
X41113261Y36814042D01*
X41062737Y36805133D01*
X41029760Y36765833D01*
X41025237Y36740181D01*
X41025237Y35815181D01*
X40624047Y35815181D01*
X40575838Y35797634D01*
X40550186Y35753205D01*
X40365713Y35753205D01*
X40365713Y36740181D01*
X40359049Y36758490D01*
X40355665Y36777681D01*
X40350480Y36782032D01*
X40348166Y36788390D01*
X40331292Y36798133D01*
X40316365Y36810658D01*
X40306622Y36812376D01*
X40303737Y36814042D01*
X40300454Y36813464D01*
X40290713Y36815181D01*
X39909761Y36815181D01*
X39905547Y36813648D01*
X39901186Y36814689D01*
X39876220Y36807263D01*
X39780982Y36759644D01*
X39779856Y36758455D01*
X39761490Y36745595D01*
X39713871Y36697976D01*
X39713180Y36696495D01*
X39699822Y36678484D01*
X39652203Y36583246D01*
X39651690Y36578793D01*
X39648808Y36575357D01*
X39644285Y36549705D01*
X39644285Y36406848D01*
X39365713Y36406848D01*
X39365713Y36740181D01*
X39359049Y36758490D01*
X39355665Y36777681D01*
X39350480Y36782032D01*
X39348166Y36788390D01*
X39331292Y36798133D01*
X39316365Y36810658D01*
X39306622Y36812376D01*
X39303737Y36814042D01*
X39300454Y36813464D01*
X39290713Y36815181D01*
X38814523Y36815181D01*
X38766314Y36797634D01*
X38740662Y36753205D01*
X38597805Y36753205D01*
X38597805Y36958038D01*
X41318094Y36958038D01*
X41318094Y35522324D01*
G37*
X51889819Y79478095D02*
X50889819Y79478095D01*
X50889819Y79478095D02*
X50889819Y79240000D01*
X50889819Y79240000D02*
X50937438Y79097143D01*
X50937438Y79097143D02*
X51032676Y79001905D01*
X51032676Y79001905D02*
X51127914Y78954286D01*
X51127914Y78954286D02*
X51318390Y78906667D01*
X51318390Y78906667D02*
X51461247Y78906667D01*
X51461247Y78906667D02*
X51651723Y78954286D01*
X51651723Y78954286D02*
X51746961Y79001905D01*
X51746961Y79001905D02*
X51842200Y79097143D01*
X51842200Y79097143D02*
X51889819Y79240000D01*
X51889819Y79240000D02*
X51889819Y79478095D01*
X50985057Y78525714D02*
X50937438Y78478095D01*
X50937438Y78478095D02*
X50889819Y78382857D01*
X50889819Y78382857D02*
X50889819Y78144762D01*
X50889819Y78144762D02*
X50937438Y78049524D01*
X50937438Y78049524D02*
X50985057Y78001905D01*
X50985057Y78001905D02*
X51080295Y77954286D01*
X51080295Y77954286D02*
X51175533Y77954286D01*
X51175533Y77954286D02*
X51318390Y78001905D01*
X51318390Y78001905D02*
X51889819Y78573333D01*
X51889819Y78573333D02*
X51889819Y77954286D01*
G36*
X41904523Y44412324D02*
G01*
X38136615Y44412324D01*
X38136615Y44643205D01*
X38279472Y44643205D01*
X38288381Y44592681D01*
X38327681Y44559704D01*
X38353333Y44555181D01*
X38924761Y44555181D01*
X38972970Y44572728D01*
X38998622Y44617157D01*
X38989713Y44667681D01*
X38950413Y44700658D01*
X38924761Y44705181D01*
X38714047Y44705181D01*
X38714047Y44820658D01*
X39230714Y44820658D01*
X39232247Y44816445D01*
X39231206Y44812084D01*
X39238632Y44787117D01*
X39286251Y44691879D01*
X39287439Y44690754D01*
X39300299Y44672388D01*
X39347918Y44624768D01*
X39349399Y44624078D01*
X39367411Y44610718D01*
X39462649Y44563099D01*
X39467102Y44562587D01*
X39470538Y44559704D01*
X39496190Y44555181D01*
X39734285Y44555181D01*
X39735823Y44555742D01*
X39758002Y44559030D01*
X39900859Y44606649D01*
X39941045Y44638540D01*
X39951331Y44688801D01*
X39926902Y44733915D01*
X39879190Y44752772D01*
X39853424Y44748951D01*
X39722115Y44705181D01*
X39513895Y44705181D01*
X39445379Y44739439D01*
X39414972Y44769847D01*
X39380714Y44838364D01*
X39380714Y44898191D01*
X39414971Y44966707D01*
X39445379Y44997115D01*
X39522365Y45035608D01*
X39704856Y45081230D01*
X39707800Y45083219D01*
X39720207Y45086909D01*
X39815445Y45134528D01*
X39816570Y45135718D01*
X39834937Y45148577D01*
X39882556Y45196196D01*
X39883247Y45197678D01*
X39896605Y45215688D01*
X39944224Y45310926D01*
X39944736Y45315380D01*
X39947619Y45318815D01*
X39952142Y45344467D01*
X39952142Y45439705D01*
X39950608Y45443919D01*
X39951650Y45448280D01*
X39944224Y45473246D01*
X39896605Y45568484D01*
X39895415Y45569610D01*
X39882556Y45587976D01*
X39856547Y45613985D01*
X40089626Y45613985D01*
X40099582Y45589915D01*
X40421190Y45084531D01*
X40421190Y44630181D01*
X40438737Y44581972D01*
X40483166Y44556320D01*
X40533690Y44565229D01*
X40566667Y44604529D01*
X40571190Y44630181D01*
X40571190Y44820658D01*
X41040238Y44820658D01*
X41041771Y44816445D01*
X41040730Y44812084D01*
X41048156Y44787117D01*
X41095775Y44691879D01*
X41096963Y44690754D01*
X41109823Y44672388D01*
X41157442Y44624768D01*
X41158923Y44624078D01*
X41176935Y44610718D01*
X41272173Y44563099D01*
X41276626Y44562587D01*
X41280062Y44559704D01*
X41305714Y44555181D01*
X41543809Y44555181D01*
X41545347Y44555742D01*
X41567526Y44559030D01*
X41710383Y44606649D01*
X41750569Y44638540D01*
X41760855Y44688801D01*
X41736426Y44733915D01*
X41688714Y44752772D01*
X41662948Y44748951D01*
X41531639Y44705181D01*
X41323419Y44705181D01*
X41254903Y44739439D01*
X41224496Y44769847D01*
X41190238Y44838363D01*
X41190238Y44898191D01*
X41224496Y44966708D01*
X41254903Y44997115D01*
X41331889Y45035608D01*
X41514380Y45081230D01*
X41517324Y45083219D01*
X41529731Y45086909D01*
X41624969Y45134528D01*
X41626094Y45135718D01*
X41644461Y45148577D01*
X41692080Y45196196D01*
X41692771Y45197678D01*
X41706129Y45215688D01*
X41753748Y45310926D01*
X41754260Y45315380D01*
X41757143Y45318815D01*
X41761666Y45344467D01*
X41761666Y45439705D01*
X41760132Y45443919D01*
X41761174Y45448280D01*
X41753748Y45473246D01*
X41706129Y45568484D01*
X41704939Y45569610D01*
X41692080Y45587976D01*
X41644461Y45635595D01*
X41642979Y45636286D01*
X41624969Y45649644D01*
X41529731Y45697263D01*
X41525277Y45697776D01*
X41521842Y45700658D01*
X41496190Y45705181D01*
X41258095Y45705181D01*
X41256557Y45704622D01*
X41234377Y45701332D01*
X41091521Y45653713D01*
X41051335Y45621822D01*
X41041049Y45571561D01*
X41065478Y45526447D01*
X41113189Y45507590D01*
X41138955Y45511411D01*
X41270265Y45555181D01*
X41478485Y45555181D01*
X41547001Y45520923D01*
X41577408Y45490516D01*
X41611666Y45422000D01*
X41611666Y45362173D01*
X41577407Y45293656D01*
X41547001Y45263250D01*
X41470013Y45224756D01*
X41287524Y45179133D01*
X41284579Y45177145D01*
X41272173Y45173454D01*
X41176935Y45125835D01*
X41175809Y45124646D01*
X41157443Y45111786D01*
X41109824Y45064167D01*
X41109133Y45062686D01*
X41095775Y45044675D01*
X41048156Y44949437D01*
X41047643Y44944984D01*
X41044761Y44941548D01*
X41040238Y44915896D01*
X41040238Y44820658D01*
X40571190Y44820658D01*
X40571190Y45084532D01*
X40892798Y45589916D01*
X40903876Y45640008D01*
X40880165Y45685503D01*
X40832757Y45705112D01*
X40783836Y45689660D01*
X40766248Y45670447D01*
X40496189Y45246070D01*
X40226132Y45670447D01*
X40185446Y45701698D01*
X40134191Y45699487D01*
X40096349Y45664846D01*
X40089626Y45613985D01*
X39856547Y45613985D01*
X39834937Y45635595D01*
X39833455Y45636286D01*
X39815445Y45649644D01*
X39720207Y45697263D01*
X39715753Y45697776D01*
X39712318Y45700658D01*
X39686666Y45705181D01*
X39448571Y45705181D01*
X39447033Y45704622D01*
X39424853Y45701332D01*
X39281997Y45653713D01*
X39241811Y45621822D01*
X39231525Y45571561D01*
X39255954Y45526447D01*
X39303665Y45507590D01*
X39329431Y45511411D01*
X39460741Y45555181D01*
X39668961Y45555181D01*
X39737477Y45520923D01*
X39767884Y45490516D01*
X39802142Y45422000D01*
X39802142Y45362173D01*
X39767884Y45293657D01*
X39737476Y45263249D01*
X39660489Y45224756D01*
X39478000Y45179133D01*
X39475055Y45177145D01*
X39462649Y45173454D01*
X39367411Y45125835D01*
X39366285Y45124646D01*
X39347919Y45111786D01*
X39300300Y45064167D01*
X39299609Y45062686D01*
X39286251Y45044675D01*
X39238632Y44949437D01*
X39238119Y44944984D01*
X39235237Y44941548D01*
X39230714Y44915896D01*
X39230714Y44820658D01*
X38714047Y44820658D01*
X38714047Y45401497D01*
X38776490Y45339053D01*
X38777971Y45338363D01*
X38795982Y45325004D01*
X38891220Y45277385D01*
X38942186Y45271520D01*
X38984999Y45299786D01*
X38999626Y45348961D01*
X38979223Y45396032D01*
X38958302Y45411549D01*
X38873950Y45453725D01*
X38792569Y45535106D01*
X38701451Y45671784D01*
X38697974Y45674339D01*
X38696500Y45678390D01*
X38677650Y45689274D01*
X38660109Y45702163D01*
X38655806Y45701886D01*
X38652071Y45704042D01*
X38630633Y45700262D01*
X38608913Y45698861D01*
X38605794Y45695882D01*
X38601547Y45695133D01*
X38587554Y45678458D01*
X38571816Y45663423D01*
X38571341Y45659137D01*
X38568570Y45655833D01*
X38564047Y45630181D01*
X38564047Y44705181D01*
X38353333Y44705181D01*
X38305124Y44687634D01*
X38279472Y44643205D01*
X38136615Y44643205D01*
X38136615Y45848038D01*
X41904523Y45848038D01*
X41904523Y44412324D01*
G37*
X8358094Y80190181D02*
X8358094Y81190181D01*
X8358094Y81190181D02*
X8119999Y81190181D01*
X8119999Y81190181D02*
X7977142Y81142562D01*
X7977142Y81142562D02*
X7881904Y81047324D01*
X7881904Y81047324D02*
X7834285Y80952086D01*
X7834285Y80952086D02*
X7786666Y80761610D01*
X7786666Y80761610D02*
X7786666Y80618753D01*
X7786666Y80618753D02*
X7834285Y80428277D01*
X7834285Y80428277D02*
X7881904Y80333039D01*
X7881904Y80333039D02*
X7977142Y80237800D01*
X7977142Y80237800D02*
X8119999Y80190181D01*
X8119999Y80190181D02*
X8358094Y80190181D01*
X6834285Y80190181D02*
X7405713Y80190181D01*
X7119999Y80190181D02*
X7119999Y81190181D01*
X7119999Y81190181D02*
X7215237Y81047324D01*
X7215237Y81047324D02*
X7310475Y80952086D01*
X7310475Y80952086D02*
X7405713Y80904467D01*
D12*
%TO.C,JP1*%
X41420000Y50500000D02*
X41420000Y51100000D01*
X40720000Y51800000D02*
X39320000Y51800000D01*
X39320000Y49800000D02*
X40720000Y49800000D01*
X38620000Y51100000D02*
X38620000Y50500000D01*
X40720000Y49800000D02*
G75*
G03*
X41420000Y50500000I1J699999D01*
G01*
X41420000Y51100000D02*
G75*
G03*
X40720000Y51800000I-699999J1D01*
G01*
X38620000Y50500000D02*
G75*
G03*
X39320000Y49800000I700000J0D01*
G01*
X39320000Y51800000D02*
G75*
G03*
X38620000Y51100000I0J-700000D01*
G01*
%TO.C,JP3*%
X41420000Y37800000D02*
X41420000Y38400000D01*
X40720000Y39100000D02*
X39320000Y39100000D01*
X39320000Y37100000D02*
X40720000Y37100000D01*
X38620000Y38400000D02*
X38620000Y37800000D01*
X40720000Y37100000D02*
G75*
G03*
X41420000Y37800000I1J699999D01*
G01*
X41420000Y38400000D02*
G75*
G03*
X40720000Y39100000I-699999J1D01*
G01*
X38620000Y37800000D02*
G75*
G03*
X39320000Y37100000I700000J0D01*
G01*
X39320000Y39100000D02*
G75*
G03*
X38620000Y38400000I0J-700000D01*
G01*
%TO.C,D2*%
X49340000Y79030000D02*
X49496000Y79030000D01*
X47024000Y79030000D02*
X47180000Y79030000D01*
X49338608Y75797666D02*
G75*
G03*
X49495515Y79029999I-1078608J1672334D01*
G01*
X49339836Y76428871D02*
G75*
G03*
X49339999Y78510960I-1079836J1041129D01*
G01*
X47180001Y78510960D02*
G75*
G03*
X47180164Y76428871I1079999J-1040960D01*
G01*
X47024485Y79029999D02*
G75*
G03*
X47181392Y75797666I1235515J-1559999D01*
G01*
%TO.C,JP2*%
X41420000Y42880000D02*
X41420000Y43480000D01*
X40720000Y44180000D02*
X39320000Y44180000D01*
X39320000Y42180000D02*
X40720000Y42180000D01*
X38620000Y43480000D02*
X38620000Y42880000D01*
X40720000Y42180000D02*
G75*
G03*
X41420000Y42880000I1J699999D01*
G01*
X41420000Y43480000D02*
G75*
G03*
X40720000Y44180000I-699999J1D01*
G01*
X38620000Y42880000D02*
G75*
G03*
X39320000Y42180000I700000J0D01*
G01*
X39320000Y44180000D02*
G75*
G03*
X38620000Y43480000I0J-700000D01*
G01*
%TO.C,D1*%
X8700000Y79030000D02*
X8856000Y79030000D01*
X6384000Y79030000D02*
X6540000Y79030000D01*
X8698608Y75797666D02*
G75*
G03*
X8855515Y79029999I-1078608J1672334D01*
G01*
X8699836Y76428871D02*
G75*
G03*
X8699999Y78510960I-1079836J1041129D01*
G01*
X6540001Y78510960D02*
G75*
G03*
X6540164Y76428871I1079999J-1040960D01*
G01*
X6384485Y79029999D02*
G75*
G03*
X6541392Y75797666I1235515J-1559999D01*
G01*
%TD*%
M02*
