%TF.GenerationSoftware,KiCad,Pcbnew,7.0.6*%
%TF.CreationDate,2026-02-14T19:56:36+01:00*%
%TF.ProjectId,Analog-Video-Comb-Filter,416e616c-6f67-42d5-9669-64656f2d436f,2*%
%TF.SameCoordinates,PX71d9820PY9157080*%
%TF.FileFunction,Legend,Bot*%
%TF.FilePolarity,Positive*%
%FSLAX46Y46*%
G04 Gerber Fmt 4.6, Leading zero omitted, Abs format (unit mm)*
G04 Created by KiCad (PCBNEW 7.0.6) date 2026-02-14 19:56:36*
%MOMM*%
%LPD*%
G01*
G04 APERTURE LIST*
%ADD10C,0.150000*%
%ADD11C,0.120000*%
G04 APERTURE END LIST*
D10*
G36*
X31844104Y22876677D02*
G01*
X31441989Y23010715D01*
X31844104Y23144754D01*
X31844104Y22876677D01*
G37*
G36*
X32422676Y20889235D02*
G01*
X30986962Y20889235D01*
X30986962Y21105953D01*
X31129819Y21105953D01*
X31147366Y21057744D01*
X31191795Y21032092D01*
X31242319Y21041001D01*
X31275296Y21080301D01*
X31279819Y21105953D01*
X31279819Y21316667D01*
X32204819Y21316667D01*
X32253028Y21334214D01*
X32278680Y21378643D01*
X32269771Y21429167D01*
X32230471Y21462144D01*
X32204819Y21466667D01*
X31279819Y21466667D01*
X31279819Y21677381D01*
X31262272Y21725590D01*
X31217843Y21751242D01*
X31167319Y21742333D01*
X31134342Y21703033D01*
X31129819Y21677381D01*
X31129819Y21105953D01*
X30986962Y21105953D01*
X30986962Y22357072D01*
X31130958Y22357072D01*
X31139867Y22306548D01*
X31179167Y22273571D01*
X31204819Y22269048D01*
X32129819Y22269048D01*
X32129819Y21867858D01*
X32147366Y21819649D01*
X32191795Y21793997D01*
X32242319Y21802906D01*
X32275296Y21842206D01*
X32279819Y21867858D01*
X32279819Y22344048D01*
X32273155Y22362357D01*
X32269771Y22381548D01*
X32264586Y22385899D01*
X32262272Y22392257D01*
X32245398Y22402000D01*
X32230471Y22414525D01*
X32220728Y22416243D01*
X32217843Y22417909D01*
X32214560Y22417331D01*
X32204819Y22419048D01*
X31204819Y22419048D01*
X31156610Y22401501D01*
X31130958Y22357072D01*
X30986962Y22357072D01*
X30986962Y22999714D01*
X31130630Y22999714D01*
X31131658Y22997815D01*
X31131342Y22995679D01*
X31143760Y22975466D01*
X31155059Y22954600D01*
X31157066Y22953807D01*
X31158197Y22951967D01*
X31181102Y22939564D01*
X32181102Y22606231D01*
X32232385Y22607632D01*
X32270771Y22641670D01*
X32278296Y22692418D01*
X32251441Y22736131D01*
X32228536Y22748533D01*
X31994104Y22826677D01*
X31994104Y23194754D01*
X32228536Y23272897D01*
X32268722Y23304788D01*
X32279008Y23355049D01*
X32254579Y23400163D01*
X32206867Y23419020D01*
X32181102Y23415199D01*
X31181102Y23081866D01*
X31179410Y23080524D01*
X31177252Y23080465D01*
X31159490Y23064716D01*
X31140916Y23049975D01*
X31140483Y23047862D01*
X31138867Y23046428D01*
X31135386Y23022958D01*
X31130630Y22999714D01*
X30986962Y22999714D01*
X30986962Y23561877D01*
X32422676Y23561877D01*
X32422676Y20889235D01*
G37*
G36*
X35597676Y50835477D02*
G01*
X34161962Y50835477D01*
X34161962Y51243810D01*
X34304819Y51243810D01*
X34306352Y51239597D01*
X34305311Y51235236D01*
X34312737Y51210269D01*
X34360356Y51115031D01*
X34361545Y51113906D01*
X34374405Y51095539D01*
X34422024Y51047920D01*
X34423505Y51047229D01*
X34441516Y51033871D01*
X34536754Y50986252D01*
X34541207Y50985740D01*
X34544643Y50982857D01*
X34570295Y50978334D01*
X34665533Y50978334D01*
X34667071Y50978895D01*
X34689250Y50982183D01*
X34832107Y51029802D01*
X34835619Y51032590D01*
X34840086Y51032980D01*
X34861423Y51047920D01*
X35304819Y51491316D01*
X35304819Y51053334D01*
X35322366Y51005125D01*
X35366795Y50979473D01*
X35417319Y50988382D01*
X35450296Y51027682D01*
X35454819Y51053334D01*
X35454819Y51672381D01*
X35447098Y51693593D01*
X35441256Y51715399D01*
X35438444Y51717368D01*
X35437272Y51720590D01*
X35417726Y51731876D01*
X35399231Y51744826D01*
X35395813Y51744528D01*
X35392843Y51746242D01*
X35370616Y51742323D01*
X35348123Y51740355D01*
X35344308Y51737684D01*
X35342319Y51737333D01*
X35340198Y51734807D01*
X35326786Y51725414D01*
X34767876Y51166506D01*
X34653363Y51128334D01*
X34588000Y51128334D01*
X34519484Y51162592D01*
X34489076Y51193000D01*
X34454819Y51261515D01*
X34454819Y51464200D01*
X34489077Y51532717D01*
X34528090Y51571729D01*
X34549771Y51618225D01*
X34536494Y51667780D01*
X34494468Y51697206D01*
X34443361Y51692735D01*
X34422024Y51677795D01*
X34374405Y51630176D01*
X34373714Y51628695D01*
X34360356Y51610684D01*
X34312737Y51515446D01*
X34312224Y51510993D01*
X34309342Y51507557D01*
X34304819Y51481905D01*
X34304819Y51243810D01*
X34161962Y51243810D01*
X34161962Y52148572D01*
X34304819Y52148572D01*
X34305379Y52147034D01*
X34308668Y52124855D01*
X34356287Y51981998D01*
X34388178Y51941812D01*
X34438439Y51931526D01*
X34483553Y51955955D01*
X34502410Y52003667D01*
X34498589Y52029433D01*
X34454819Y52160743D01*
X34454819Y52368962D01*
X34489077Y52437478D01*
X34519484Y52467886D01*
X34588000Y52502143D01*
X34647828Y52502143D01*
X34716344Y52467885D01*
X34746751Y52437478D01*
X34785244Y52360491D01*
X34830867Y52178001D01*
X34832855Y52175057D01*
X34836546Y52162650D01*
X34884165Y52067412D01*
X34885354Y52066287D01*
X34898214Y52047920D01*
X34945833Y52000301D01*
X34947314Y51999610D01*
X34965325Y51986252D01*
X35060563Y51938633D01*
X35065016Y51938121D01*
X35068452Y51935238D01*
X35094104Y51930715D01*
X35189342Y51930715D01*
X35193555Y51932249D01*
X35197916Y51931207D01*
X35222883Y51938633D01*
X35318121Y51986252D01*
X35319246Y51987441D01*
X35337612Y52000300D01*
X35385232Y52047919D01*
X35385922Y52049401D01*
X35399282Y52067412D01*
X35446901Y52162650D01*
X35447413Y52167104D01*
X35450296Y52170539D01*
X35454819Y52196191D01*
X35454819Y52434286D01*
X35454259Y52435824D01*
X35450970Y52458004D01*
X35403351Y52600860D01*
X35371460Y52641046D01*
X35321199Y52651332D01*
X35276085Y52626903D01*
X35257228Y52579192D01*
X35261049Y52553426D01*
X35304819Y52422117D01*
X35304819Y52213897D01*
X35270561Y52145381D01*
X35240153Y52114974D01*
X35171637Y52080715D01*
X35111809Y52080715D01*
X35043293Y52114973D01*
X35012885Y52145381D01*
X34974392Y52222367D01*
X34928770Y52404857D01*
X34926781Y52407802D01*
X34923091Y52420208D01*
X34875472Y52515446D01*
X34874282Y52516572D01*
X34861423Y52534938D01*
X34813804Y52582557D01*
X34812322Y52583248D01*
X34794312Y52596606D01*
X34699074Y52644225D01*
X34694620Y52644738D01*
X34691185Y52647620D01*
X34665533Y52652143D01*
X34570295Y52652143D01*
X34566081Y52650610D01*
X34561720Y52651651D01*
X34536754Y52644225D01*
X34441516Y52596606D01*
X34440390Y52595417D01*
X34422024Y52582557D01*
X34374405Y52534938D01*
X34373714Y52533457D01*
X34360356Y52515446D01*
X34312737Y52420208D01*
X34312224Y52415755D01*
X34309342Y52412319D01*
X34304819Y52386667D01*
X34304819Y52148572D01*
X34161962Y52148572D01*
X34161962Y53532758D01*
X34304889Y53532758D01*
X34320340Y53483837D01*
X34339553Y53466249D01*
X34763930Y53196191D01*
X34339553Y52926133D01*
X34308302Y52885447D01*
X34310513Y52834192D01*
X34345154Y52796350D01*
X34396015Y52789627D01*
X34420085Y52799583D01*
X34925469Y53121191D01*
X35379819Y53121191D01*
X35428028Y53138738D01*
X35453680Y53183167D01*
X35444771Y53233691D01*
X35405471Y53266668D01*
X35379819Y53271191D01*
X34925469Y53271191D01*
X34420085Y53592799D01*
X34369992Y53603877D01*
X34324498Y53580166D01*
X34304889Y53532758D01*
X34161962Y53532758D01*
X34161962Y53958096D01*
X34304819Y53958096D01*
X34305379Y53956558D01*
X34308668Y53934379D01*
X34356287Y53791522D01*
X34388178Y53751336D01*
X34438439Y53741050D01*
X34483553Y53765479D01*
X34502410Y53813191D01*
X34498589Y53838957D01*
X34454819Y53970267D01*
X34454819Y54178487D01*
X34489077Y54247003D01*
X34519483Y54277409D01*
X34588000Y54311667D01*
X34647828Y54311667D01*
X34716344Y54277410D01*
X34746751Y54247003D01*
X34785244Y54170015D01*
X34830867Y53987525D01*
X34832855Y53984581D01*
X34836546Y53972174D01*
X34884165Y53876936D01*
X34885354Y53875811D01*
X34898214Y53857444D01*
X34945833Y53809825D01*
X34947314Y53809134D01*
X34965325Y53795776D01*
X35060563Y53748157D01*
X35065016Y53747645D01*
X35068452Y53744762D01*
X35094104Y53740239D01*
X35189342Y53740239D01*
X35193555Y53741773D01*
X35197916Y53740731D01*
X35222883Y53748157D01*
X35318121Y53795776D01*
X35319246Y53796965D01*
X35337612Y53809824D01*
X35385232Y53857443D01*
X35385922Y53858925D01*
X35399282Y53876936D01*
X35446901Y53972174D01*
X35447413Y53976628D01*
X35450296Y53980063D01*
X35454819Y54005715D01*
X35454819Y54243810D01*
X35454259Y54245348D01*
X35450970Y54267528D01*
X35403351Y54410384D01*
X35371460Y54450570D01*
X35321199Y54460856D01*
X35276085Y54436427D01*
X35257228Y54388716D01*
X35261049Y54362950D01*
X35304819Y54231641D01*
X35304819Y54023420D01*
X35270561Y53954905D01*
X35240153Y53924498D01*
X35171637Y53890239D01*
X35111809Y53890239D01*
X35043293Y53924497D01*
X35012886Y53954904D01*
X34974392Y54031891D01*
X34928770Y54214381D01*
X34926781Y54217326D01*
X34923091Y54229732D01*
X34875472Y54324970D01*
X34874282Y54326096D01*
X34861423Y54344462D01*
X34813804Y54392081D01*
X34812322Y54392772D01*
X34794312Y54406130D01*
X34699074Y54453749D01*
X34694620Y54454262D01*
X34691185Y54457144D01*
X34665533Y54461667D01*
X34570295Y54461667D01*
X34566081Y54460134D01*
X34561720Y54461175D01*
X34536754Y54453749D01*
X34441516Y54406130D01*
X34440390Y54404941D01*
X34422024Y54392081D01*
X34374405Y54344462D01*
X34373714Y54342981D01*
X34360356Y54324970D01*
X34312737Y54229732D01*
X34312224Y54225279D01*
X34309342Y54221843D01*
X34304819Y54196191D01*
X34304819Y53958096D01*
X34161962Y53958096D01*
X34161962Y54604524D01*
X35597676Y54604524D01*
X35597676Y50835477D01*
G37*
G36*
X39908628Y31046515D02*
G01*
X39874370Y30978000D01*
X39843962Y30947592D01*
X39775447Y30913334D01*
X39668000Y30913334D01*
X39599484Y30947592D01*
X39569077Y30977999D01*
X39534819Y31046516D01*
X39534819Y31334762D01*
X39908628Y31334762D01*
X39908628Y31046515D01*
G37*
G36*
X40384819Y32903659D02*
G01*
X40350561Y32835143D01*
X40320153Y32804736D01*
X40251637Y32770477D01*
X40144190Y32770477D01*
X40075674Y32804735D01*
X40049180Y32831229D01*
X40011009Y32945743D01*
X40011009Y33191905D01*
X40384819Y33191905D01*
X40384819Y32903659D01*
G37*
G36*
X39861009Y32951277D02*
G01*
X39826750Y32882761D01*
X39796344Y32852355D01*
X39727828Y32818096D01*
X39668000Y32818096D01*
X39599484Y32852354D01*
X39569077Y32882761D01*
X39534819Y32951277D01*
X39534819Y33191905D01*
X39861009Y33191905D01*
X39861009Y32951277D01*
G37*
G36*
X40677676Y30620477D02*
G01*
X39241962Y30620477D01*
X39241962Y31028810D01*
X39384819Y31028810D01*
X39386352Y31024597D01*
X39385311Y31020236D01*
X39392737Y30995269D01*
X39440356Y30900031D01*
X39441545Y30898906D01*
X39454405Y30880539D01*
X39502024Y30832920D01*
X39503505Y30832229D01*
X39521516Y30818871D01*
X39616754Y30771252D01*
X39621207Y30770740D01*
X39624643Y30767857D01*
X39650295Y30763334D01*
X39793152Y30763334D01*
X39797365Y30764868D01*
X39801726Y30763826D01*
X39826693Y30771252D01*
X39921931Y30818871D01*
X39923056Y30820061D01*
X39941423Y30832920D01*
X39989042Y30880539D01*
X39989733Y30882021D01*
X40003091Y30900031D01*
X40050710Y30995269D01*
X40051222Y30999723D01*
X40054105Y31003158D01*
X40058628Y31028810D01*
X40058628Y31334762D01*
X40459819Y31334762D01*
X40508028Y31352309D01*
X40533680Y31396738D01*
X40524771Y31447262D01*
X40485471Y31480239D01*
X40459819Y31484762D01*
X39459819Y31484762D01*
X39441510Y31478099D01*
X39422319Y31474714D01*
X39417968Y31469530D01*
X39411610Y31467215D01*
X39401867Y31450342D01*
X39389342Y31435414D01*
X39387624Y31425672D01*
X39385958Y31422786D01*
X39386536Y31419504D01*
X39384819Y31409762D01*
X39384819Y31028810D01*
X39241962Y31028810D01*
X39241962Y32412996D01*
X39384889Y32412996D01*
X39400340Y32364075D01*
X39419553Y32346487D01*
X39843930Y32076429D01*
X39419553Y31806371D01*
X39388302Y31765685D01*
X39390513Y31714430D01*
X39425154Y31676588D01*
X39476015Y31669865D01*
X39500085Y31679821D01*
X40005469Y32001429D01*
X40459819Y32001429D01*
X40508028Y32018976D01*
X40533680Y32063405D01*
X40524771Y32113929D01*
X40485471Y32146906D01*
X40459819Y32151429D01*
X40005469Y32151429D01*
X39500085Y32473037D01*
X39449992Y32484115D01*
X39404498Y32460404D01*
X39384889Y32412996D01*
X39241962Y32412996D01*
X39241962Y32933572D01*
X39384819Y32933572D01*
X39386352Y32929359D01*
X39385311Y32924998D01*
X39392737Y32900031D01*
X39440356Y32804793D01*
X39441545Y32803668D01*
X39454405Y32785301D01*
X39502024Y32737682D01*
X39503505Y32736991D01*
X39521516Y32723633D01*
X39616754Y32676014D01*
X39621207Y32675502D01*
X39624643Y32672619D01*
X39650295Y32668096D01*
X39745533Y32668096D01*
X39749746Y32669630D01*
X39754107Y32668588D01*
X39779074Y32676014D01*
X39874312Y32723633D01*
X39875437Y32724823D01*
X39893804Y32737682D01*
X39915613Y32759492D01*
X39915655Y32759019D01*
X39930595Y32737682D01*
X39978214Y32690063D01*
X39979695Y32689372D01*
X39997706Y32676014D01*
X40092944Y32628395D01*
X40097397Y32627883D01*
X40100833Y32625000D01*
X40126485Y32620477D01*
X40269342Y32620477D01*
X40273555Y32622011D01*
X40277916Y32620969D01*
X40302883Y32628395D01*
X40398121Y32676014D01*
X40399246Y32677203D01*
X40417612Y32690062D01*
X40465232Y32737681D01*
X40465922Y32739163D01*
X40479282Y32757174D01*
X40526901Y32852412D01*
X40527413Y32856866D01*
X40530296Y32860301D01*
X40534819Y32885953D01*
X40534819Y33266905D01*
X40528155Y33285214D01*
X40524771Y33304405D01*
X40519586Y33308756D01*
X40517272Y33315114D01*
X40500398Y33324857D01*
X40485471Y33337382D01*
X40475728Y33339100D01*
X40472843Y33340766D01*
X40469560Y33340188D01*
X40459819Y33341905D01*
X39459819Y33341905D01*
X39441510Y33335242D01*
X39422319Y33331857D01*
X39417968Y33326673D01*
X39411610Y33324358D01*
X39401867Y33307485D01*
X39389342Y33292557D01*
X39387624Y33282815D01*
X39385958Y33279929D01*
X39386536Y33276647D01*
X39384819Y33266905D01*
X39384819Y32933572D01*
X39241962Y32933572D01*
X39241962Y33589238D01*
X39385630Y33589238D01*
X39410059Y33544124D01*
X39457770Y33525267D01*
X39483536Y33529088D01*
X40483536Y33862421D01*
X40485227Y33863764D01*
X40487385Y33863822D01*
X40505137Y33879564D01*
X40523722Y33894312D01*
X40524154Y33896427D01*
X40525771Y33897860D01*
X40529250Y33921329D01*
X40534008Y33944573D01*
X40532979Y33946473D01*
X40533296Y33948608D01*
X40520875Y33968826D01*
X40509579Y33989687D01*
X40507571Y33990481D01*
X40506441Y33992321D01*
X40483536Y34004723D01*
X39483536Y34338056D01*
X39432252Y34336655D01*
X39393867Y34302618D01*
X39386342Y34251869D01*
X39413197Y34208157D01*
X39436102Y34195754D01*
X40222648Y33933572D01*
X39436102Y33671390D01*
X39395916Y33639499D01*
X39385630Y33589238D01*
X39241962Y33589238D01*
X39241962Y34743096D01*
X39384819Y34743096D01*
X39385379Y34741558D01*
X39388668Y34719379D01*
X39436287Y34576522D01*
X39439074Y34573010D01*
X39439465Y34568543D01*
X39454405Y34547206D01*
X39502024Y34499587D01*
X39548520Y34477906D01*
X39598075Y34491183D01*
X39627501Y34533209D01*
X39623030Y34584316D01*
X39608090Y34605653D01*
X39572990Y34640753D01*
X39534819Y34755267D01*
X39534819Y34826164D01*
X39572990Y34940678D01*
X39647103Y35014791D01*
X39724089Y35053284D01*
X39897624Y35096667D01*
X40022013Y35096667D01*
X40195547Y35053284D01*
X40272534Y35014790D01*
X40346648Y34940677D01*
X40384819Y34826164D01*
X40384819Y34755267D01*
X40346648Y34640754D01*
X40311548Y34605654D01*
X40289866Y34559157D01*
X40303143Y34509602D01*
X40345168Y34480176D01*
X40396275Y34484646D01*
X40417612Y34499586D01*
X40465232Y34547205D01*
X40467127Y34551270D01*
X40470948Y34553617D01*
X40483351Y34576522D01*
X40530970Y34719378D01*
X40530925Y34721014D01*
X40534819Y34743096D01*
X40534819Y34838334D01*
X40534259Y34839872D01*
X40530970Y34862052D01*
X40483351Y35004908D01*
X40480564Y35008419D01*
X40480174Y35012887D01*
X40465233Y35034224D01*
X40369994Y35129462D01*
X40368512Y35130153D01*
X40350502Y35143511D01*
X40255264Y35191130D01*
X40251735Y35191537D01*
X40239913Y35196809D01*
X40049437Y35244428D01*
X40045988Y35244068D01*
X40031247Y35246667D01*
X39888390Y35246667D01*
X39885132Y35245482D01*
X39870200Y35244428D01*
X39679724Y35196809D01*
X39676779Y35194821D01*
X39664373Y35191130D01*
X39569135Y35143511D01*
X39568011Y35142325D01*
X39549643Y35129462D01*
X39454405Y35034224D01*
X39452510Y35030161D01*
X39448689Y35027813D01*
X39436287Y35004908D01*
X39388668Y34862051D01*
X39388712Y34860417D01*
X39384819Y34838334D01*
X39384819Y34743096D01*
X39241962Y34743096D01*
X39241962Y35389524D01*
X40677676Y35389524D01*
X40677676Y30620477D01*
G37*
G36*
X34828628Y38657467D02*
G01*
X34794369Y38588951D01*
X34763963Y38558545D01*
X34695447Y38524286D01*
X34588000Y38524286D01*
X34519484Y38558544D01*
X34489077Y38588952D01*
X34454819Y38657468D01*
X34454819Y38945714D01*
X34828628Y38945714D01*
X34828628Y38657467D01*
G37*
G36*
X35597676Y37327806D02*
G01*
X34161962Y37327806D01*
X34161962Y37544524D01*
X34304819Y37544524D01*
X34322366Y37496315D01*
X34366795Y37470663D01*
X34417319Y37479572D01*
X34450296Y37518872D01*
X34454819Y37544524D01*
X34454819Y37945714D01*
X34781009Y37945714D01*
X34781009Y37687381D01*
X34798556Y37639172D01*
X34842985Y37613520D01*
X34893509Y37622429D01*
X34926486Y37661729D01*
X34931009Y37687381D01*
X34931009Y37945714D01*
X35379819Y37945714D01*
X35428028Y37963261D01*
X35453680Y38007690D01*
X35444771Y38058214D01*
X35405471Y38091191D01*
X35379819Y38095714D01*
X34379819Y38095714D01*
X34361510Y38089051D01*
X34342319Y38085666D01*
X34337968Y38080482D01*
X34331610Y38078167D01*
X34321867Y38061294D01*
X34309342Y38046366D01*
X34307624Y38036624D01*
X34305958Y38033738D01*
X34306536Y38030456D01*
X34304819Y38020714D01*
X34304819Y37544524D01*
X34161962Y37544524D01*
X34161962Y38639762D01*
X34304819Y38639762D01*
X34306352Y38635549D01*
X34305311Y38631188D01*
X34312737Y38606221D01*
X34360356Y38510983D01*
X34361545Y38509858D01*
X34374405Y38491491D01*
X34422024Y38443872D01*
X34423505Y38443181D01*
X34441516Y38429823D01*
X34536754Y38382204D01*
X34541207Y38381692D01*
X34544643Y38378809D01*
X34570295Y38374286D01*
X34713152Y38374286D01*
X34717365Y38375820D01*
X34721726Y38374778D01*
X34746693Y38382204D01*
X34841931Y38429823D01*
X34843056Y38431013D01*
X34861423Y38443872D01*
X34909042Y38491491D01*
X34909733Y38492973D01*
X34923091Y38510983D01*
X34970710Y38606221D01*
X34971222Y38610675D01*
X34974105Y38614110D01*
X34978628Y38639762D01*
X34978628Y38945714D01*
X35379819Y38945714D01*
X35428028Y38963261D01*
X35453680Y39007690D01*
X35444771Y39058214D01*
X35405471Y39091191D01*
X35379819Y39095714D01*
X34379819Y39095714D01*
X34361510Y39089051D01*
X34342319Y39085666D01*
X34337968Y39080482D01*
X34331610Y39078167D01*
X34321867Y39061294D01*
X34309342Y39046366D01*
X34307624Y39036624D01*
X34305958Y39033738D01*
X34306536Y39030456D01*
X34304819Y39020714D01*
X34304819Y38639762D01*
X34161962Y38639762D01*
X34161962Y39843262D01*
X34305958Y39843262D01*
X34314867Y39792738D01*
X34354167Y39759761D01*
X34379819Y39755238D01*
X35304819Y39755238D01*
X35304819Y39354048D01*
X35322366Y39305839D01*
X35366795Y39280187D01*
X35417319Y39289096D01*
X35450296Y39328396D01*
X35454819Y39354048D01*
X35454819Y39830238D01*
X35448155Y39848547D01*
X35444771Y39867738D01*
X35439586Y39872089D01*
X35437272Y39878447D01*
X35420398Y39888190D01*
X35405471Y39900715D01*
X35395728Y39902433D01*
X35392843Y39904099D01*
X35389560Y39903521D01*
X35379819Y39905238D01*
X34379819Y39905238D01*
X34331610Y39887691D01*
X34305958Y39843262D01*
X34161962Y39843262D01*
X34161962Y40048095D01*
X35597676Y40048095D01*
X35597676Y37327806D01*
G37*
X51889819Y79478095D02*
X50889819Y79478095D01*
X50889819Y79478095D02*
X50889819Y79240000D01*
X50889819Y79240000D02*
X50937438Y79097143D01*
X50937438Y79097143D02*
X51032676Y79001905D01*
X51032676Y79001905D02*
X51127914Y78954286D01*
X51127914Y78954286D02*
X51318390Y78906667D01*
X51318390Y78906667D02*
X51461247Y78906667D01*
X51461247Y78906667D02*
X51651723Y78954286D01*
X51651723Y78954286D02*
X51746961Y79001905D01*
X51746961Y79001905D02*
X51842200Y79097143D01*
X51842200Y79097143D02*
X51889819Y79240000D01*
X51889819Y79240000D02*
X51889819Y79478095D01*
X50985057Y78525714D02*
X50937438Y78478095D01*
X50937438Y78478095D02*
X50889819Y78382857D01*
X50889819Y78382857D02*
X50889819Y78144762D01*
X50889819Y78144762D02*
X50937438Y78049524D01*
X50937438Y78049524D02*
X50985057Y78001905D01*
X50985057Y78001905D02*
X51080295Y77954286D01*
X51080295Y77954286D02*
X51175533Y77954286D01*
X51175533Y77954286D02*
X51318390Y78001905D01*
X51318390Y78001905D02*
X51889819Y78573333D01*
X51889819Y78573333D02*
X51889819Y77954286D01*
G36*
X35597676Y45756616D02*
G01*
X34161962Y45756616D01*
X34161962Y46272072D01*
X34305958Y46272072D01*
X34309738Y46250635D01*
X34311139Y46228914D01*
X34314118Y46225796D01*
X34314867Y46221548D01*
X34331542Y46207556D01*
X34346577Y46191817D01*
X34350863Y46191343D01*
X34354167Y46188571D01*
X34379819Y46184048D01*
X35304819Y46184048D01*
X35304819Y45973334D01*
X35322366Y45925125D01*
X35366795Y45899473D01*
X35417319Y45908382D01*
X35450296Y45947682D01*
X35454819Y45973334D01*
X35454819Y46544762D01*
X35437272Y46592971D01*
X35392843Y46618623D01*
X35342319Y46609714D01*
X35309342Y46570414D01*
X35304819Y46544762D01*
X35304819Y46334048D01*
X34608504Y46334048D01*
X34670947Y46396491D01*
X34671637Y46397973D01*
X34684996Y46415983D01*
X34732615Y46511221D01*
X34738480Y46562187D01*
X34710214Y46605000D01*
X34661039Y46619627D01*
X34613968Y46599224D01*
X34598451Y46578303D01*
X34556275Y46493952D01*
X34474894Y46412571D01*
X34338216Y46321452D01*
X34335661Y46317976D01*
X34331610Y46316501D01*
X34320726Y46297652D01*
X34307837Y46280110D01*
X34308114Y46275808D01*
X34305958Y46272072D01*
X34161962Y46272072D01*
X34161962Y47068572D01*
X34304819Y47068572D01*
X34305379Y47067034D01*
X34308668Y47044855D01*
X34356287Y46901998D01*
X34388178Y46861812D01*
X34438439Y46851526D01*
X34483553Y46875955D01*
X34502410Y46923667D01*
X34498589Y46949433D01*
X34454819Y47080743D01*
X34454819Y47288962D01*
X34489076Y47357478D01*
X34519484Y47387886D01*
X34588000Y47422143D01*
X34647828Y47422143D01*
X34716344Y47387885D01*
X34746751Y47357478D01*
X34785244Y47280491D01*
X34830867Y47098001D01*
X34832855Y47095057D01*
X34836546Y47082650D01*
X34884165Y46987412D01*
X34885354Y46986287D01*
X34898214Y46967920D01*
X34945833Y46920301D01*
X34947314Y46919610D01*
X34965325Y46906252D01*
X35060563Y46858633D01*
X35065016Y46858121D01*
X35068452Y46855238D01*
X35094104Y46850715D01*
X35189342Y46850715D01*
X35193555Y46852249D01*
X35197916Y46851207D01*
X35222883Y46858633D01*
X35318121Y46906252D01*
X35319246Y46907441D01*
X35337612Y46920300D01*
X35385232Y46967919D01*
X35385922Y46969401D01*
X35399282Y46987412D01*
X35446901Y47082650D01*
X35447413Y47087104D01*
X35450296Y47090539D01*
X35454819Y47116191D01*
X35454819Y47354286D01*
X35454259Y47355824D01*
X35450970Y47378004D01*
X35403351Y47520860D01*
X35371460Y47561046D01*
X35321199Y47571332D01*
X35276085Y47546903D01*
X35257228Y47499192D01*
X35261049Y47473426D01*
X35304819Y47342116D01*
X35304819Y47133897D01*
X35270561Y47065381D01*
X35240153Y47034974D01*
X35171637Y47000715D01*
X35111809Y47000715D01*
X35043293Y47034973D01*
X35012885Y47065381D01*
X34974392Y47142367D01*
X34928770Y47324857D01*
X34926781Y47327802D01*
X34923091Y47340208D01*
X34875472Y47435446D01*
X34874282Y47436572D01*
X34861423Y47454938D01*
X34813804Y47502557D01*
X34812322Y47503248D01*
X34794312Y47516606D01*
X34699074Y47564225D01*
X34694620Y47564738D01*
X34691185Y47567620D01*
X34665533Y47572143D01*
X34570295Y47572143D01*
X34566081Y47570610D01*
X34561720Y47571651D01*
X34536754Y47564225D01*
X34441516Y47516606D01*
X34440390Y47515417D01*
X34422024Y47502557D01*
X34374405Y47454938D01*
X34373714Y47453457D01*
X34360356Y47435446D01*
X34312737Y47340208D01*
X34312224Y47335755D01*
X34309342Y47332319D01*
X34304819Y47306667D01*
X34304819Y47068572D01*
X34161962Y47068572D01*
X34161962Y48452758D01*
X34304889Y48452758D01*
X34320340Y48403837D01*
X34339553Y48386249D01*
X34763930Y48116191D01*
X34339553Y47846133D01*
X34308302Y47805447D01*
X34310513Y47754192D01*
X34345154Y47716350D01*
X34396015Y47709627D01*
X34420085Y47719583D01*
X34925469Y48041191D01*
X35379819Y48041191D01*
X35428028Y48058738D01*
X35453680Y48103167D01*
X35444771Y48153691D01*
X35405471Y48186668D01*
X35379819Y48191191D01*
X34925469Y48191191D01*
X34420085Y48512799D01*
X34369992Y48523877D01*
X34324498Y48500166D01*
X34304889Y48452758D01*
X34161962Y48452758D01*
X34161962Y48878096D01*
X34304819Y48878096D01*
X34305379Y48876558D01*
X34308668Y48854379D01*
X34356287Y48711522D01*
X34388178Y48671336D01*
X34438439Y48661050D01*
X34483553Y48685479D01*
X34502410Y48733191D01*
X34498589Y48758957D01*
X34454819Y48890267D01*
X34454819Y49098486D01*
X34489076Y49167002D01*
X34519484Y49197410D01*
X34588000Y49231667D01*
X34647828Y49231667D01*
X34716344Y49197410D01*
X34746751Y49167003D01*
X34785244Y49090015D01*
X34830867Y48907525D01*
X34832855Y48904581D01*
X34836546Y48892174D01*
X34884165Y48796936D01*
X34885354Y48795811D01*
X34898214Y48777444D01*
X34945833Y48729825D01*
X34947314Y48729134D01*
X34965325Y48715776D01*
X35060563Y48668157D01*
X35065016Y48667645D01*
X35068452Y48664762D01*
X35094104Y48660239D01*
X35189342Y48660239D01*
X35193555Y48661773D01*
X35197916Y48660731D01*
X35222883Y48668157D01*
X35318121Y48715776D01*
X35319246Y48716965D01*
X35337612Y48729824D01*
X35385232Y48777443D01*
X35385922Y48778925D01*
X35399282Y48796936D01*
X35446901Y48892174D01*
X35447413Y48896628D01*
X35450296Y48900063D01*
X35454819Y48925715D01*
X35454819Y49163810D01*
X35454259Y49165348D01*
X35450970Y49187528D01*
X35403351Y49330384D01*
X35371460Y49370570D01*
X35321199Y49380856D01*
X35276085Y49356427D01*
X35257228Y49308716D01*
X35261049Y49282950D01*
X35304819Y49151640D01*
X35304819Y48943421D01*
X35270561Y48874905D01*
X35240153Y48844498D01*
X35171637Y48810239D01*
X35111809Y48810239D01*
X35043293Y48844497D01*
X35012886Y48874904D01*
X34974392Y48951892D01*
X34928770Y49134381D01*
X34926781Y49137326D01*
X34923091Y49149732D01*
X34875472Y49244970D01*
X34874282Y49246096D01*
X34861423Y49264462D01*
X34813804Y49312081D01*
X34812322Y49312772D01*
X34794312Y49326130D01*
X34699074Y49373749D01*
X34694620Y49374262D01*
X34691185Y49377144D01*
X34665533Y49381667D01*
X34570295Y49381667D01*
X34566081Y49380134D01*
X34561720Y49381175D01*
X34536754Y49373749D01*
X34441516Y49326130D01*
X34440390Y49324941D01*
X34422024Y49312081D01*
X34374405Y49264462D01*
X34373714Y49262981D01*
X34360356Y49244970D01*
X34312737Y49149732D01*
X34312224Y49145279D01*
X34309342Y49141843D01*
X34304819Y49116191D01*
X34304819Y48878096D01*
X34161962Y48878096D01*
X34161962Y49524524D01*
X35597676Y49524524D01*
X35597676Y45756616D01*
G37*
X4899819Y79478095D02*
X3899819Y79478095D01*
X3899819Y79478095D02*
X3899819Y79240000D01*
X3899819Y79240000D02*
X3947438Y79097143D01*
X3947438Y79097143D02*
X4042676Y79001905D01*
X4042676Y79001905D02*
X4137914Y78954286D01*
X4137914Y78954286D02*
X4328390Y78906667D01*
X4328390Y78906667D02*
X4471247Y78906667D01*
X4471247Y78906667D02*
X4661723Y78954286D01*
X4661723Y78954286D02*
X4756961Y79001905D01*
X4756961Y79001905D02*
X4852200Y79097143D01*
X4852200Y79097143D02*
X4899819Y79240000D01*
X4899819Y79240000D02*
X4899819Y79478095D01*
X4899819Y77954286D02*
X4899819Y78525714D01*
X4899819Y78240000D02*
X3899819Y78240000D01*
X3899819Y78240000D02*
X4042676Y78335238D01*
X4042676Y78335238D02*
X4137914Y78430476D01*
X4137914Y78430476D02*
X4185533Y78525714D01*
D11*
%TO.C,JP1*%
X28845000Y22910000D02*
X28845000Y21510000D01*
X30845000Y21510000D02*
X30845000Y22910000D01*
X29545000Y20810000D02*
X30145000Y20810000D01*
X30145000Y23610000D02*
X29545000Y23610000D01*
X28845000Y21510000D02*
G75*
G03*
X29545000Y20810000I700000J0D01*
G01*
X29545000Y23610000D02*
G75*
G03*
X28845000Y22910000I-1J-699999D01*
G01*
X30845000Y22910000D02*
G75*
G03*
X30145000Y23610000I-699999J1D01*
G01*
X30145000Y20810000D02*
G75*
G03*
X30845000Y21510000I0J700000D01*
G01*
%TO.C,JP2*%
X36530000Y51320000D02*
X37130000Y51320000D01*
X37830000Y52020000D02*
X37830000Y53420000D01*
X35830000Y53420000D02*
X35830000Y52020000D01*
X37130000Y54120000D02*
X36530000Y54120000D01*
X35830000Y52020000D02*
G75*
G03*
X36530000Y51320000I699999J-1D01*
G01*
X37130000Y51320000D02*
G75*
G03*
X37830000Y52020000I1J699999D01*
G01*
X36530000Y54120000D02*
G75*
G03*
X35830000Y53420000I0J-700000D01*
G01*
X37830000Y53420000D02*
G75*
G03*
X37130000Y54120000I-700000J0D01*
G01*
%TO.C,JP5*%
X42910000Y33705000D02*
G75*
G03*
X42210000Y34405000I-700000J0D01*
G01*
X41610000Y34405000D02*
G75*
G03*
X40910000Y33705000I0J-700000D01*
G01*
X42210000Y31605000D02*
G75*
G03*
X42910000Y32305000I1J699999D01*
G01*
X40910000Y32305000D02*
G75*
G03*
X41610000Y31605000I699999J-1D01*
G01*
X42210000Y34405000D02*
X41610000Y34405000D01*
X40910000Y33705000D02*
X40910000Y32305000D01*
X42910000Y32305000D02*
X42910000Y33705000D01*
X41610000Y31605000D02*
X42210000Y31605000D01*
%TO.C,JP4*%
X37830000Y39450000D02*
G75*
G03*
X37130000Y40150000I-700000J0D01*
G01*
X36530000Y40150000D02*
G75*
G03*
X35830000Y39450000I0J-700000D01*
G01*
X37130000Y37350000D02*
G75*
G03*
X37830000Y38050000I1J699999D01*
G01*
X35830000Y38050000D02*
G75*
G03*
X36530000Y37350000I699999J-1D01*
G01*
X37130000Y40150000D02*
X36530000Y40150000D01*
X35830000Y39450000D02*
X35830000Y38050000D01*
X37830000Y38050000D02*
X37830000Y39450000D01*
X36530000Y37350000D02*
X37130000Y37350000D01*
%TO.C,D2*%
X49340000Y79030000D02*
X49496000Y79030000D01*
X47024000Y79030000D02*
X47180000Y79030000D01*
X49338608Y75797666D02*
G75*
G03*
X49495515Y79029999I-1078608J1672334D01*
G01*
X49339836Y76428871D02*
G75*
G03*
X49339999Y78510960I-1079836J1041129D01*
G01*
X47180001Y78510960D02*
G75*
G03*
X47180164Y76428871I1079999J-1040960D01*
G01*
X47024485Y79029999D02*
G75*
G03*
X47181392Y75797666I1235515J-1559999D01*
G01*
%TO.C,JP3*%
X37830000Y48340000D02*
G75*
G03*
X37130000Y49040000I-700000J0D01*
G01*
X36530000Y49040000D02*
G75*
G03*
X35830000Y48340000I0J-700000D01*
G01*
X37130000Y46240000D02*
G75*
G03*
X37830000Y46940000I1J699999D01*
G01*
X35830000Y46940000D02*
G75*
G03*
X36530000Y46240000I699999J-1D01*
G01*
X37130000Y49040000D02*
X36530000Y49040000D01*
X35830000Y48340000D02*
X35830000Y46940000D01*
X37830000Y46940000D02*
X37830000Y48340000D01*
X36530000Y46240000D02*
X37130000Y46240000D01*
%TO.C,D1*%
X8700000Y79030000D02*
X8856000Y79030000D01*
X6384000Y79030000D02*
X6540000Y79030000D01*
X8698608Y75797666D02*
G75*
G03*
X8855515Y79029999I-1078608J1672334D01*
G01*
X8699836Y76428871D02*
G75*
G03*
X8699999Y78510960I-1079836J1041129D01*
G01*
X6540001Y78510960D02*
G75*
G03*
X6540164Y76428871I1079999J-1040960D01*
G01*
X6384485Y79029999D02*
G75*
G03*
X6541392Y75797666I1235515J-1559999D01*
G01*
%TD*%
M02*
